{
.appVersion = "1075";
classes = (
{
automatic = 1;

glyphs = (
{
glyphname = A;
lastChange = "2017-11-14 17:22:24 +0000";
layers = (
{
anchors = (
{
name = bottom;
position = "{377, 0}";
},
{
name = ogonek;
position = "{706, 10}";
},
{
name = top;
position = "{376, 705}";
}
);
background = {
paths = (
{
closed = 1;
nodes = (
"397 571 LINE",
"359 571 LINE",
"597 39 LINE SMOOTH",
"636 -48 OFFCURVE",
"771 11 OFFCURVE",
"729 98 CURVE SMOOTH",
"460 661 LINE SMOOTH",
"428 727 OFFCURVE",
"325 729 OFFCURVE",
"293 661 CURVE SMOOTH",
"24 98 LINE SMOOTH",
"-18 11 OFFCURVE",
"119 -48 OFFCURVE",
"158 39 CURVE SMOOTH"
);
},
{
closed = 1;
nodes = (
"609 154 LINE",
"548 276 LINE",
"196 276 LINE",
"135 154 LINE"
);
}
);
};
layerId = "E1B555A7-F4E1-459C-9C1A-AE952106EEF9";
paths = (
{
closed = 1;
nodes = (
"397 577 LINE",
"359 577 LINE",
"607 0 LINE",
"766 0 LINE",
"441 705 LINE",
"312 705 LINE",
"-13 0 LINE",
"149 0 LINE"
);
},
{
closed = 1;
nodes = (
"609 154 LINE",
"548 276 LINE",
"196 276 LINE",
"135 154 LINE"
);
}
);
width = 753;
}
);
leftKerningGroup = A;
rightKerningGroup = A;
unicode = 0041;
userData = {
anchors = (
);
b = {
};
com.typemytype.robofont.layerData = {
b = {
anchors = (
);
components = (
);
contours = (
{
points = (
{
segmentType = line;
smooth = 0;
x = 403;
y = 502;
},
{
segmentType = line;
smooth = 0;
x = 703;
y = 1275;
},
{
segmentType = line;
smooth = 0;
x = 705;
y = 1275;
},
{
segmentType = line;
smooth = 0;
x = 1004;
y = 502;
}
);
},
{
points = (
{
segmentType = curve;
smooth = 1;
x = 150;
y = 0;
},
{
smooth = 0;
x = 181;
y = 0;
},
{
smooth = 0;
x = 214;
y = 15;
},
{
segmentType = curve;
smooth = 1;
x = 229;
y = 53;
},
{
segmentType = line;
smooth = 0;
x = 356;
y = 373;
},
{
segmentType = line;
smooth = 0;
x = 1051;
y = 373;
},
{
segmentType = line;
smooth = 1;
x = 1179;
y = 53;
},
{
smooth = 0;
x = 1193;
y = 17;
},
{
smooth = 0;
x = 1228;
y = 0;
},
{
segmentType = curve;
smooth = 1;
x = 1260;
y = 0;
},
{
smooth = 0;
x = 1306;
y = 0;
},
{
smooth = 0;
x = 1354;
y = 31;
},
{
segmentType = curve;
smooth = 1;
x = 1354;
y = 80;
},
{
smooth = 0;
x = 1354;
y = 87;
},
{
smooth = 0;
x = 1352;
y = 97;
},
{
segmentType = curve;
smooth = 0;
x = 1349;
y = 108;
},
{
segmentType = line;
smooth = 1;
x = 871;
y = 1288;
},
{
smooth = 0;
x = 817;
y = 1420;
},
{
smooth = 0;
x = 777;
y = 1430;
},
{
segmentType = curve;
smooth = 1;
x = 710;
y = 1430;
},
{
smooth = 0;
x = 644;
y = 1430;
},
{
smooth = 0;
x = 596;
y = 1413;
},
{
segmentType = curve;
smooth = 1;
x = 542;
y = 1280;
},
{
segmentType = line;
smooth = 1;
x = 66;
y = 108;
},
{
smooth = 0;
x = 62;
y = 97;
},
{
smooth = 0;
x = 60;
y = 87;
},
{
segmentType = curve;
smooth = 1;
x = 60;
y = 78;
},
{
smooth = 0;
x = 60;
y = 32;
},
{
smooth = 0;
x = 106;
y = 0;
}
);
}
);
lib = {
};
name = A;
unicodes = (
);
width = 1414;
};
};
components = (
);
contours = {
};
lib = {
};
name = A;
points = {
};
segmentType = line;
unicodes = (
);
width = 1445;
x = 718;
y = 1232;
};
},
{
glyphname = Aogonek;
lastChange = "2017-11-14 17:22:24 +0000";
layers = (
{
background = {
paths = (
{
closed = 1;
nodes = (
"699 -197 OFFCURVE",
"728 -191 OFFCURVE",
"757 -174 CURVE SMOOTH",
"790 -155 OFFCURVE",
"775 -98 OFFCURVE",
"739 -109 CURVE SMOOTH",
"717 -116 OFFCURVE",
"706 -117 OFFCURVE",
"691 -117 CURVE SMOOTH",
"663 -117 OFFCURVE",
"639 -99 OFFCURVE",
"639 -64 CURVE SMOOTH",
"639 -27 OFFCURVE",
"669 -9 OFFCURVE",
"696 4 CURVE SMOOTH",
"726 18 OFFCURVE",
"750 53 OFFCURVE",
"729 98 CURVE SMOOTH",
"460 661 LINE SMOOTH",
"428 727 OFFCURVE",
"325 729 OFFCURVE",
"293 661 CURVE SMOOTH",
"24 98 LINE SMOOTH",
"-18 11 OFFCURVE",
"119 -48 OFFCURVE",
"158 39 CURVE SMOOTH",
"397 571 LINE",
"359 571 LINE",
"597 39 LINE SMOOTH",
"605 20 OFFCURVE",
"620 10 OFFCURVE",
"628 5 CURVE",
"634 37 LINE",
"570 11 OFFCURVE",
"540 -35 OFFCURVE",
"540 -84 CURVE SMOOTH",
"540 -151 OFFCURVE",
"596 -197 OFFCURVE",
"668 -197 CURVE SMOOTH"
);
},
{
closed = 1;
nodes = (
"609 154 LINE",
"548 276 LINE",
"196 276 LINE",
"135 154 LINE"
);
}
);
};
layerId = "E1B555A7-F4E1-459C-9C1A-AE952106EEF9";
paths = (
{
closed = 1;
nodes = (
"609 154 LINE",
"548 276 LINE",
"196 276 LINE",
"135 154 LINE"
);
},
{
closed = 1;
nodes = (
"733 -113 OFFCURVE",
"715 -117 OFFCURVE",
"698 -117 CURVE SMOOTH",
"660 -117 OFFCURVE",
"639 -99 OFFCURVE",
"639 -64 CURVE SMOOTH",
"639 -27 OFFCURVE",
"668 0 OFFCURVE",
"713 0 CURVE SMOOTH",
"766 0 LINE",
"441 705 LINE",
"312 705 LINE",
"-13 0 LINE",
"149 0 LINE",
"397 577 LINE",
"359 577 LINE",
"607 0 LINE",
"628 33 LINE",
"571 11 OFFCURVE",
"540 -35 OFFCURVE",
"540 -87 CURVE SMOOTH",
"540 -154 OFFCURVE",
"596 -197 OFFCURVE",
"668 -197 CURVE SMOOTH",
"704 -197 OFFCURVE",
"739 -190 OFFCURVE",
"769 -177 CURVE",
"752 -105 LINE"
);
}
);
width = 753;
}
);
leftKerningGroup = A;
rightKerningGroup = A;
unicode = 0104;
},
{
glyphname = Aring;
lastChange = "2017-11-14 17:22:24 +0000";
layers = (
{
background = {
paths = (
{
closed = 1;
nodes = (
"397 571 LINE",
"359 571 LINE",
"597 39 LINE SMOOTH",
"636 -48 OFFCURVE",
"771 10 OFFCURVE",
"729 98 CURVE SMOOTH",
"440 703 LINE",
"313 703 LINE",
"24 98 LINE SMOOTH",
"-18 10 OFFCURVE",
"119 -48 OFFCURVE",
"158 39 CURVE SMOOTH"
);
},
{
closed = 1;
nodes = (
"609 154 LINE",
"548 276 LINE",
"196 276 LINE",
"135 154 LINE"
);
},
{
closed = 1;
nodes = (
"438 670 OFFCURVE",
"487 717 OFFCURVE",
"487 778 CURVE SMOOTH",
"487 839 OFFCURVE",
"438 886 OFFCURVE",
"377 886 CURVE SMOOTH",
"316 886 OFFCURVE",
"267 839 OFFCURVE",
"267 778 CURVE SMOOTH",
"267 717 OFFCURVE",
"316 670 OFFCURVE",
"377 670 CURVE SMOOTH"
);
},
{
closed = 1;
nodes = (
"352 733 OFFCURVE",
"334 753 OFFCURVE",
"334 778 CURVE SMOOTH",
"334 803 OFFCURVE",
"352 823 OFFCURVE",
"377 823 CURVE SMOOTH",
"402 823 OFFCURVE",
"420 803 OFFCURVE",
"420 778 CURVE SMOOTH",
"420 753 OFFCURVE",
"402 733 OFFCURVE",
"377 733 CURVE SMOOTH"
);
}
);
};
layerId = "E1B555A7-F4E1-459C-9C1A-AE952106EEF9";
paths = (
{
closed = 1;
nodes = (
"438 670 OFFCURVE",
"487 717 OFFCURVE",
"487 778 CURVE SMOOTH",
"487 839 OFFCURVE",
"438 886 OFFCURVE",
"377 886 CURVE SMOOTH",
"316 886 OFFCURVE",
"267 839 OFFCURVE",
"267 778 CURVE SMOOTH",
"267 717 OFFCURVE",
"316 670 OFFCURVE",
"377 670 CURVE SMOOTH"
);
},
{
closed = 1;
nodes = (
"352 733 OFFCURVE",
"334 753 OFFCURVE",
"334 778 CURVE SMOOTH",
"334 803 OFFCURVE",
"352 823 OFFCURVE",
"377 823 CURVE SMOOTH",
"402 823 OFFCURVE",
"420 803 OFFCURVE",
"420 778 CURVE SMOOTH",
"420 753 OFFCURVE",
"402 733 OFFCURVE",
"377 733 CURVE SMOOTH"
);
},
{
closed = 1;
nodes = (
"397 577 LINE",
"359 577 LINE",
"607 0 LINE",
"766 0 LINE",
"441 705 LINE",
"312 705 LINE",
"-13 0 LINE",
"149 0 LINE"
);
},
{
closed = 1;
nodes = (
"609 154 LINE",
"548 276 LINE",
"196 276 LINE",
"135 154 LINE"
);
}
);
width = 753;
}
);
leftKerningGroup = A;
rightKerningGroup = A;
unicode = 00C5;
},
{
glyphname = Aringacute;
lastChange = "2017-11-14 17:22:24 +0000";
layers = (
{
background = {
paths = (
{
closed = 1;
nodes = (
"397 571 LINE",
"359 571 LINE",
"597 39 LINE SMOOTH",
"636 -48 OFFCURVE",
"771 10 OFFCURVE",
"729 98 CURVE SMOOTH",
"440 703 LINE",
"313 703 LINE",
"24 98 LINE SMOOTH",
"-18 10 OFFCURVE",
"119 -48 OFFCURVE",
"158 39 CURVE SMOOTH"
);
},
{
closed = 1;
nodes = (
"609 154 LINE",
"548 276 LINE",
"196 276 LINE",
"135 154 LINE"
);
},
{
closed = 1;
nodes = (
"438 670 OFFCURVE",
"487 717 OFFCURVE",
"487 778 CURVE SMOOTH",
"487 839 OFFCURVE",
"438 886 OFFCURVE",
"377 886 CURVE SMOOTH",
"316 886 OFFCURVE",
"267 839 OFFCURVE",
"267 778 CURVE SMOOTH",
"267 717 OFFCURVE",
"316 670 OFFCURVE",
"377 670 CURVE SMOOTH"
);
},
{
closed = 1;
nodes = (
"352 733 OFFCURVE",
"334 753 OFFCURVE",
"334 778 CURVE SMOOTH",
"334 803 OFFCURVE",
"352 823 OFFCURVE",
"377 823 CURVE SMOOTH",
"402 823 OFFCURVE",
"420 803 OFFCURVE",
"420 778 CURVE SMOOTH",
"420 753 OFFCURVE",
"402 733 OFFCURVE",
"377 733 CURVE SMOOTH"
);
},
{
closed = 1;
nodes = (
"568 839 LINE SMOOTH",
"667 867 OFFCURVE",
"603 994 OFFCURVE",
"518 936 CURVE SMOOTH",
"420 869 LINE SMOOTH",
"382 843 OFFCURVE",
"411 794 OFFCURVE",
"452 806 CURVE SMOOTH"
);
}
);
};
layerId = "E1B555A7-F4E1-459C-9C1A-AE952106EEF9";
paths = (
{
closed = 1;
nodes = (
"149 0 LINE",
"397 577 LINE",
"359 577 LINE",
"607 0 LINE",
"766 0 LINE",
"441 705 LINE",
"312 705 LINE",
"-13 0 LINE"
);
},
{
closed = 1;
nodes = (
"609 154 LINE",
"548 276 LINE",
"196 276 LINE",
"135 154 LINE"
);
},
{
closed = 1;
nodes = (
"438 670 OFFCURVE",
"487 717 OFFCURVE",
"487 778 CURVE SMOOTH",
"487 839 OFFCURVE",
"438 886 OFFCURVE",
"377 886 CURVE SMOOTH",
"316 886 OFFCURVE",
"267 839 OFFCURVE",
"267 778 CURVE SMOOTH",
"267 717 OFFCURVE",
"316 670 OFFCURVE",
"377 670 CURVE SMOOTH"
);
},
{
closed = 1;
nodes = (
"352 733 OFFCURVE",
"334 753 OFFCURVE",
"334 778 CURVE SMOOTH",
"334 803 OFFCURVE",
"352 823 OFFCURVE",
"377 823 CURVE SMOOTH",
"402 823 OFFCURVE",
"420 803 OFFCURVE",
"420 778 CURVE SMOOTH",
"420 753 OFFCURVE",
"402 733 OFFCURVE",
"377 733 CURVE SMOOTH"
);
},
{
closed = 1;
nodes = (
"629 946 LINE",
"486 946 LINE",
"407 859 LINE",
"470 814 LINE"
);
}
);
width = 753;
}
);
leftKerningGroup = A;
rightKerningGroup = A;
unicode = 01FA;
},
{
glyphname = AE;
lastChange = "2017-11-14 17:22:24 +0000";
layers = (
{
anchors = (
{
name = bottom;
position = "{505, 0}";
},
{
name = top;
position = "{505, 705}";
}
);
background = {
paths = (
{
closed = 1;
nodes = (
"904 0 LINE SMOOTH",
"954 0 OFFCURVE",
"980 21 OFFCURVE",
"980 62 CURVE SMOOTH",
"980 103 OFFCURVE",
"954 125 OFFCURVE",
"904 125 CURVE SMOOTH",
"682 125 LINE",
"572 617 LINE",
"539 580 LINE",
"904 580 LINE SMOOTH",
"953 580 OFFCURVE",
"980 602 OFFCURVE",
"980 643 CURVE SMOOTH",
"980 684 OFFCURVE",
"954 705 OFFCURVE",
"904 705 CURVE SMOOTH",
"473 705 LINE SMOOTH",
"435 705 OFFCURVE",
"401 688 OFFCURVE",
"383 661 CURVE SMOOTH",
"18 98 LINE SMOOTH",
"-41 9 OFFCURVE",
"93 -51 OFFCURVE",
"149 39 CURVE SMOOTH",
"480 571 LINE",
"437 571 LINE",
"553 45 LINE SMOOTH",
"560 17 OFFCURVE",
"587 0 OFFCURVE",
"624 0 CURVE SMOOTH"
);
},
{
closed = 1;
nodes = (
"586 154 LINE",
"550 276 LINE",
"198 276 LINE",
"136 154 LINE"
);
},
{
closed = 1;
nodes = (
"884 296 LINE SMOOTH",
"934 296 OFFCURVE",
"960 317 OFFCURVE",
"960 358 CURVE SMOOTH",
"960 399 OFFCURVE",
"934 421 OFFCURVE",
"884 421 CURVE SMOOTH",
"567 421 LINE",
"567 296 LINE"
);
}
);
};
layerId = "E1B555A7-F4E1-459C-9C1A-AE952106EEF9";
paths = (
{
closed = 1;
nodes = (
"965 0 LINE",
"965 125 LINE",
"682 125 LINE",
"572 617 LINE",
"537 580 LINE",
"965 580 LINE",
"965 705 LINE",
"412 705 LINE",
"-33 0 LINE",
"142 0 LINE",
"480 571 LINE",
"437 571 LINE",
"563 0 LINE"
);
},
{
closed = 1;
nodes = (
"586 154 LINE",
"550 276 LINE",
"198 276 LINE",
"136 154 LINE"
);
},
{
closed = 1;
nodes = (
"945 296 LINE",
"945 421 LINE",
"567 421 LINE",
"567 296 LINE"
);
}
);
width = 1001;
}
);
leftKerningGroup = A;
rightKerningGroup = E;
unicode = 00C6;
userData = {
com.typemytype.robofont.layerData = {
b = {
anchors = (
);
components = (
);
contours = (
);
lib = {
};
name = AE;
unicodes = (
);
width = 1976;
};
};
};
},
{
glyphname = B;
lastChange = "2017-11-14 17:22:24 +0000";
layers = (
{
anchors = (
{
name = bottom;
position = "{349, 0}";
},
{
name = top;
position = "{349, 705}";
}
);
background = {
anchors = (
{
name = bottom;
position = "{349, 0}";
},
{
name = top;
position = "{349, 705}";
}
);
paths = (
{
closed = 1;
nodes = (
"407 0 LINE SMOOTH",
"560 0 OFFCURVE",
"654 74 OFFCURVE",
"654 193 CURVE SMOOTH",
"654 284 OFFCURVE",
"603 348 OFFCURVE",
"512 368 CURVE",
"512 360 LINE",
"590 383 OFFCURVE",
"636 444 OFFCURVE",
"636 522 CURVE SMOOTH",
"636 635 OFFCURVE",
"544 705 OFFCURVE",
"397 705 CURVE SMOOTH",
"144 705 LINE SMOOTH",
"96 705 OFFCURVE",
"69 678 OFFCURVE",
"69 630 CURVE SMOOTH",
"69 75 LINE SMOOTH",
"69 27 OFFCURVE",
"96 0 OFFCURVE",
"144 0 CURVE SMOOTH"
);
},
{
closed = 1;
nodes = (
"226 296 LINE",
"388 296 LINE SMOOTH",
"469 296 OFFCURVE",
"503 270 OFFCURVE",
"503 209 CURVE SMOOTH",
"503 149 OFFCURVE",
"469 123 OFFCURVE",
"388 123 CURVE SMOOTH",
"226 123 LINE"
);
},
{
closed = 1;
nodes = (
"226 582 LINE",
"370 582 LINE SMOOTH",
"448 582 OFFCURVE",
"484 556 OFFCURVE",
"484 500 CURVE SMOOTH",
"484 446 OFFCURVE",
"448 421 OFFCURVE",
"370 421 CURVE SMOOTH",
"226 421 LINE"
);
}
);
};
layerId = "E1B555A7-F4E1-459C-9C1A-AE952106EEF9";
paths = (
{
closed = 1;
nodes = (
"407 0 LINE SMOOTH",
"560 0 OFFCURVE",
"654 74 OFFCURVE",
"654 193 CURVE SMOOTH",
"654 284 OFFCURVE",
"603 348 OFFCURVE",
"512 368 CURVE",
"512 360 LINE",
"590 383 OFFCURVE",
"636 444 OFFCURVE",
"636 522 CURVE SMOOTH",
"636 635 OFFCURVE",
"544 705 OFFCURVE",
"397 705 CURVE SMOOTH",
"69 705 LINE",
"69 0 LINE"
);
},
{
closed = 1;
nodes = (
"226 297 LINE",
"388 297 LINE SMOOTH",
"469 297 OFFCURVE",
"503 270 OFFCURVE",
"503 209 CURVE SMOOTH",
"503 149 OFFCURVE",
"469 123 OFFCURVE",
"388 123 CURVE SMOOTH",
"226 123 LINE"
);
},
{
closed = 1;
nodes = (
"226 582 LINE",
"370 582 LINE SMOOTH",
"448 582 OFFCURVE",
"484 556 OFFCURVE",
"484 500 CURVE SMOOTH",
"484 446 OFFCURVE",
"448 420 OFFCURVE",
"370 420 CURVE SMOOTH",
"226 420 LINE"
);
}
);
width = 690;
}
);
leftKerningGroup = H;
rightKerningGroup = B;
unicode = 0042;
userData = {
anchors = (
);
b = {
};
com.typemytype.robofont.layerData = {
b = {
anchors = (
);
components = (
);
contours = (
{
points = (
{
segmentType = curve;
smooth = 1;
x = 266;
y = 0;
},
{
segmentType = line;
smooth = 1;
x = 1035;
y = 0;
},
{
smooth = 0;
x = 1084;
y = 0;
},
{
smooth = 0;
x = 1108;
y = 36;
},
{
segmentType = curve;
smooth = 1;
x = 1108;
y = 73;
},
{
smooth = 0;
x = 1108;
y = 109;
},
{
smooth = 0;
x = 1084;
y = 145;
},
{
segmentType = curve;
smooth = 1;
x = 1035;
y = 145;
},
{
segmentType = line;
smooth = 0;
x = 353;
y = 145;
},
{
segmentType = line;
smooth = 0;
x = 353;
y = 662;
},
{
segmentType = line;
smooth = 1;
x = 975;
y = 662;
},
{
smooth = 0;
x = 1024;
y = 662;
},
{
smooth = 0;
x = 1049;
y = 698;
},
{
segmentType = curve;
smooth = 1;
x = 1049;
y = 734;
},
{
smooth = 0;
x = 1049;
y = 770;
},
{
smooth = 0;
x = 1026;
y = 806;
},
{
segmentType = curve;
smooth = 1;
x = 975;
y = 806;
},
{
segmentType = line;
smooth = 0;
x = 353;
y = 806;
},
{
segmentType = line;
smooth = 0;
x = 353;
y = 1281;
},
{
segmentType = line;
smooth = 1;
x = 1007;
y = 1281;
},
{
smooth = 0;
x = 1056;
y = 1281;
},
{
smooth = 0;
x = 1080;
y = 1317;
},
{
segmentType = curve;
smooth = 1;
x = 1080;
y = 1354;
},
{
smooth = 0;
x = 1080;
y = 1390;
},
{
smooth = 0;
x = 1056;
y = 1426;
},
{
segmentType = curve;
smooth = 1;
x = 1007;
y = 1426;
},
{
segmentType = line;
smooth = 1;
x = 261;
y = 1426;
},
{
smooth = 0;
x = 213;
y = 1426;
},
{
smooth = 0;
x = 178;
y = 1383;
},
{
segmentType = curve;
smooth = 1;
x = 178;
y = 1340;
},
{
segmentType = line;
smooth = 1;
x = 178;
y = 86;
},
{
smooth = 0;
x = 178;
y = 41;
},
{
smooth = 0;
x = 222;
y = 0;
}
);
}
);
lib = {
};
name = B;
unicodes = (
);
width = 1292;
};
};
components = (
);
contours = {
};
lib = {
};
name = B;
points = {
};
segmentType = curve;
unicodes = (
);
width = 1395;
x = 676;
y = 1260;
};
},
{
glyphname = C;
lastChange = "2017-11-14 17:22:24 +0000";
layers = (
{
anchors = (
{
name = bottom;
position = "{395, 0}";
},
{
name = top;
position = "{395, 705}";
}
);
background = {
anchors = (
{
name = bottom;
position = "{395, 0}";
},
{
name = top;
position = "{395, 705}";
}
);
paths = (
{
closed = 1;
nodes = (
"608 -9 OFFCURVE",
"740 132 OFFCURVE",
"740 353 CURVE SMOOTH",
"740 574 OFFCURVE",
"608 714 OFFCURVE",
"395 714 CURVE SMOOTH",
"182 714 OFFCURVE",
"49 574 OFFCURVE",
"49 353 CURVE SMOOTH",
"49 132 OFFCURVE",
"182 -9 OFFCURVE",
"395 -9 CURVE SMOOTH"
);
},
{
closed = 1;
nodes = (
"281 116 OFFCURVE",
"210 196 OFFCURVE",
"210 353 CURVE SMOOTH",
"210 510 OFFCURVE",
"281 589 OFFCURVE",
"395 589 CURVE SMOOTH",
"509 589 OFFCURVE",
"580 509 OFFCURVE",
"580 353 CURVE SMOOTH",
"580 197 OFFCURVE",
"509 116 OFFCURVE",
"395 116 CURVE SMOOTH"
);
}
);
};
layerId = "E1B555A7-F4E1-459C-9C1A-AE952106EEF9";
paths = (
{
closed = 1;
nodes = (
"495 -9 OFFCURVE",
"586 21 OFFCURVE",
"641 71 CURVE",
"590 186 LINE",
"528 140 OFFCURVE",
"469 120 OFFCURVE",
"405 120 CURVE SMOOTH",
"282 120 OFFCURVE",
"213 200 OFFCURVE",
"213 353 CURVE SMOOTH",
"213 506 OFFCURVE",
"282 585 OFFCURVE",
"405 585 CURVE SMOOTH",
"469 585 OFFCURVE",
"528 565 OFFCURVE",
"590 519 CURVE",
"641 634 LINE",
"586 684 OFFCURVE",
"495 714 OFFCURVE",
"402 714 CURVE SMOOTH",
"184 714 OFFCURVE",
"49 571 OFFCURVE",
"49 353 CURVE SMOOTH",
"49 135 OFFCURVE",
"184 -9 OFFCURVE",
"402 -9 CURVE SMOOTH"
);
}
);
width = 678;
}
);
leftKerningGroup = O;
rightKerningGroup = C;
unicode = 0043;
userData = {
anchors = (
);
b = {
};
com.typemytype.robofont.layerData = {
b = {
anchors = (
);
components = (
);
contours = (
);
lib = {
};
name = C;
unicodes = (
);
width = 1353.89001;
};
};
components = (
);
contours = (
);
lib = {
};
name = C;
unicodes = (
);
width = 1354;
};
},
{
glyphname = D;
lastChange = "2017-11-14 17:22:24 +0000";
layers = (
{
anchors = (
{
name = bottom;
position = "{382, 0}";
},
{
name = center;
position = "{382, 353}";
},
{
name = top;
position = "{382, 705}";
}
);
background = {
anchors = (
{
name = bottom;
position = "{382, 0}";
},
{
name = center;
position = "{382, 353}";
},
{
name = top;
position = "{382, 705}";
}
);
paths = (
{
closed = 1;
nodes = (
"345 0 LINE SMOOTH",
"579 0 OFFCURVE",
"716 131 OFFCURVE",
"716 353 CURVE SMOOTH",
"716 574 OFFCURVE",
"578 705 OFFCURVE",
"345 705 CURVE SMOOTH",
"144 705 LINE SMOOTH",
"96 705 OFFCURVE",
"69 678 OFFCURVE",
"69 630 CURVE SMOOTH",
"69 75 LINE SMOOTH",
"69 27 OFFCURVE",
"96 0 OFFCURVE",
"144 0 CURVE SMOOTH"
);
},
{
closed = 1;
nodes = (
"230 575 LINE",
"334 575 LINE SMOOTH",
"482 575 OFFCURVE",
"555 502 OFFCURVE",
"555 353 CURVE SMOOTH",
"555 204 OFFCURVE",
"482 130 OFFCURVE",
"334 130 CURVE SMOOTH",
"230 130 LINE"
);
}
);
};
layerId = "E1B555A7-F4E1-459C-9C1A-AE952106EEF9";
paths = (
{
closed = 1;
nodes = (
"345 0 LINE SMOOTH",
"579 0 OFFCURVE",
"716 131 OFFCURVE",
"716 353 CURVE SMOOTH",
"716 574 OFFCURVE",
"578 705 OFFCURVE",
"345 705 CURVE SMOOTH",
"69 705 LINE",
"69 0 LINE"
);
},
{
closed = 1;
nodes = (
"230 575 LINE",
"334 575 LINE SMOOTH",
"482 575 OFFCURVE",
"555 502 OFFCURVE",
"555 353 CURVE SMOOTH",
"555 204 OFFCURVE",
"482 130 OFFCURVE",
"334 130 CURVE SMOOTH",
"230 130 LINE"
);
}
);
width = 765;
}
);
leftKerningGroup = H;
rightKerningGroup = O;
unicode = 0044;
userData = {
anchors = (
);
b = {
};
com.typemytype.robofont.layerData = {
b = {
anchors = (
);
components = (
);
contours = (
{
points = (
{
segmentType = curve;
smooth = 1;
x = 266;
y = 0;
},
{
segmentType = line;
smooth = 1;
x = 1035;
y = 0;
},
{
smooth = 0;
x = 1084;
y = 0;
},
{
smooth = 0;
x = 1108;
y = 34;
},
{
segmentType = curve;
smooth = 1;
x = 1108;
y = 71;
},
{
smooth = 0;
x = 1108;
y = 107;
},
{
smooth = 0;
x = 1084;
y = 141;
},
{
segmentType = curve;
smooth = 1;
x = 1035;
y = 141;
},
{
segmentType = line;
smooth = 0;
x = 356;
y = 141;
},
{
segmentType = line;
smooth = 0;
x = 356;
y = 665;
},
{
segmentType = line;
smooth = 1;
x = 975;
y = 665;
},
{
smooth = 0;
x = 1024;
y = 665;
},
{
smooth = 0;
x = 1049;
y = 698;
},
{
segmentType = curve;
smooth = 1;
x = 1049;
y = 734;
},
{
smooth = 0;
x = 1049;
y = 770;
},
{
smooth = 0;
x = 1026;
y = 803;
},
{
segmentType = curve;
smooth = 1;
x = 975;
y = 803;
},
{
segmentType = line;
smooth = 0;
x = 356;
y = 803;
},
{
segmentType = line;
smooth = 0;
x = 356;
y = 1285;
},
{
segmentType = line;
smooth = 1;
x = 1007;
y = 1285;
},
{
smooth = 0;
x = 1056;
y = 1285;
},
{
smooth = 0;
x = 1080;
y = 1319;
},
{
segmentType = curve;
smooth = 1;
x = 1080;
y = 1356;
},
{
smooth = 0;
x = 1080;
y = 1392;
},
{
smooth = 0;
x = 1056;
y = 1426;
},
{
segmentType = curve;
smooth = 1;
x = 1007;
y = 1426;
},
{
segmentType = line;
smooth = 1;
x = 261;
y = 1426;
},
{
smooth = 0;
x = 213;
y = 1426;
},
{
smooth = 0;
x = 178;
y = 1383;
},
{
segmentType = curve;
smooth = 1;
x = 178;
y = 1340;
},
{
segmentType = line;
smooth = 1;
x = 178;
y = 86;
},
{
smooth = 0;
x = 178;
y = 41;
},
{
smooth = 0;
x = 222;
y = 0;
}
);
}
);
lib = {
};
name = D;
unicodes = (
);
width = 1499;
};
};
components = (
);
contours = (
);
lib = {
};
name = D;
unicodes = (
);
width = 1535;
};
},
{
glyphname = Eth;
lastChange = "2017-11-14 17:22:24 +0000";
layers = (
{
background = {
paths = (
{
closed = 1;
nodes = (
"376 0 LINE SMOOTH",
"610 0 OFFCURVE",
"747 131 OFFCURVE",
"747 353 CURVE SMOOTH",
"747 574 OFFCURVE",
"609 705 OFFCURVE",
"376 705 CURVE SMOOTH",
"175 705 LINE SMOOTH",
"127 705 OFFCURVE",
"100 678 OFFCURVE",
"100 630 CURVE SMOOTH",
"100 75 LINE SMOOTH",
"100 27 OFFCURVE",
"127 0 OFFCURVE",
"175 0 CURVE SMOOTH"
);
},
{
closed = 1;
nodes = (
"389 295 LINE SMOOTH",
"435 295 OFFCURVE",
"461 317 OFFCURVE",
"461 356 CURVE SMOOTH",
"461 395 OFFCURVE",
"435 417 OFFCURVE",
"389 417 CURVE SMOOTH",
"72 417 LINE SMOOTH",
"26 417 OFFCURVE",
"0 395 OFFCURVE",
"0 356 CURVE SMOOTH",
"0 317 OFFCURVE",
"26 295 OFFCURVE",
"72 295 CURVE SMOOTH"
);
},
{
closed = 1;
nodes = (
"261 575 LINE",
"365 575 LINE SMOOTH",
"513 575 OFFCURVE",
"586 502 OFFCURVE",
"586 353 CURVE SMOOTH",
"586 204 OFFCURVE",
"513 130 OFFCURVE",
"365 130 CURVE SMOOTH",
"261 130 LINE"
);
}
);
};
layerId = "E1B555A7-F4E1-459C-9C1A-AE952106EEF9";
paths = (
{
closed = 1;
nodes = (
"446 295 LINE",
"446 417 LINE",
"15 417 LINE",
"15 295 LINE"
);
},
{
closed = 1;
nodes = (
"376 0 LINE SMOOTH",
"610 0 OFFCURVE",
"747 131 OFFCURVE",
"747 353 CURVE SMOOTH",
"747 574 OFFCURVE",
"609 705 OFFCURVE",
"376 705 CURVE SMOOTH",
"100 705 LINE",
"100 0 LINE"
);
},
{
closed = 1;
nodes = (
"261 575 LINE",
"365 575 LINE SMOOTH",
"513 575 OFFCURVE",
"586 502 OFFCURVE",
"586 353 CURVE SMOOTH",
"586 204 OFFCURVE",
"513 130 OFFCURVE",
"365 130 CURVE SMOOTH",
"261 130 LINE"
);
}
);
width = 796;
}
);
leftKerningGroup = H;
rightKerningGroup = O;
unicode = 00D0;
},
{
glyphname = E;
lastChange = "2017-11-14 17:22:24 +0000";
layers = (
{
anchors = (
{
name = bottom;
position = "{331, 0}";
},
{
name = ogonek;
position = "{536, 10}";
},
{
name = top;
position = "{331, 705}";
},
{
name = topleft;
position = "{21, 705}";
}
);
background = {
anchors = (
{
name = bottom;
position = "{331, 0}";
},
{
name = ogonek;
position = "{536, 10}";
},
{
name = top;
position = "{331, 705}";
},
{
name = topleft;
position = "{21, 705}";
}
);
paths = (
{
closed = 1;
nodes = (
"497 0 LINE SMOOTH",
"547 0 OFFCURVE",
"573 22 OFFCURVE",
"573 62 CURVE SMOOTH",
"573 103 OFFCURVE",
"547 125 OFFCURVE",
"497 125 CURVE SMOOTH",
"226 125 LINE",
"226 296 LINE",
"477 296 LINE SMOOTH",
"527 296 OFFCURVE",
"553 318 OFFCURVE",
"553 358 CURVE SMOOTH",
"553 399 OFFCURVE",
"527 421 OFFCURVE",
"477 421 CURVE SMOOTH",
"226 421 LINE",
"226 580 LINE",
"497 580 LINE SMOOTH",
"547 580 OFFCURVE",
"573 602 OFFCURVE",
"573 643 CURVE SMOOTH",
"573 683 OFFCURVE",
"547 705 OFFCURVE",
"497 705 CURVE SMOOTH",
"144 705 LINE SMOOTH",
"96 705 OFFCURVE",
"69 678 OFFCURVE",
"69 630 CURVE SMOOTH",
"69 75 LINE SMOOTH",
"69 27 OFFCURVE",
"96 0 OFFCURVE",
"144 0 CURVE SMOOTH"
);
}
);
};
guideLines = (
{
angle = 90;
position = "{573, 247}";
}
);
layerId = "E1B555A7-F4E1-459C-9C1A-AE952106EEF9";
paths = (
{
closed = 1;
nodes = (
"558 0 LINE",
"558 125 LINE",
"226 125 LINE",
"226 296 LINE",
"538 296 LINE",
"538 421 LINE",
"226 421 LINE",
"226 580 LINE",
"558 580 LINE",
"558 705 LINE",
"69 705 LINE",
"69 0 LINE"
);
}
);
width = 594;
}
);
leftKerningGroup = H;
rightKerningGroup = E;
unicode = 0045;
userData = {
anchors = (
);
b = {
};
com.typemytype.robofont.layerData = {
b = {
anchors = (
);
components = (
);
contours = (
);
lib = {
};
name = E;
unicodes = (
);
width = 1234;
};
};
components = (
);
contours = (
);
lib = {
};
name = E;
unicodes = (
);
width = 1258;
};
},
{
glyphname = Eogonek;
lastChange = "2017-11-14 17:22:24 +0000";
layers = (
{
anchors = (
{
name = top;
position = "{331, 705}";
}
);
background = {
anchors = (
{
name = top;
position = "{331, 705}";
}
);
paths = (
{
closed = 1;
nodes = (
"530 -197 OFFCURVE",
"558 -190 OFFCURVE",
"585 -174 CURVE SMOOTH",
"618 -155 OFFCURVE",
"603 -98 OFFCURVE",
"567 -109 CURVE SMOOTH",
"542 -115 OFFCURVE",
"533 -117 OFFCURVE",
"519 -117 CURVE SMOOTH",
"488 -117 OFFCURVE",
"467 -96 OFFCURVE",
"467 -64 CURVE SMOOTH",
"467 -31 OFFCURVE",
"486 -8 OFFCURVE",
"518 0 CURVE SMOOTH",
"556 9 OFFCURVE",
"573 28 OFFCURVE",
"573 62 CURVE SMOOTH",
"573 103 OFFCURVE",
"547 125 OFFCURVE",
"497 125 CURVE SMOOTH",
"226 125 LINE",
"226 296 LINE",
"477 296 LINE SMOOTH",
"527 296 OFFCURVE",
"553 318 OFFCURVE",
"553 358 CURVE SMOOTH",
"553 399 OFFCURVE",
"527 421 OFFCURVE",
"477 421 CURVE SMOOTH",
"226 421 LINE",
"226 580 LINE",
"497 580 LINE SMOOTH",
"547 580 OFFCURVE",
"573 602 OFFCURVE",
"573 643 CURVE SMOOTH",
"573 683 OFFCURVE",
"547 705 OFFCURVE",
"497 705 CURVE SMOOTH",
"144 705 LINE SMOOTH",
"96 705 OFFCURVE",
"69 678 OFFCURVE",
"69 630 CURVE SMOOTH",
"69 75 LINE SMOOTH",
"69 27 OFFCURVE",
"96 0 OFFCURVE",
"144 0 CURVE SMOOTH",
"452 0 LINE",
"434 20 LINE",
"390 -5 OFFCURVE",
"368 -42 OFFCURVE",
"368 -87 CURVE SMOOTH",
"368 -151 OFFCURVE",
"421 -197 OFFCURVE",
"496 -197 CURVE SMOOTH"
);
}
);
};
layerId = "E1B555A7-F4E1-459C-9C1A-AE952106EEF9";
paths = (
{
closed = 1;
nodes = (
"561 -113 OFFCURVE",
"543 -117 OFFCURVE",
"526 -117 CURVE SMOOTH",
"488 -117 OFFCURVE",
"467 -99 OFFCURVE",
"467 -64 CURVE SMOOTH",
"467 -25 OFFCURVE",
"494 0 OFFCURVE",
"536 0 CURVE SMOOTH",
"558 0 LINE",
"558 125 LINE",
"226 125 LINE",
"226 296 LINE",
"538 296 LINE",
"538 421 LINE",
"226 421 LINE",
"226 580 LINE",
"558 580 LINE",
"558 705 LINE",
"69 705 LINE",
"69 0 LINE",
"452 0 LINE",
"434 20 LINE",
"390 -5 OFFCURVE",
"368 -42 OFFCURVE",
"368 -87 CURVE SMOOTH",
"368 -151 OFFCURVE",
"421 -197 OFFCURVE",
"496 -197 CURVE SMOOTH",
"532 -197 OFFCURVE",
"567 -190 OFFCURVE",
"597 -177 CURVE",
"580 -105 LINE"
);
}
);
width = 594;
}
);
leftKerningGroup = H;
rightKerningGroup = E;
unicode = 0118;
userData = {
com.typemytype.robofont.layerData = {
b = {
anchors = (
);
components = (
);
contours = (
);
lib = {
};
name = Eogonek;
unicodes = (
);
width = 1234;
};
};
};
},
{
glyphname = F;
lastChange = "2017-11-14 17:22:24 +0000";
layers = (
{
anchors = (
{
name = bottom;
position = "{316, 0}";
},
{
name = top;
position = "{288, 705}";
}
);
background = {
anchors = (
{
name = bottom;
position = "{316, 0}";
},
{
name = top;
position = "{288, 705}";
}
);
paths = (
{
closed = 1;
nodes = (
"197 -6 OFFCURVE",
"228 25 OFFCURVE",
"228 74 CURVE SMOOTH",
"228 295 LINE",
"467 295 LINE SMOOTH",
"518 295 OFFCURVE",
"543 315 OFFCURVE",
"543 358 CURVE SMOOTH",
"543 402 OFFCURVE",
"518 422 OFFCURVE",
"467 422 CURVE SMOOTH",
"228 422 LINE",
"228 578 LINE",
"487 578 LINE SMOOTH",
"538 578 OFFCURVE",
"563 598 OFFCURVE",
"563 641 CURVE SMOOTH",
"563 685 OFFCURVE",
"538 705 OFFCURVE",
"487 705 CURVE SMOOTH",
"144 705 LINE SMOOTH",
"96 705 OFFCURVE",
"69 678 OFFCURVE",
"69 630 CURVE SMOOTH",
"69 74 LINE SMOOTH",
"69 26 OFFCURVE",
"101 -6 OFFCURVE",
"149 -6 CURVE SMOOTH"
);
}
);
};
layerId = "E1B555A7-F4E1-459C-9C1A-AE952106EEF9";
paths = (
{
closed = 1;
nodes = (
"228 0 LINE",
"228 295 LINE",
"528 295 LINE",
"528 422 LINE",
"228 422 LINE",
"228 578 LINE",
"548 578 LINE",
"548 705 LINE",
"69 705 LINE",
"69 0 LINE"
);
}
);
width = 573;
}
);
leftKerningGroup = H;
rightKerningGroup = F;
unicode = 0046;
userData = {
anchors = (
);
b = {
};
com.typemytype.robofont.layerData = {
b = {
anchors = (
);
components = (
);
contours = (
{
points = (
{
segmentType = curve;
smooth = 1;
x = 266;
y = 0;
},
{
segmentType = line;
smooth = 1;
x = 1035;
y = 0;
},
{
smooth = 0;
x = 1084;
y = 0;
},
{
smooth = 0;
x = 1108;
y = 34;
},
{
segmentType = curve;
smooth = 1;
x = 1108;
y = 71;
},
{
smooth = 0;
x = 1108;
y = 107;
},
{
smooth = 0;
x = 1084;
y = 141;
},
{
segmentType = curve;
smooth = 1;
x = 1035;
y = 141;
},
{
segmentType = line;
smooth = 0;
x = 353;
y = 141;
},
{
segmentType = line;
smooth = 0;
x = 353;
y = 665;
},
{
segmentType = line;
smooth = 1;
x = 975;
y = 665;
},
{
smooth = 0;
x = 1024;
y = 665;
},
{
smooth = 0;
x = 1049;
y = 698;
},
{
segmentType = curve;
smooth = 1;
x = 1049;
y = 734;
},
{
smooth = 0;
x = 1049;
y = 770;
},
{
smooth = 0;
x = 1026;
y = 803;
},
{
segmentType = curve;
smooth = 1;
x = 975;
y = 803;
},
{
segmentType = line;
smooth = 0;
x = 353;
y = 803;
},
{
segmentType = line;
smooth = 0;
x = 353;
y = 1285;
},
{
segmentType = line;
smooth = 1;
x = 1007;
y = 1285;
},
{
smooth = 0;
x = 1056;
y = 1285;
},
{
smooth = 0;
x = 1080;
y = 1319;
},
{
segmentType = curve;
smooth = 1;
x = 1080;
y = 1356;
},
{
smooth = 0;
x = 1080;
y = 1392;
},
{
smooth = 0;
x = 1056;
y = 1426;
},
{
segmentType = curve;
smooth = 1;
x = 1007;
y = 1426;
},
{
segmentType = line;
smooth = 1;
x = 261;
y = 1426;
},
{
smooth = 0;
x = 213;
y = 1426;
},
{
smooth = 0;
x = 178;
y = 1383;
},
{
segmentType = curve;
smooth = 1;
x = 178;
y = 1340;
},
{
segmentType = line;
smooth = 1;
x = 178;
y = 86;
},
{
smooth = 0;
x = 178;
y = 41;
},
{
smooth = 0;
x = 222;
y = 0;
}
);
}
);
lib = {
};
name = F;
unicodes = (
);
width = 1142;
};
};
components = (
);
contours = (
);
lib = {
};
name = F;
unicodes = (
);
width = 1175;
};
},
{
glyphname = G;
lastChange = "2017-11-14 17:22:24 +0000";
layers = (
{
anchors = (
{
name = bottom;
position = "{415, 0}";
},
{
name = top;
position = "{408, 705}";
}
);
background = {
anchors = (
{
name = bottom;
position = "{415, 0}";
},
{
name = top;
position = "{408, 705}";
}
);
paths = (
{
closed = 1;
nodes = (
"495 -9 OFFCURVE",
"586 21 OFFCURVE",
"641 71 CURVE",
"590 186 LINE",
"528 140 OFFCURVE",
"469 120 OFFCURVE",
"405 120 CURVE SMOOTH",
"282 120 OFFCURVE",
"213 200 OFFCURVE",
"213 353 CURVE SMOOTH",
"213 506 OFFCURVE",
"282 585 OFFCURVE",
"405 585 CURVE SMOOTH",
"469 585 OFFCURVE",
"528 565 OFFCURVE",
"590 519 CURVE",
"641 634 LINE",
"586 684 OFFCURVE",
"495 714 OFFCURVE",
"402 714 CURVE SMOOTH",
"184 714 OFFCURVE",
"49 571 OFFCURVE",
"49 353 CURVE SMOOTH",
"49 135 OFFCURVE",
"184 -9 OFFCURVE",
"402 -9 CURVE SMOOTH"
);
}
);
};
layerId = "E1B555A7-F4E1-459C-9C1A-AE952106EEF9";
paths = (
{
closed = 1;
nodes = (
"511 -9 OFFCURVE",
"608 10 OFFCURVE",
"678 44 CURVE",
"678 391 LINE",
"398 391 LINE",
"398 279 LINE",
"534 279 LINE",
"534 88 LINE",
"569 139 LINE",
"521 123 OFFCURVE",
"470 115 OFFCURVE",
"422 115 CURVE SMOOTH",
"281 115 OFFCURVE",
"212 193 OFFCURVE",
"212 353 CURVE SMOOTH",
"212 509 OFFCURVE",
"279 586 OFFCURVE",
"413 586 CURVE SMOOTH",
"484 586 OFFCURVE",
"542 567 OFFCURVE",
"608 521 CURVE",
"659 636 LINE",
"602 685 OFFCURVE",
"509 714 OFFCURVE",
"408 714 CURVE SMOOTH",
"189 714 OFFCURVE",
"49 575 OFFCURVE",
"49 353 CURVE SMOOTH",
"49 127 OFFCURVE",
"188 -9 OFFCURVE",
"415 -9 CURVE SMOOTH"
);
}
);
width = 739;
}
);
leftKerningGroup = O;
rightKerningGroup = G;
unicode = 0047;
userData = {
anchors = (
);
b = {
};
com.typemytype.robofont.layerData = {
b = {
anchors = (
);
components = (
);
contours = (
{
points = (
{
segmentType = curve;
smooth = 1;
x = 783;
y = "-22";
},
{
smooth = 0;
x = 965;
y = "-22";
},
{
smooth = 0;
x = 1086;
y = 34;
},
{
segmentType = curve;
smooth = 1;
x = 1166;
y = 86;
},
{
smooth = 0;
x = 1270;
y = 154;
},
{
smooth = 0;
x = 1186;
y = 258;
},
{
segmentType = curve;
smooth = 1;
x = 1112;
y = 214;
},
{
smooth = 0;
x = 1024;
y = 162;
},
{
smooth = 0;
x = 939;
y = 120;
},
{
segmentType = curve;
smooth = 1;
x = 806;
y = 120;
},
{
smooth = 0;
x = 446;
y = 120;
},
{
smooth = 0;
x = 316;
y = 406;
},
{
segmentType = curve;
smooth = 1;
x = 316;
y = 706;
},
{
smooth = 0;
x = 316;
y = 1005;
},
{
smooth = 0;
x = 450;
y = 1296;
},
{
segmentType = curve;
smooth = 1;
x = 801;
y = 1296;
},
{
smooth = 0;
x = 980;
y = 1296;
},
{
smooth = 0;
x = 1053;
y = 1246;
},
{
segmentType = curve;
smooth = 1;
x = 1094;
y = 1225;
},
{
smooth = 0;
x = 1174;
y = 1184;
},
{
smooth = 0;
x = 1231;
y = 1300;
},
{
segmentType = curve;
smooth = 1;
x = 1156;
y = 1343;
},
{
smooth = 0;
x = 1106;
y = 1372;
},
{
smooth = 0;
x = 995;
y = 1438;
},
{
segmentType = curve;
smooth = 1;
x = 797;
y = 1438;
},
{
smooth = 0;
x = 359;
y = 1438;
},
{
smooth = 0;
x = 128;
y = 1093;
},
{
segmentType = curve;
smooth = 1;
x = 128;
y = 704;
},
{
smooth = 0;
x = 128;
y = 307;
},
{
smooth = 0;
x = 350;
y = "-22";
}
);
}
);
lib = {
};
name = G;
unicodes = (
);
width = 1448;
};
};
components = (
);
contours = (
);
lib = {
};
name = G;
unicodes = (
);
width = 1538;
};
},
{
glyphname = H;
lastChange = "2017-11-14 17:22:24 +0000";
layers = (
{
anchors = (
{
name = bottom;
position = "{386, 0}";
},
{
name = center;
position = "{386, 358}";
},
{
name = top;
position = "{386, 705}";
},
{
name = topleft;
position = "{21, 705}";
}
);
background = {
anchors = (
{
name = bottom;
position = "{386, 0}";
},
{
name = center;
position = "{386, 358}";
},
{
name = top;
position = "{386, 705}";
},
{
name = topleft;
position = "{21, 705}";
}
);
paths = (
{
closed = 1;
nodes = (
"672 -6 OFFCURVE",
"703 26 OFFCURVE",
"703 74 CURVE SMOOTH",
"703 631 LINE SMOOTH",
"703 679 OFFCURVE",
"672 710 OFFCURVE",
"624 710 CURVE SMOOTH",
"576 710 OFFCURVE",
"545 679 OFFCURVE",
"545 631 CURVE SMOOTH",
"545 74 LINE SMOOTH",
"545 25 OFFCURVE",
"576 -6 OFFCURVE",
"624 -6 CURVE SMOOTH"
);
},
{
closed = 1;
nodes = (
"196 -6 OFFCURVE",
"227 26 OFFCURVE",
"227 74 CURVE SMOOTH",
"227 631 LINE SMOOTH",
"227 679 OFFCURVE",
"196 710 OFFCURVE",
"148 710 CURVE SMOOTH",
"100 710 OFFCURVE",
"69 679 OFFCURVE",
"69 631 CURVE SMOOTH",
"69 74 LINE SMOOTH",
"69 25 OFFCURVE",
"100 -6 OFFCURVE",
"148 -6 CURVE SMOOTH"
);
},
{
closed = 1;
nodes = (
"640 294 LINE",
"640 422 LINE",
"120 422 LINE",
"120 294 LINE"
);
}
);
};
layerId = "E1B555A7-F4E1-459C-9C1A-AE952106EEF9";
paths = (
{
closed = 1;
nodes = (
"703 0 LINE",
"703 705 LINE",
"545 705 LINE",
"545 0 LINE"
);
},
{
closed = 1;
nodes = (
"227 0 LINE",
"227 705 LINE",
"69 705 LINE",
"69 0 LINE"
);
},
{
closed = 1;
nodes = (
"640 294 LINE",
"640 422 LINE",
"120 422 LINE",
"120 294 LINE"
);
}
);
width = 772;
}
);
leftKerningGroup = H;
rightKerningGroup = H;
unicode = 0048;
userData = {
anchors = (
);
b = {
};
com.typemytype.robofont.layerData = {
b = {
anchors = (
);
components = (
);
contours = (
);
lib = {
};
name = H;
unicodes = (
);
width = 1464;
};
};
components = (
);
contours = (
);
lib = {
};
name = H;
unicodes = (
);
width = 1524;
};
},
{
glyphname = Hbar;
lastChange = "2017-11-14 17:22:24 +0000";
layers = (
{
background = {
paths = (
{
closed = 1;
nodes = (
"697 -6 OFFCURVE",
"734 20 OFFCURVE",
"734 74 CURVE SMOOTH",
"734 631 LINE SMOOTH",
"734 684 OFFCURVE",
"697 710 OFFCURVE",
"655 710 CURVE SMOOTH",
"612 710 OFFCURVE",
"576 684 OFFCURVE",
"576 631 CURVE SMOOTH",
"576 74 LINE SMOOTH",
"576 20 OFFCURVE",
"612 -6 OFFCURVE",
"655 -6 CURVE SMOOTH"
);
},
{
closed = 1;
nodes = (
"221 -6 OFFCURVE",
"258 20 OFFCURVE",
"258 74 CURVE SMOOTH",
"258 631 LINE SMOOTH",
"258 684 OFFCURVE",
"221 710 OFFCURVE",
"179 710 CURVE SMOOTH",
"136 710 OFFCURVE",
"100 684 OFFCURVE",
"100 631 CURVE SMOOTH",
"100 74 LINE SMOOTH",
"100 20 OFFCURVE",
"136 -6 OFFCURVE",
"179 -6 CURVE SMOOTH"
);
},
{
closed = 1;
nodes = (
"670 294 LINE",
"670 422 LINE",
"150 422 LINE",
"150 294 LINE"
);
},
{
closed = 1;
nodes = (
"762 489 LINE SMOOTH",
"810 489 OFFCURVE",
"834 513 OFFCURVE",
"834 548 CURVE SMOOTH",
"834 583 OFFCURVE",
"810 607 OFFCURVE",
"762 607 CURVE SMOOTH",
"72 607 LINE SMOOTH",
"24 607 OFFCURVE",
"0 583 OFFCURVE",
"0 548 CURVE SMOOTH",
"0 513 OFFCURVE",
"24 489 OFFCURVE",
"72 489 CURVE SMOOTH"
);
}
);
};
layerId = "E1B555A7-F4E1-459C-9C1A-AE952106EEF9";
paths = (
{
closed = 1;
nodes = (
"819 507 LINE",
"819 625 LINE",
"15 625 LINE",
"15 507 LINE"
);
},
{
closed = 1;
nodes = (
"734 0 LINE",
"734 705 LINE",
"576 705 LINE",
"576 0 LINE"
);
},
{
closed = 1;
nodes = (
"258 0 LINE",
"258 705 LINE",
"100 705 LINE",
"100 0 LINE"
);
},
{
closed = 1;
nodes = (
"671 294 LINE",
"671 422 LINE",
"151 422 LINE",
"151 294 LINE"
);
}
);
width = 834;
}
);
leftKerningGroup = H;
rightKerningGroup = H;
unicode = 0126;
userData = {
com.typemytype.robofont.layerData = {
b = {
anchors = (
);
components = (
);
contours = (
);
lib = {
};
name = Hbar;
unicodes = (
);
width = 1464;
};
};
};
},
{
glyphname = I;
lastChange = "2017-11-14 17:22:24 +0000";
layers = (
{
anchors = (
{
name = bottom;
position = "{149, 0}";
},
{
name = ogonek;
position = "{200, 10}";
},
{
name = top;
position = "{149, 705}";
},
{
name = topleft;
position = "{21, 705}";
}
);
background = {
anchors = (
{
name = bottom;
position = "{149, 0}";
},
{
name = ogonek;
position = "{200, 10}";
},
{
name = top;
position = "{149, 705}";
},
{
name = topleft;
position = "{21, 705}";
}
);
paths = (
{
closed = 1;
nodes = (
"199 -6 OFFCURVE",
"230 25 OFFCURVE",
"230 74 CURVE SMOOTH",
"230 631 LINE SMOOTH",
"230 679 OFFCURVE",
"199 710 OFFCURVE",
"149 710 CURVE SMOOTH",
"100 710 OFFCURVE",
"69 679 OFFCURVE",
"69 631 CURVE SMOOTH",
"69 74 LINE SMOOTH",
"69 25 OFFCURVE",
"100 -6 OFFCURVE",
"149 -6 CURVE SMOOTH"
);
}
);
};
layerId = "E1B555A7-F4E1-459C-9C1A-AE952106EEF9";
paths = (
{
closed = 1;
nodes = (
"230 0 LINE",
"230 705 LINE",
"69 705 LINE",
"69 0 LINE"
);
}
);
width = 299;
}
);
leftKerningGroup = H;
rightKerningGroup = H;
unicode = 0049;
userData = {
anchors = (
);
b = {
};
com.typemytype.robofont.layerData = {
b = {
anchors = (
);
components = (
);
contours = (
);
lib = {
};
name = I;
unicodes = (
);
width = 592;
};
};
components = (
);
contours = (
);
lib = {
};
name = I;
unicodes = (
);
width = 637;
};
},
{
glyphname = Iogonek;
lastChange = "2017-11-14 17:22:24 +0000";
layers = (
{
background = {
paths = (
{
closed = 1;
nodes = (
"200 -197 OFFCURVE",
"228 -190 OFFCURVE",
"255 -174 CURVE SMOOTH",
"288 -155 OFFCURVE",
"273 -98 OFFCURVE",
"237 -109 CURVE SMOOTH",
"217 -115 OFFCURVE",
"207 -117 OFFCURVE",
"189 -117 CURVE SMOOTH",
"158 -117 OFFCURVE",
"137 -96 OFFCURVE",
"137 -64 CURVE SMOOTH",
"137 -35 OFFCURVE",
"156 -11 OFFCURVE",
"194 6 CURVE SMOOTH",
"216 16 OFFCURVE",
"230 42 OFFCURVE",
"230 74 CURVE SMOOTH",
"230 631 LINE SMOOTH",
"230 679 OFFCURVE",
"199 710 OFFCURVE",
"149 710 CURVE SMOOTH",
"100 710 OFFCURVE",
"69 679 OFFCURVE",
"69 631 CURVE SMOOTH",
"69 74 LINE SMOOTH",
"69 41 OFFCURVE",
"82 18 OFFCURVE",
"110 2 CURVE",
"132 37 LINE",
"72 13 OFFCURVE",
"38 -31 OFFCURVE",
"38 -84 CURVE SMOOTH",
"38 -151 OFFCURVE",
"90 -197 OFFCURVE",
"166 -197 CURVE SMOOTH"
);
}
);
};
layerId = "E1B555A7-F4E1-459C-9C1A-AE952106EEF9";
paths = (
{
closed = 1;
nodes = (
"197 -197 OFFCURVE",
"232 -190 OFFCURVE",
"262 -177 CURVE",
"245 -105 LINE",
"226 -113 OFFCURVE",
"208 -117 OFFCURVE",
"191 -117 CURVE SMOOTH",
"153 -117 OFFCURVE",
"132 -99 OFFCURVE",
"132 -64 CURVE SMOOTH",
"132 -27 OFFCURVE",
"164 0 OFFCURVE",
"215 0 CURVE SMOOTH",
"230 0 LINE",
"230 705 LINE",
"69 705 LINE",
"69 0 LINE",
"114 0 LINE",
"127 37 LINE",
"63 11 OFFCURVE",
"33 -35 OFFCURVE",
"33 -85 CURVE SMOOTH",
"33 -154 OFFCURVE",
"89 -197 OFFCURVE",
"161 -197 CURVE SMOOTH"
);
}
);
width = 299;
}
);
leftKerningGroup = H;
rightKerningGroup = H;
unicode = 012E;
},
{
glyphname = J;
lastChange = "2017-11-14 17:22:24 +0000";
layers = (
{
anchors = (
{
name = bottom;
position = "{231, 0}";
},
{
name = top;
position = "{231, 705}";
}
);
background = {
anchors = (
{
name = bottom;
position = "{231, 0}";
},
{
name = top;
position = "{231, 705}";
}
);
paths = (
{
closed = 1;
nodes = (
"112 -4 LINE SMOOTH",
"245 5 OFFCURVE",
"312 77 OFFCURVE",
"312 208 CURVE SMOOTH",
"312 631 LINE SMOOTH",
"312 679 OFFCURVE",
"280 710 OFFCURVE",
"231 710 CURVE SMOOTH",
"182 710 OFFCURVE",
"150 679 OFFCURVE",
"150 631 CURVE SMOOTH",
"150 206 LINE SMOOTH",
"150 154 OFFCURVE",
"126 126 OFFCURVE",
"80 124 CURVE SMOOTH",
"47 122 LINE SMOOTH",
"3 119 OFFCURVE",
"-16 100 OFFCURVE",
"-16 59 CURVE SMOOTH",
"-16 13 OFFCURVE",
"17 -9 OFFCURVE",
"80 -6 CURVE SMOOTH"
);
}
);
};
layerId = "E1B555A7-F4E1-459C-9C1A-AE952106EEF9";
paths = (
{
closed = 1;
nodes = (
"100 -5 LINE SMOOTH",
"241 3 OFFCURVE",
"312 74 OFFCURVE",
"312 207 CURVE SMOOTH",
"312 705 LINE",
"150 705 LINE",
"150 205 LINE SMOOTH",
"150 152 OFFCURVE",
"126 127 OFFCURVE",
"73 124 CURVE SMOOTH",
"-4 119 LINE",
"6 -10 LINE"
);
}
);
width = 381;
}
);
leftKerningGroup = J;
rightKerningGroup = J;
unicode = 004A;
userData = {
anchors = (
);
b = {
};
com.typemytype.robofont.layerData = {
b = {
anchors = (
);
components = (
);
contours = (
);
lib = {
};
name = J;
unicodes = (
);
width = 1003;
};
};
components = (
);
contours = (
);
lib = {
};
name = J;
unicodes = (
);
width = 1126;
};
},
{
glyphname = K;
lastChange = "2017-11-14 17:22:24 +0000";
layers = (
{
anchors = (
{
name = bottom;
position = "{343, 0}";
},
{
name = top;
position = "{343, 705}";
}
);
background = {
paths = (
{
closed = 1;
nodes = (
"727 0 LINE",
"353 405 LINE",
"345 321 LINE",
"713 705 LINE",
"522 705 LINE",
"196 360 LINE",
"532 0 LINE"
);
},
{
closed = 1;
nodes = (
"230 0 LINE",
"230 705 LINE",
"69 705 LINE",
"69 0 LINE"
);
}
);
};
layerId = "E1B555A7-F4E1-459C-9C1A-AE952106EEF9";
paths = (
{
closed = 1;
nodes = (
"725 0 LINE",
"354 405 LINE",
"342 321 LINE",
"712 705 LINE",
"522 705 LINE",
"196 360 LINE",
"532 0 LINE"
);
},
{
closed = 1;
nodes = (
"230 0 LINE",
"230 705 LINE",
"69 705 LINE",
"69 0 LINE"
);
}
);
width = 682;
}
);
leftKerningGroup = H;
rightKerningGroup = K;
unicode = 004B;
userData = {
anchors = (
);
b = {
};
com.typemytype.robofont.layerData = {
b = {
anchors = (
);
components = (
);
contours = (
);
lib = {
};
name = K;
unicodes = (
);
width = 1210;
};
};
components = (
);
contours = (
);
lib = {
};
name = K;
unicodes = (
);
width = 1329;
};
},
{
glyphname = L;
lastChange = "2017-11-14 17:22:24 +0000";
layers = (
{
anchors = (
{
name = bottom;
position = "{313, 0}";
},
{
name = center;
position = "{394, 353}";
},
{
name = top;
position = "{149, 705}";
},
{
name = topright;
position = "{320, 705}";
}
);
background = {
anchors = (
{
name = bottom;
position = "{313, 0}";
},
{
name = center;
position = "{394, 353}";
},
{
name = top;
position = "{149, 705}";
},
{
name = topright;
position = "{320, 705}";
}
);
paths = (
{
closed = 1;
nodes = (
"481 0 LINE SMOOTH",
"532 0 OFFCURVE",
"557 21 OFFCURVE",
"557 65 CURVE SMOOTH",
"557 109 OFFCURVE",
"532 131 OFFCURVE",
"481 131 CURVE SMOOTH",
"230 131 LINE",
"230 631 LINE SMOOTH",
"230 679 OFFCURVE",
"199 710 OFFCURVE",
"149 710 CURVE SMOOTH",
"100 710 OFFCURVE",
"69 679 OFFCURVE",
"69 631 CURVE SMOOTH",
"69 75 LINE SMOOTH",
"69 27 OFFCURVE",
"96 0 OFFCURVE",
"144 0 CURVE SMOOTH"
);
}
);
};
layerId = "E1B555A7-F4E1-459C-9C1A-AE952106EEF9";
paths = (
{
closed = 1;
nodes = (
"542 0 LINE",
"542 131 LINE",
"230 131 LINE",
"230 705 LINE",
"69 705 LINE",
"69 0 LINE"
);
}
);
width = 565;
}
);
leftKerningGroup = H;
rightKerningGroup = L;
unicode = 004C;
userData = {
anchors = (
);
b = {
};
com.typemytype.robofont.layerData = {
b = {
anchors = (
);
components = (
);
contours = (
{
points = (
{
segmentType = curve;
smooth = 1;
x = 266;
y = 0;
},
{
segmentType = line;
smooth = 1;
x = 1035;
y = 0;
},
{
smooth = 0;
x = 1084;
y = 0;
},
{
smooth = 0;
x = 1108;
y = 34;
},
{
segmentType = curve;
smooth = 1;
x = 1108;
y = 71;
},
{
smooth = 0;
x = 1108;
y = 107;
},
{
smooth = 0;
x = 1084;
y = 141;
},
{
segmentType = curve;
smooth = 1;
x = 1035;
y = 141;
},
{
segmentType = line;
smooth = 0;
x = 356;
y = 141;
},
{
segmentType = line;
smooth = 0;
x = 356;
y = 665;
},
{
segmentType = line;
smooth = 1;
x = 975;
y = 665;
},
{
smooth = 0;
x = 1024;
y = 665;
},
{
smooth = 0;
x = 1049;
y = 698;
},
{
segmentType = curve;
smooth = 1;
x = 1049;
y = 734;
},
{
smooth = 0;
x = 1049;
y = 770;
},
{
smooth = 0;
x = 1026;
y = 803;
},
{
segmentType = curve;
smooth = 1;
x = 975;
y = 803;
},
{
segmentType = line;
smooth = 0;
x = 356;
y = 803;
},
{
segmentType = line;
smooth = 0;
x = 356;
y = 1285;
},
{
segmentType = line;
smooth = 1;
x = 1007;
y = 1285;
},
{
smooth = 0;
x = 1056;
y = 1285;
},
{
smooth = 0;
x = 1080;
y = 1319;
},
{
segmentType = curve;
smooth = 1;
x = 1080;
y = 1356;
},
{
smooth = 0;
x = 1080;
y = 1392;
},
{
smooth = 0;
x = 1056;
y = 1426;
},
{
segmentType = curve;
smooth = 1;
x = 1007;
y = 1426;
},
{
segmentType = line;
smooth = 1;
x = 261;
y = 1426;
},
{
smooth = 0;
x = 213;
y = 1426;
},
{
smooth = 0;
x = 178;
y = 1383;
},
{
segmentType = curve;
smooth = 1;
x = 178;
y = 1340;
},
{
segmentType = line;
smooth = 1;
x = 178;
y = 86;
},
{
smooth = 0;
x = 178;
y = 41;
},
{
smooth = 0;
x = 222;
y = 0;
}
);
}
);
lib = {
};
name = L;
unicodes = (
);
width = 1095;
};
};
components = (
);
contours = (
);
lib = {
};
name = L;
unicodes = (
);
width = 1169;
};
},
{
glyphname = LJ;
lastChange = "2017-11-14 17:22:24 +0000";
layers = (
{
background = {
paths = (
{
closed = 1;
nodes = (
"451 0 LINE SMOOTH",
"502 0 OFFCURVE",
"527 21 OFFCURVE",
"527 65 CURVE SMOOTH",
"527 109 OFFCURVE",
"502 131 OFFCURVE",
"451 131 CURVE SMOOTH",
"230 131 LINE",
"230 631 LINE SMOOTH",
"230 679 OFFCURVE",
"199 710 OFFCURVE",
"149 710 CURVE SMOOTH",
"100 710 OFFCURVE",
"69 679 OFFCURVE",
"69 631 CURVE SMOOTH",
"69 75 LINE SMOOTH",
"69 27 OFFCURVE",
"96 0 OFFCURVE",
"144 0 CURVE SMOOTH"
);
},
{
closed = 1;
nodes = (
"680 -4 LINE SMOOTH",
"813 4 OFFCURVE",
"880 77 OFFCURVE",
"880 208 CURVE SMOOTH",
"880 631 LINE SMOOTH",
"880 679 OFFCURVE",
"848 710 OFFCURVE",
"799 710 CURVE SMOOTH",
"750 710 OFFCURVE",
"718 679 OFFCURVE",
"718 631 CURVE SMOOTH",
"718 206 LINE SMOOTH",
"718 154 OFFCURVE",
"694 127 OFFCURVE",
"648 124 CURVE SMOOTH",
"615 122 LINE SMOOTH",
"571 119 OFFCURVE",
"552 100 OFFCURVE",
"552 59 CURVE SMOOTH",
"552 13 OFFCURVE",
"585 -10 OFFCURVE",
"648 -6 CURVE SMOOTH"
);
}
);
};
layerId = "E1B555A7-F4E1-459C-9C1A-AE952106EEF9";
paths = (
{
closed = 1;
nodes = (
"512 0 LINE",
"512 131 LINE",
"230 131 LINE",
"230 705 LINE",
"69 705 LINE",
"69 0 LINE"
);
},
{
closed = 1;
nodes = (
"668 -5 LINE SMOOTH",
"809 3 OFFCURVE",
"880 74 OFFCURVE",
"880 207 CURVE SMOOTH",
"880 705 LINE",
"718 705 LINE",
"718 205 LINE SMOOTH",
"718 152 OFFCURVE",
"694 127 OFFCURVE",
"641 124 CURVE SMOOTH",
"564 119 LINE",
"574 -10 LINE"
);
}
);
width = 949;
}
);
leftKerningGroup = H;
rightKerningGroup = J;
unicode = 01C7;
},
{
glyphname = Lslash;
lastChange = "2017-11-14 17:22:24 +0000";
layers = (
{
background = {
paths = (
{
closed = 1;
nodes = (
"512 0 LINE SMOOTH",
"563 0 OFFCURVE",
"588 21 OFFCURVE",
"588 65 CURVE SMOOTH",
"588 109 OFFCURVE",
"563 131 OFFCURVE",
"512 131 CURVE SMOOTH",
"261 131 LINE",
"261 631 LINE SMOOTH",
"261 679 OFFCURVE",
"230 710 OFFCURVE",
"180 710 CURVE SMOOTH",
"131 710 OFFCURVE",
"100 679 OFFCURVE",
"100 631 CURVE SMOOTH",
"100 75 LINE SMOOTH",
"100 27 OFFCURVE",
"127 0 OFFCURVE",
"175 0 CURVE SMOOTH"
);
},
{
closed = 1;
nodes = (
"418 425 LINE SMOOTH",
"495 470 OFFCURVE",
"434 570 OFFCURVE",
"359 527 CURVE SMOOTH",
"36 341 LINE SMOOTH",
"-40 297 OFFCURVE",
"18 193 OFFCURVE",
"95 238 CURVE SMOOTH"
);
}
);
};
guideLines = (
{
angle = 90;
position = "{361, 233}";
},
{
angle = 90;
position = "{0, 233}";
},
{
position = "{333, 356}";
},
{
angle = 90;
position = "{461, 233}";
}
);
layerId = "E1B555A7-F4E1-459C-9C1A-AE952106EEF9";
paths = (
{
closed = 1;
nodes = (
"470 454 LINE",
"412 558 LINE",
"-16 311 LINE",
"42 207 LINE"
);
},
{
closed = 1;
nodes = (
"573 0 LINE",
"573 131 LINE",
"261 131 LINE",
"261 705 LINE",
"100 705 LINE",
"100 0 LINE"
);
}
);
width = 596;
}
);
leftKerningGroup = L;
rightKerningGroup = L;
unicode = 0141;
},
{
glyphname = M;
lastChange = "2017-11-14 17:22:24 +0000";
layers = (
{
anchors = (
{
name = bottom;
position = "{421, 0}";
},
{
name = top;
position = "{421, 705}";
}
);
background = {
anchors = (
{
name = bottom;
position = "{421, 0}";
},
{
name = top;
position = "{421, 705}";
}
);
paths = (
{
closed = 1;
nodes = (
"183 -6 OFFCURVE",
"212 23 OFFCURVE",
"212 67 CURVE SMOOTH",
"212 465 LINE",
"184 456 LINE",
"349 153 LINE SMOOTH",
"369 116 OFFCURVE",
"390 101 OFFCURVE",
"421 101 CURVE SMOOTH",
"452 101 OFFCURVE",
"473 116 OFFCURVE",
"493 153 CURVE SMOOTH",
"655 456 LINE",
"630 465 LINE",
"630 67 LINE SMOOTH",
"630 22 OFFCURVE",
"659 -6 OFFCURVE",
"700 -6 CURVE SMOOTH",
"742 -6 OFFCURVE",
"771 22 OFFCURVE",
"771 67 CURVE SMOOTH",
"771 631 LINE SMOOTH",
"771 678 OFFCURVE",
"740 710 OFFCURVE",
"695 710 CURVE SMOOTH",
"664 710 OFFCURVE",
"639 692 OFFCURVE",
"621 657 CURVE SMOOTH",
"405 246 LINE",
"440 246 LINE",
"223 657 LINE SMOOTH",
"205 692 OFFCURVE",
"179 710 OFFCURVE",
"147 710 CURVE SMOOTH",
"102 710 OFFCURVE",
"71 678 OFFCURVE",
"71 631 CURVE SMOOTH",
"71 67 LINE SMOOTH",
"71 22 OFFCURVE",
"100 -6 OFFCURVE",
"141 -6 CURVE SMOOTH"
);
}
);
};
layerId = "E1B555A7-F4E1-459C-9C1A-AE952106EEF9";
paths = (
{
closed = 1;
nodes = (
"212 0 LINE",
"212 465 LINE",
"184 456 LINE",
"369 116 LINE",
"473 116 LINE",
"655 456 LINE",
"630 465 LINE",
"630 0 LINE",
"771 0 LINE",
"771 705 LINE",
"646 705 LINE",
"405 246 LINE",
"440 246 LINE",
"198 705 LINE",
"71 705 LINE",
"71 0 LINE"
);
}
);
width = 842;
}
);
leftKerningGroup = H;
rightKerningGroup = H;
unicode = 004D;
userData = {
anchors = (
);
b = {
};
com.typemytype.robofont.layerData = {
b = {
anchors = (
);
components = (
);
contours = (
);
lib = {
};
name = M;
unicodes = (
);
width = 1899;
};
};
components = (
);
contours = (
);
lib = {
};
name = M;
unicodes = (
);
width = 1984;
};
},
{
glyphname = N;
lastChange = "2017-11-14 17:22:24 +0000";
layers = (
{
anchors = (
{
name = bottom;
position = "{377, 0}";
},
{
name = top;
position = "{376, 705}";
}
);
background = {
anchors = (
{
name = bottom;
position = "{377, 0}";
},
{
name = top;
position = "{376, 705}";
}
);
paths = (
{
closed = 1;
nodes = (
"190 -6 OFFCURVE",
"219 26 OFFCURVE",
"219 74 CURVE SMOOTH",
"219 495 LINE",
"192 474 LINE",
"548 21 LINE SMOOTH",
"563 2 OFFCURVE",
"583 -6 OFFCURVE",
"608 -6 CURVE SMOOTH",
"653 -6 OFFCURVE",
"684 26 OFFCURVE",
"684 74 CURVE SMOOTH",
"684 631 LINE SMOOTH",
"684 678 OFFCURVE",
"653 710 OFFCURVE",
"608 710 CURVE SMOOTH",
"563 710 OFFCURVE",
"533 678 OFFCURVE",
"533 631 CURVE SMOOTH",
"533 210 LINE",
"561 230 LINE",
"204 683 LINE SMOOTH",
"189 702 OFFCURVE",
"170 710 OFFCURVE",
"145 710 CURVE SMOOTH",
"100 710 OFFCURVE",
"69 678 OFFCURVE",
"69 631 CURVE SMOOTH",
"69 74 LINE SMOOTH",
"69 26 OFFCURVE",
"99 -6 OFFCURVE",
"144 -6 CURVE SMOOTH"
);
}
);
};
layerId = "E1B555A7-F4E1-459C-9C1A-AE952106EEF9";
paths = (
{
closed = 1;
nodes = (
"219 0 LINE",
"219 495 LINE",
"192 474 LINE",
"564 0 LINE",
"684 0 LINE",
"684 705 LINE",
"533 705 LINE",
"533 210 LINE",
"561 230 LINE",
"187 705 LINE",
"69 705 LINE",
"69 0 LINE"
);
}
);
width = 753;
}
);
leftKerningGroup = H;
rightKerningGroup = H;
unicode = 004E;
userData = {
anchors = (
);
b = {
};
com.typemytype.robofont.layerData = {
b = {
anchors = (
);
components = (
);
contours = (
);
lib = {
};
name = N;
unicodes = (
);
width = 1499;
};
};
components = (
);
contours = (
);
lib = {
};
name = N;
unicodes = (
);
width = 1557;
};
},
{
glyphname = Eng;
lastChange = "2017-11-14 17:22:24 +0000";
layers = (
{
background = {
paths = (
{
closed = 1;
nodes = (
"484 -182 LINE SMOOTH",
"617 -173 OFFCURVE",
"684 -101 OFFCURVE",
"684 30 CURVE SMOOTH",
"684 631 LINE SMOOTH",
"684 678 OFFCURVE",
"653 710 OFFCURVE",
"608 710 CURVE SMOOTH",
"563 710 OFFCURVE",
"533 678 OFFCURVE",
"533 631 CURVE SMOOTH",
"533 210 LINE",
"561 230 LINE",
"204 683 LINE SMOOTH",
"190 701 OFFCURVE",
"170 710 OFFCURVE",
"145 710 CURVE SMOOTH",
"100 710 OFFCURVE",
"69 678 OFFCURVE",
"69 631 CURVE SMOOTH",
"69 74 LINE SMOOTH",
"69 26 OFFCURVE",
"99 -6 OFFCURVE",
"144 -6 CURVE SMOOTH",
"189 -6 OFFCURVE",
"219 26 OFFCURVE",
"219 74 CURVE SMOOTH",
"219 495 LINE",
"192 474 LINE",
"559 7 LINE",
"532 89 LINE",
"532 20 LINE SMOOTH",
"532 -28 OFFCURVE",
"502 -59 OFFCURVE",
"452 -62 CURVE SMOOTH",
"419 -64 LINE SMOOTH",
"376 -67 OFFCURVE",
"356 -86 OFFCURVE",
"356 -123 CURVE SMOOTH",
"356 -166 OFFCURVE",
"391 -188 OFFCURVE",
"452 -184 CURVE SMOOTH"
);
}
);
};
layerId = "E1B555A7-F4E1-459C-9C1A-AE952106EEF9";
paths = (
{
closed = 1;
nodes = (
"533 210 LINE",
"561 230 LINE",
"187 705 LINE",
"69 705 LINE",
"69 0 LINE",
"219 0 LINE",
"219 495 LINE",
"192 474 LINE",
"559 7 LINE",
"532 91 LINE",
"532 24 LINE SMOOTH",
"532 -27 OFFCURVE",
"500 -59 OFFCURVE",
"445 -62 CURVE SMOOTH",
"368 -67 LINE",
"378 -188 LINE",
"472 -183 LINE SMOOTH",
"613 -175 OFFCURVE",
"684 -104 OFFCURVE",
"684 30 CURVE SMOOTH",
"684 705 LINE",
"533 705 LINE"
);
}
);
width = 753;
}
);
leftKerningGroup = H;
rightKerningGroup = H;
unicode = 014A;
userData = {
com.typemytype.robofont.layerData = {
b = {
anchors = (
);
components = (
);
contours = (
);
lib = {
};
name = Eng;
unicodes = (
);
width = 1495;
};
};
};
},
{
glyphname = O;
lastChange = "2017-11-14 17:22:24 +0000";
layers = (
{
anchors = (
{
name = bottom;
position = "{395, 0}";
},
{
name = center;
position = "{395, 353}";
},
{
name = ogonek;
position = "{513, 10}";
},
{
name = top;
position = "{394, 705}";
},
{
name = topleft;
position = "{22, 705}";
},
{
name = topright;
position = "{425, 705}";
}
);
background = {
anchors = (
{
name = bottom;
position = "{395, 0}";
},
{
name = center;
position = "{395, 353}";
},
{
name = ogonek;
position = "{513, 10}";
},
{
name = top;
position = "{394, 705}";
},
{
name = topleft;
position = "{22, 705}";
},
{
name = topright;
position = "{425, 705}";
}
);
paths = (
{
closed = 1;
nodes = (
"604 -7 OFFCURVE",
"740 132 OFFCURVE",
"740 353 CURVE SMOOTH",
"740 573 OFFCURVE",
"604 712 OFFCURVE",
"395 712 CURVE SMOOTH",
"185 712 OFFCURVE",
"49 573 OFFCURVE",
"49 353 CURVE SMOOTH",
"49 132 OFFCURVE",
"185 -7 OFFCURVE",
"395 -7 CURVE SMOOTH"
);
},
{
closed = 1;
nodes = (
"274 118 OFFCURVE",
"210 197 OFFCURVE",
"210 353 CURVE SMOOTH",
"210 509 OFFCURVE",
"274 587 OFFCURVE",
"395 587 CURVE SMOOTH",
"515 587 OFFCURVE",
"580 509 OFFCURVE",
"580 353 CURVE SMOOTH",
"580 197 OFFCURVE",
"516 118 OFFCURVE",
"395 118 CURVE SMOOTH"
);
}
);
};
layerId = "E1B555A7-F4E1-459C-9C1A-AE952106EEF9";
paths = (
{
closed = 1;
nodes = (
"608 -9 OFFCURVE",
"740 132 OFFCURVE",
"740 353 CURVE SMOOTH",
"740 574 OFFCURVE",
"608 714 OFFCURVE",
"395 714 CURVE SMOOTH",
"182 714 OFFCURVE",
"49 574 OFFCURVE",
"49 353 CURVE SMOOTH",
"49 132 OFFCURVE",
"182 -9 OFFCURVE",
"395 -9 CURVE SMOOTH"
);
},
{
closed = 1;
nodes = (
"281 116 OFFCURVE",
"210 196 OFFCURVE",
"210 353 CURVE SMOOTH",
"210 510 OFFCURVE",
"281 589 OFFCURVE",
"395 589 CURVE SMOOTH",
"509 589 OFFCURVE",
"580 509 OFFCURVE",
"580 353 CURVE SMOOTH",
"580 197 OFFCURVE",
"509 116 OFFCURVE",
"395 116 CURVE SMOOTH"
);
}
);
width = 789;
}
);
leftKerningGroup = O;
rightKerningGroup = O;
unicode = 004F;
userData = {
anchors = (
);
b = {
};
com.typemytype.robofont.guides = (
);
com.typemytype.robofont.layerData = {
b = {
anchors = (
);
components = (
);
contours = (
);
lib = {
};
name = O;
unicodes = (
);
width = 1597;
};
};
components = (
);
contours = (
);
lib = {
};
name = O;
unicodes = (
);
width = 1604;
};
},
{
glyphname = Ohorn;
lastChange = "2017-11-14 17:22:24 +0000";
layers = (
{
anchors = (
{
name = bottom;
position = "{395, 0}";
},
{
name = top;
position = "{394, 705}";
}
);
background = {
anchors = (
{
name = bottom;
position = "{395, 0}";
},
{
name = top;
position = "{394, 705}";
}
);
paths = (
{
closed = 1;
nodes = (
"608 -9 OFFCURVE",
"740 132 OFFCURVE",
"740 353 CURVE SMOOTH",
"740 487 OFFCURVE",
"694 590 OFFCURVE",
"604 651 CURVE",
"588 630 LINE",
"680 630 OFFCURVE",
"740 702 OFFCURVE",
"740 781 CURVE SMOOTH",
"740 833 OFFCURVE",
"718 859 OFFCURVE",
"676 859 CURVE SMOOTH",
"632 859 OFFCURVE",
"606 834 OFFCURVE",
"601 777 CURVE SMOOTH",
"597 723 OFFCURVE",
"576 705 OFFCURVE",
"520 705 CURVE SMOOTH",
"476 705 OFFCURVE",
"442 714 OFFCURVE",
"397 714 CURVE SMOOTH",
"182 714 OFFCURVE",
"49 574 OFFCURVE",
"49 353 CURVE SMOOTH",
"49 132 OFFCURVE",
"182 -9 OFFCURVE",
"395 -9 CURVE SMOOTH"
);
},
{
closed = 1;
nodes = (
"281 116 OFFCURVE",
"210 196 OFFCURVE",
"210 353 CURVE SMOOTH",
"210 510 OFFCURVE",
"281 589 OFFCURVE",
"395 589 CURVE SMOOTH",
"509 589 OFFCURVE",
"580 509 OFFCURVE",
"580 353 CURVE SMOOTH",
"580 197 OFFCURVE",
"509 116 OFFCURVE",
"395 116 CURVE SMOOTH"
);
}
);
};
guideLines = (
{
angle = 90;
position = "{740, 640}";
}
);
layerId = "E1B555A7-F4E1-459C-9C1A-AE952106EEF9";
paths = (
{
closed = 1;
nodes = (
"608 -9 OFFCURVE",
"740 132 OFFCURVE",
"740 353 CURVE SMOOTH",
"740 487 OFFCURVE",
"694 590 OFFCURVE",
"604 651 CURVE",
"588 630 LINE",
"677 630 OFFCURVE",
"740 695 OFFCURVE",
"740 787 CURVE SMOOTH",
"740 826 LINE",
"606 826 LINE",
"606 806 LINE SMOOTH",
"606 732 OFFCURVE",
"583 705 OFFCURVE",
"520 705 CURVE SMOOTH",
"476 705 OFFCURVE",
"445 714 OFFCURVE",
"397 714 CURVE SMOOTH",
"182 714 OFFCURVE",
"49 574 OFFCURVE",
"49 353 CURVE SMOOTH",
"49 132 OFFCURVE",
"182 -9 OFFCURVE",
"395 -9 CURVE SMOOTH"
);
},
{
closed = 1;
nodes = (
"281 116 OFFCURVE",
"210 196 OFFCURVE",
"210 353 CURVE SMOOTH",
"210 510 OFFCURVE",
"281 589 OFFCURVE",
"395 589 CURVE SMOOTH",
"509 589 OFFCURVE",
"580 509 OFFCURVE",
"580 353 CURVE SMOOTH",
"580 197 OFFCURVE",
"509 116 OFFCURVE",
"395 116 CURVE SMOOTH"
);
}
);
width = 789;
}
);
leftKerningGroup = O;
rightKerningGroup = O;
unicode = 01A0;
},
{
glyphname = Oogonek;
lastChange = "2017-11-14 17:22:24 +0000";
layers = (
{
anchors = (
{
name = top;
position = "{394, 705}";
}
);
background = {
anchors = (
{
name = top;
position = "{394, 705}";
}
);
paths = (
{
closed = 1;
nodes = (
"507 -197 OFFCURVE",
"535 -190 OFFCURVE",
"562 -174 CURVE SMOOTH",
"595 -155 OFFCURVE",
"580 -98 OFFCURVE",
"544 -109 CURVE SMOOTH",
"519 -115 OFFCURVE",
"510 -117 OFFCURVE",
"496 -117 CURVE SMOOTH",
"465 -117 OFFCURVE",
"444 -96 OFFCURVE",
"444 -64 CURVE SMOOTH",
"444 -31 OFFCURVE",
"465 -7 OFFCURVE",
"507 5 CURVE SMOOTH",
"655 49 OFFCURVE",
"740 174 OFFCURVE",
"740 353 CURVE SMOOTH",
"740 574 OFFCURVE",
"608 714 OFFCURVE",
"395 714 CURVE SMOOTH",
"182 714 OFFCURVE",
"49 574 OFFCURVE",
"49 353 CURVE SMOOTH",
"49 125 OFFCURVE",
"190 -16 OFFCURVE",
"411 -9 CURVE",
"398 12 LINE",
"364 -11 OFFCURVE",
"345 -48 OFFCURVE",
"345 -87 CURVE SMOOTH",
"345 -151 OFFCURVE",
"398 -197 OFFCURVE",
"473 -197 CURVE SMOOTH"
);
},
{
closed = 1;
nodes = (
"281 116 OFFCURVE",
"210 196 OFFCURVE",
"210 353 CURVE SMOOTH",
"210 510 OFFCURVE",
"281 589 OFFCURVE",
"395 589 CURVE SMOOTH",
"509 589 OFFCURVE",
"580 509 OFFCURVE",
"580 353 CURVE SMOOTH",
"580 197 OFFCURVE",
"509 116 OFFCURVE",
"395 116 CURVE SMOOTH"
);
}
);
};
layerId = "E1B555A7-F4E1-459C-9C1A-AE952106EEF9";
paths = (
{
closed = 1;
nodes = (
"655 49 OFFCURVE",
"740 175 OFFCURVE",
"740 353 CURVE SMOOTH",
"740 574 OFFCURVE",
"608 714 OFFCURVE",
"395 714 CURVE SMOOTH",
"182 714 OFFCURVE",
"49 574 OFFCURVE",
"49 353 CURVE SMOOTH",
"49 125 OFFCURVE",
"190 -16 OFFCURVE",
"411 -9 CURVE",
"398 12 LINE",
"364 -11 OFFCURVE",
"345 -48 OFFCURVE",
"345 -87 CURVE SMOOTH",
"345 -151 OFFCURVE",
"398 -197 OFFCURVE",
"473 -197 CURVE SMOOTH",
"509 -197 OFFCURVE",
"544 -190 OFFCURVE",
"574 -177 CURVE",
"557 -105 LINE",
"538 -113 OFFCURVE",
"520 -117 OFFCURVE",
"503 -117 CURVE SMOOTH",
"465 -117 OFFCURVE",
"444 -99 OFFCURVE",
"444 -64 CURVE SMOOTH",
"444 -31 OFFCURVE",
"465 -8 OFFCURVE",
"507 5 CURVE SMOOTH"
);
},
{
closed = 1;
nodes = (
"210 510 OFFCURVE",
"281 589 OFFCURVE",
"395 589 CURVE SMOOTH",
"509 589 OFFCURVE",
"580 509 OFFCURVE",
"580 353 CURVE SMOOTH",
"580 197 OFFCURVE",
"509 116 OFFCURVE",
"395 116 CURVE SMOOTH",
"281 116 OFFCURVE",
"210 196 OFFCURVE",
"210 353 CURVE SMOOTH"
);
}
);
width = 789;
}
);
leftKerningGroup = O;
rightKerningGroup = O;
unicode = 01EA;
},
{
glyphname = Oslash;
lastChange = "2017-11-14 17:22:24 +0000";
layers = (
{
anchors = (
{
name = bottom;
position = "{395, 0}";
},
{
name = top;
position = "{394, 705}";
}
);
background = {
paths = (
{
closed = 1;
nodes = (
"608 -9 OFFCURVE",
"740 132 OFFCURVE",
"740 353 CURVE SMOOTH",
"740 574 OFFCURVE",
"608 714 OFFCURVE",
"395 714 CURVE SMOOTH",
"182 714 OFFCURVE",
"49 574 OFFCURVE",
"49 353 CURVE SMOOTH",
"49 132 OFFCURVE",
"182 -9 OFFCURVE",
"395 -9 CURVE SMOOTH"
);
},
{
closed = 1;
nodes = (
"643 662 LINE SMOOTH",
"692 746 OFFCURVE",
"589 805 OFFCURVE",
"540 721 CURVE SMOOTH",
"146 43 LINE SMOOTH",
"97 -41 OFFCURVE",
"200 -100 OFFCURVE",
"249 -16 CURVE SMOOTH"
);
},
{
closed = 1;
nodes = (
"281 116 OFFCURVE",
"210 196 OFFCURVE",
"210 353 CURVE SMOOTH",
"210 510 OFFCURVE",
"281 589 OFFCURVE",
"395 589 CURVE SMOOTH",
"509 589 OFFCURVE",
"580 509 OFFCURVE",
"580 353 CURVE SMOOTH",
"580 197 OFFCURVE",
"509 116 OFFCURVE",
"395 116 CURVE SMOOTH"
);
}
);
};
layerId = "E1B555A7-F4E1-459C-9C1A-AE952106EEF9";
paths = (
{
closed = 1;
nodes = (
"608 -9 OFFCURVE",
"740 132 OFFCURVE",
"740 353 CURVE SMOOTH",
"740 574 OFFCURVE",
"608 714 OFFCURVE",
"395 714 CURVE SMOOTH",
"182 714 OFFCURVE",
"49 574 OFFCURVE",
"49 353 CURVE SMOOTH",
"49 132 OFFCURVE",
"182 -9 OFFCURVE",
"395 -9 CURVE SMOOTH"
);
},
{
closed = 1;
nodes = (
"673 713 LINE",
"571 774 LINE",
"116 -8 LINE",
"218 -69 LINE"
);
},
{
closed = 1;
nodes = (
"281 116 OFFCURVE",
"210 196 OFFCURVE",
"210 353 CURVE SMOOTH",
"210 510 OFFCURVE",
"281 589 OFFCURVE",
"395 589 CURVE SMOOTH",
"509 589 OFFCURVE",
"580 509 OFFCURVE",
"580 353 CURVE SMOOTH",
"580 197 OFFCURVE",
"509 116 OFFCURVE",
"395 116 CURVE SMOOTH"
);
}
);
width = 789;
}
);
leftKerningGroup = O;
rightKerningGroup = O;
unicode = 00D8;
userData = {
com.typemytype.robofont.layerData = {
b = {
anchors = (
);
components = (
);
contours = (
);
lib = {
};
name = Oslash;
unicodes = (
);
width = 1597;
};
};
};
},
{
glyphname = OE;
lastChange = "2017-11-14 17:22:24 +0000";
layers = (
{
anchors = (
{
name = bottom;
position = "{529, 0}";
},
{
name = top;
position = "{529, 705}";
}
);
background = {
anchors = (
{
name = bottom;
position = "{529, 0}";
},
{
name = top;
position = "{529, 705}";
}
);
paths = (
{
closed = 1;
nodes = (
"948 0 LINE SMOOTH",
"998 0 OFFCURVE",
"1023 22 OFFCURVE",
"1023 62 CURVE SMOOTH",
"1023 103 OFFCURVE",
"997 125 OFFCURVE",
"947 125 CURVE SMOOTH",
"675 125 LINE",
"675 296 LINE",
"927 296 LINE SMOOTH",
"977 296 OFFCURVE",
"1003 318 OFFCURVE",
"1003 358 CURVE SMOOTH",
"1003 399 OFFCURVE",
"977 421 OFFCURVE",
"927 421 CURVE SMOOTH",
"675 421 LINE",
"675 580 LINE",
"947 580 LINE SMOOTH",
"997 580 OFFCURVE",
"1023 602 OFFCURVE",
"1023 643 CURVE SMOOTH",
"1023 683 OFFCURVE",
"998 705 OFFCURVE",
"949 705 CURVE SMOOTH",
"420 705 LINE SMOOTH",
"187 705 OFFCURVE",
"49 574 OFFCURVE",
"49 353 CURVE SMOOTH",
"49 131 OFFCURVE",
"186 0 OFFCURVE",
"420 0 CURVE SMOOTH"
);
},
{
closed = 1;
nodes = (
"286 125 OFFCURVE",
"210 200 OFFCURVE",
"210 353 CURVE SMOOTH",
"210 505 OFFCURVE",
"286 580 OFFCURVE",
"431 580 CURVE SMOOTH",
"518 580 LINE",
"518 125 LINE",
"431 125 LINE SMOOTH"
);
}
);
};
layerId = "E1B555A7-F4E1-459C-9C1A-AE952106EEF9";
paths = (
{
closed = 1;
nodes = (
"1007 0 LINE",
"1007 125 LINE",
"675 125 LINE",
"675 296 LINE",
"987 296 LINE",
"987 421 LINE",
"675 421 LINE",
"675 580 LINE",
"1008 580 LINE",
"1008 705 LINE",
"420 705 LINE SMOOTH",
"187 705 OFFCURVE",
"49 574 OFFCURVE",
"49 353 CURVE SMOOTH",
"49 131 OFFCURVE",
"186 0 OFFCURVE",
"420 0 CURVE SMOOTH"
);
},
{
closed = 1;
nodes = (
"286 125 OFFCURVE",
"210 200 OFFCURVE",
"210 353 CURVE SMOOTH",
"210 505 OFFCURVE",
"286 580 OFFCURVE",
"431 580 CURVE SMOOTH",
"518 580 LINE",
"518 125 LINE",
"431 125 LINE SMOOTH"
);
}
);
width = 1044;
}
);
leftKerningGroup = O;
rightKerningGroup = E;
unicode = 0152;
},
{
glyphname = P;
lastChange = "2017-11-14 17:22:24 +0000";
layers = (
{
anchors = (
{
name = bottom;
position = "{338, 0}";
},
{
name = top;
position = "{337, 705}";
}
);
background = {
anchors = (
{
name = bottom;
position = "{338, 0}";
},
{
name = top;
position = "{337, 705}";
}
);
paths = (
{
closed = 1;
nodes = (
"199 -6 OFFCURVE",
"230 25 OFFCURVE",
"230 74 CURVE SMOOTH",
"230 263 LINE",
"396 263 LINE SMOOTH",
"549 263 OFFCURVE",
"640 346 OFFCURVE",
"640 484 CURVE SMOOTH",
"640 623 OFFCURVE",
"550 705 OFFCURVE",
"396 705 CURVE SMOOTH",
"144 705 LINE SMOOTH",
"96 705 OFFCURVE",
"69 678 OFFCURVE",
"69 630 CURVE SMOOTH",
"69 74 LINE SMOOTH",
"69 25 OFFCURVE",
"100 -6 OFFCURVE",
"149 -6 CURVE SMOOTH"
);
},
{
closed = 1;
nodes = (
"228 582 LINE",
"375 582 LINE SMOOTH",
"451 582 OFFCURVE",
"489 550 OFFCURVE",
"489 483 CURVE SMOOTH",
"489 417 OFFCURVE",
"451 385 OFFCURVE",
"375 385 CURVE SMOOTH",
"228 385 LINE"
);
}
);
};
layerId = "E1B555A7-F4E1-459C-9C1A-AE952106EEF9";
paths = (
{
closed = 1;
nodes = (
"230 0 LINE",
"230 263 LINE",
"396 263 LINE SMOOTH",
"549 263 OFFCURVE",
"640 346 OFFCURVE",
"640 484 CURVE SMOOTH",
"640 623 OFFCURVE",
"550 705 OFFCURVE",
"396 705 CURVE SMOOTH",
"69 705 LINE",
"69 0 LINE"
);
},
{
closed = 1;
nodes = (
"230 582 LINE",
"375 582 LINE SMOOTH",
"452 582 OFFCURVE",
"489 550 OFFCURVE",
"489 483 CURVE SMOOTH",
"489 417 OFFCURVE",
"451 385 OFFCURVE",
"375 385 CURVE SMOOTH",
"230 385 LINE"
);
}
);
width = 670;
}
);
leftKerningGroup = H;
rightKerningGroup = P;
unicode = 0050;
userData = {
anchors = (
);
b = {
};
com.typemytype.robofont.layerData = {
b = {
anchors = (
);
components = (
);
contours = (
{
points = (
{
segmentType = curve;
smooth = 1;
x = 266;
y = 0;
},
{
segmentType = line;
smooth = 1;
x = 1035;
y = 0;
},
{
smooth = 0;
x = 1084;
y = 0;
},
{
smooth = 0;
x = 1108;
y = 34;
},
{
segmentType = curve;
smooth = 1;
x = 1108;
y = 71;
},
{
smooth = 0;
x = 1108;
y = 107;
},
{
smooth = 0;
x = 1084;
y = 141;
},
{
segmentType = curve;
smooth = 1;
x = 1035;
y = 141;
},
{
segmentType = line;
smooth = 0;
x = 356;
y = 141;
},
{
segmentType = line;
smooth = 0;
x = 356;
y = 665;
},
{
segmentType = line;
smooth = 1;
x = 975;
y = 665;
},
{
smooth = 0;
x = 1024;
y = 665;
},
{
smooth = 0;
x = 1049;
y = 698;
},
{
segmentType = curve;
smooth = 1;
x = 1049;
y = 734;
},
{
smooth = 0;
x = 1049;
y = 770;
},
{
smooth = 0;
x = 1026;
y = 803;
},
{
segmentType = curve;
smooth = 1;
x = 975;
y = 803;
},
{
segmentType = line;
smooth = 0;
x = 356;
y = 803;
},
{
segmentType = line;
smooth = 0;
x = 356;
y = 1285;
},
{
segmentType = line;
smooth = 1;
x = 1007;
y = 1285;
},
{
smooth = 0;
x = 1056;
y = 1285;
},
{
smooth = 0;
x = 1080;
y = 1319;
},
{
segmentType = curve;
smooth = 1;
x = 1080;
y = 1356;
},
{
smooth = 0;
x = 1080;
y = 1392;
},
{
smooth = 0;
x = 1056;
y = 1426;
},
{
segmentType = curve;
smooth = 1;
x = 1007;
y = 1426;
},
{
segmentType = line;
smooth = 1;
x = 261;
y = 1426;
},
{
smooth = 0;
x = 213;
y = 1426;
},
{
smooth = 0;
x = 178;
y = 1383;
},
{
segmentType = curve;
smooth = 1;
x = 178;
y = 1340;
},
{
segmentType = line;
smooth = 1;
x = 178;
y = 86;
},
{
smooth = 0;
x = 178;
y = 41;
},
{
smooth = 0;
x = 222;
y = 0;
}
);
}
);
lib = {
};
name = P;
unicodes = (
);
width = 1201;
};
};
components = (
);
contours = (
);
lib = {
};
name = P;
unicodes = (
);
width = 1319;
};
},
{
glyphname = Thorn;
lastChange = "2017-11-14 17:22:24 +0000";
layers = (
{
anchors = (
{
name = bottom;
position = "{338, 0}";
},
{
name = top;
position = "{337, 705}";
}
);
background = {
anchors = (
{
name = bottom;
position = "{338, 0}";
},
{
name = top;
position = "{337, 705}";
}
);
paths = (
{
closed = 1;
nodes = (
"397 152 LINE SMOOTH",
"548 152 OFFCURVE",
"640 230 OFFCURVE",
"640 358 CURVE SMOOTH",
"640 487 OFFCURVE",
"550 564 OFFCURVE",
"397 564 CURVE SMOOTH",
"207 564 LINE",
"207 441 LINE",
"370 441 LINE SMOOTH",
"452 441 OFFCURVE",
"489 416 OFFCURVE",
"489 358 CURVE SMOOTH",
"489 300 OFFCURVE",
"452 275 OFFCURVE",
"370 275 CURVE SMOOTH",
"207 275 LINE",
"207 152 LINE"
);
},
{
closed = 1;
nodes = (
"196 -6 OFFCURVE",
"227 26 OFFCURVE",
"227 74 CURVE SMOOTH",
"227 631 LINE SMOOTH",
"227 679 OFFCURVE",
"196 710 OFFCURVE",
"148 710 CURVE SMOOTH",
"100 710 OFFCURVE",
"69 679 OFFCURVE",
"69 631 CURVE SMOOTH",
"69 74 LINE SMOOTH",
"69 25 OFFCURVE",
"100 -6 OFFCURVE",
"148 -6 CURVE SMOOTH"
);
}
);
};
layerId = "E1B555A7-F4E1-459C-9C1A-AE952106EEF9";
paths = (
{
closed = 1;
nodes = (
"397 152 LINE SMOOTH",
"548 152 OFFCURVE",
"640 230 OFFCURVE",
"640 358 CURVE SMOOTH",
"640 487 OFFCURVE",
"550 564 OFFCURVE",
"397 564 CURVE SMOOTH",
"207 564 LINE",
"207 441 LINE",
"370 441 LINE SMOOTH",
"452 441 OFFCURVE",
"489 416 OFFCURVE",
"489 358 CURVE SMOOTH",
"489 300 OFFCURVE",
"452 275 OFFCURVE",
"370 275 CURVE SMOOTH",
"207 275 LINE",
"207 152 LINE"
);
},
{
closed = 1;
nodes = (
"227 0 LINE",
"227 705 LINE",
"69 705 LINE",
"69 0 LINE"
);
}
);
width = 671;
}
);
leftKerningGroup = H;
rightKerningGroup = THORN;
unicode = 00DE;
},
{
glyphname = Q;
lastChange = "2017-11-14 17:22:24 +0000";
layers = (
{
anchors = (
{
name = bottom;
position = "{395, 0}";
},
{
name = top;
position = "{394, 705}";
}
);
background = {
anchors = (
{
name = bottom;
position = "{395, 0}";
},
{
name = top;
position = "{394, 705}";
}
);
paths = (
{
closed = 1;
nodes = (
"588 -228 OFFCURVE",
"733 -173 OFFCURVE",
"673 -76 CURVE SMOOTH",
"646 -32 LINE SMOOTH",
"615 19 OFFCURVE",
"571 39 OFFCURVE",
"506 39 CURVE",
"532 16 LINE",
"665 64 OFFCURVE",
"740 186 OFFCURVE",
"740 353 CURVE SMOOTH",
"740 574 OFFCURVE",
"608 714 OFFCURVE",
"395 714 CURVE SMOOTH",
"182 714 OFFCURVE",
"49 574 OFFCURVE",
"49 353 CURVE SMOOTH",
"49 132 OFFCURVE",
"182 -9 OFFCURVE",
"395 -9 CURVE SMOOTH",
"441 -9 OFFCURVE",
"464 -21 OFFCURVE",
"479 -46 CURVE SMOOTH",
"539 -146 LINE SMOOTH"
);
},
{
closed = 1;
nodes = (
"281 116 OFFCURVE",
"210 196 OFFCURVE",
"210 353 CURVE SMOOTH",
"210 510 OFFCURVE",
"281 589 OFFCURVE",
"395 589 CURVE SMOOTH",
"509 589 OFFCURVE",
"580 509 OFFCURVE",
"580 353 CURVE SMOOTH",
"580 197 OFFCURVE",
"509 116 OFFCURVE",
"395 116 CURVE SMOOTH"
);
}
);
};
layerId = "E1B555A7-F4E1-459C-9C1A-AE952106EEF9";
paths = (
{
closed = 1;
nodes = (
"722 -157 LINE",
"646 -34 LINE SMOOTH",
"615 17 OFFCURVE",
"577 37 OFFCURVE",
"516 37 CURVE",
"532 16 LINE",
"665 64 OFFCURVE",
"740 186 OFFCURVE",
"740 353 CURVE SMOOTH",
"740 574 OFFCURVE",
"608 714 OFFCURVE",
"395 714 CURVE SMOOTH",
"182 714 OFFCURVE",
"49 574 OFFCURVE",
"49 353 CURVE SMOOTH",
"49 132 OFFCURVE",
"182 -9 OFFCURVE",
"395 -9 CURVE SMOOTH",
"436 -9 OFFCURVE",
"463 -22 OFFCURVE",
"479 -48 CURVE SMOOTH",
"585 -220 LINE"
);
},
{
closed = 1;
nodes = (
"281 116 OFFCURVE",
"210 196 OFFCURVE",
"210 353 CURVE SMOOTH",
"210 510 OFFCURVE",
"281 589 OFFCURVE",
"395 589 CURVE SMOOTH",
"509 589 OFFCURVE",
"580 509 OFFCURVE",
"580 353 CURVE SMOOTH",
"580 197 OFFCURVE",
"509 116 OFFCURVE",
"395 116 CURVE SMOOTH"
);
}
);
width = 789;
}
);
leftKerningGroup = O;
rightKerningGroup = O;
unicode = 0051;
userData = {
anchors = (
);
b = {
};
com.typemytype.robofont.layerData = {
b = {
anchors = (
);
components = (
);
contours = (
);
lib = {
};
name = Q;
unicodes = (
);
width = 1597;
};
};
components = (
);
contours = (
);
lib = {
};
name = Q;
unicodes = (
);
width = 1604;
};
},
{
glyphname = R;
lastChange = "2017-11-14 17:22:24 +0000";
layers = (
{
anchors = (
{
name = bottom;
position = "{354, 0}";
},
{
name = top;
position = "{353, 705}";
}
);
background = {
anchors = (
{
name = bottom;
position = "{354, 0}";
},
{
name = top;
position = "{353, 705}";
}
);
paths = (
{
closed = 1;
nodes = (
"198 -6 OFFCURVE",
"228 25 OFFCURVE",
"228 74 CURVE SMOOTH",
"228 271 LINE",
"306 271 LINE SMOOTH",
"343 271 OFFCURVE",
"365 257 OFFCURVE",
"387 225 CURVE SMOOTH",
"518 30 LINE SMOOTH",
"574 -54 OFFCURVE",
"711 13 OFFCURVE",
"650 102 CURVE SMOOTH",
"576 212 LINE SMOOTH",
"536 270 OFFCURVE",
"498 290 OFFCURVE",
"427 290 CURVE",
"398 278 LINE",
"555 278 OFFCURVE",
"647 361 OFFCURVE",
"647 492 CURVE SMOOTH",
"647 630 OFFCURVE",
"562 705 OFFCURVE",
"395 705 CURVE SMOOTH",
"144 705 LINE SMOOTH",
"96 705 OFFCURVE",
"69 678 OFFCURVE",
"69 630 CURVE SMOOTH",
"69 74 LINE SMOOTH",
"69 25 OFFCURVE",
"100 -6 OFFCURVE",
"149 -6 CURVE SMOOTH"
);
},
{
closed = 1;
nodes = (
"226 582 LINE",
"371 582 LINE SMOOTH",
"459 582 OFFCURVE",
"496 554 OFFCURVE",
"496 488 CURVE SMOOTH",
"496 423 OFFCURVE",
"459 395 OFFCURVE",
"371 395 CURVE SMOOTH",
"226 395 LINE"
);
}
);
};
layerId = "E1B555A7-F4E1-459C-9C1A-AE952106EEF9";
paths = (
{
closed = 1;
nodes = (
"228 0 LINE",
"228 272 LINE",
"301 272 LINE SMOOTH",
"340 272 OFFCURVE",
"368 259 OFFCURVE",
"387 225 CURVE SMOOTH",
"509 0 LINE",
"685 0 LINE",
"571 207 LINE SMOOTH",
"540 263 OFFCURVE",
"499 290 OFFCURVE",
"440 290 CURVE",
"398 278 LINE",
"555 278 OFFCURVE",
"647 361 OFFCURVE",
"647 492 CURVE SMOOTH",
"647 630 OFFCURVE",
"562 705 OFFCURVE",
"395 705 CURVE SMOOTH",
"69 705 LINE",
"69 0 LINE"
);
},
{
closed = 1;
nodes = (
"226 582 LINE",
"371 582 LINE SMOOTH",
"459 582 OFFCURVE",
"496 554 OFFCURVE",
"496 488 CURVE SMOOTH",
"496 423 OFFCURVE",
"459 394 OFFCURVE",
"371 394 CURVE SMOOTH",
"226 394 LINE"
);
}
);
width = 702;
}
);
leftKerningGroup = H;
rightKerningGroup = R;
unicode = 0052;
userData = {
anchors = (
);
b = {
};
com.typemytype.robofont.guides = (
);
com.typemytype.robofont.layerData = {
b = {
anchors = (
);
components = (
);
contours = (
{
points = (
{
segmentType = curve;
smooth = 1;
x = 267;
y = 0;
},
{
smooth = 0;
x = 311;
y = 0;
},
{
smooth = 0;
x = 356;
y = 27;
},
{
segmentType = curve;
smooth = 1;
x = 356;
y = 84;
},
{
segmentType = line;
smooth = 0;
x = 356;
y = 628;
},
{
segmentType = line;
smooth = 1;
x = 669;
y = 628;
},
{
smooth = 0;
x = 962;
y = 628;
},
{
smooth = 0;
x = 1182;
y = 722;
},
{
segmentType = curve;
smooth = 1;
x = 1182;
y = 1026;
},
{
smooth = 0;
x = 1182;
y = 1324;
},
{
smooth = 0;
x = 993;
y = 1426;
},
{
segmentType = curve;
smooth = 1;
x = 684;
y = 1426;
},
{
segmentType = line;
smooth = 1;
x = 268;
y = 1426;
},
{
smooth = 0;
x = 217;
y = 1426;
},
{
smooth = 0;
x = 178;
y = 1387;
},
{
segmentType = curve;
smooth = 1;
x = 178;
y = 1339;
},
{
segmentType = line;
smooth = 1;
x = 178;
y = 84;
},
{
smooth = 0;
x = 178;
y = 28;
},
{
smooth = 0;
x = 222;
y = 0;
}
);
},
{
points = (
{
segmentType = line;
smooth = 0;
x = 356;
y = 764;
},
{
segmentType = line;
smooth = 0;
x = 356;
y = 1285;
},
{
segmentType = line;
smooth = 1;
x = 684;
y = 1285;
},
{
smooth = 0;
x = 914;
y = 1285;
},
{
smooth = 0;
x = 1008;
y = 1210;
},
{
segmentType = curve;
smooth = 1;
x = 1008;
y = 1026;
},
{
smooth = 0;
x = 1008;
y = 838;
},
{
smooth = 0;
x = 901;
y = 764;
},
{
segmentType = curve;
smooth = 1;
x = 670;
y = 764;
}
);
}
);
lib = {
};
name = R;
unicodes = (
);
width = 1363;
};
};
components = (
);
contours = (
);
lib = {
};
name = R;
unicodes = (
);
width = 1408;
};
},
{
glyphname = S;
lastChange = "2017-11-14 17:22:24 +0000";
layers = (
{
anchors = (
{
name = bottom;
position = "{325, 0}";
},
{
name = top;
position = "{330, 705}";
}
);
background = {
anchors = (
{
name = bottom;
position = "{325, 0}";
},
{
name = top;
position = "{330, 705}";
}
);
paths = (
{
closed = 1;
nodes = (
"497 -9 OFFCURVE",
"612 78 OFFCURVE",
"612 208 CURVE SMOOTH",
"612 317 OFFCURVE",
"540 375 OFFCURVE",
"357 415 CURVE SMOOTH",
"243 440 OFFCURVE",
"211 460 OFFCURVE",
"211 504 CURVE SMOOTH",
"211 556 OFFCURVE",
"260 589 OFFCURVE",
"338 589 CURVE SMOOTH",
"418 589 OFFCURVE",
"460 563 OFFCURVE",
"499 539 CURVE SMOOTH",
"523 525 OFFCURVE",
"533 522 OFFCURVE",
"548 522 CURVE SMOOTH",
"576 522 OFFCURVE",
"600 552 OFFCURVE",
"600 587 CURVE SMOOTH",
"600 612 OFFCURVE",
"592 628 OFFCURVE",
"571 644 CURVE SMOOTH",
"509 691 OFFCURVE",
"433 714 OFFCURVE",
"337 714 CURVE SMOOTH",
"173 714 OFFCURVE",
"53 620 OFFCURVE",
"53 492 CURVE SMOOTH",
"53 379 OFFCURVE",
"121 320 OFFCURVE",
"308 281 CURVE SMOOTH",
"417 258 OFFCURVE",
"454 237 OFFCURVE",
"454 198 CURVE SMOOTH",
"454 145 OFFCURVE",
"407 116 OFFCURVE",
"321 116 CURVE SMOOTH",
"250 116 OFFCURVE",
"195 131 OFFCURVE",
"139 166 CURVE SMOOTH",
"117 179 OFFCURVE",
"105 183 OFFCURVE",
"90 183 CURVE SMOOTH",
"62 183 OFFCURVE",
"38 153 OFFCURVE",
"38 118 CURVE SMOOTH",
"38 92 OFFCURVE",
"46 76 OFFCURVE",
"66 61 CURVE SMOOTH",
"124 17 OFFCURVE",
"220 -9 OFFCURVE",
"325 -9 CURVE SMOOTH"
);
}
);
};
layerId = "E1B555A7-F4E1-459C-9C1A-AE952106EEF9";
paths = (
{
closed = 1;
nodes = (
"504 -9 OFFCURVE",
"612 74 OFFCURVE",
"612 207 CURVE SMOOTH",
"612 317 OFFCURVE",
"540 375 OFFCURVE",
"357 415 CURVE SMOOTH",
"243 440 OFFCURVE",
"211 460 OFFCURVE",
"211 504 CURVE SMOOTH",
"211 556 OFFCURVE",
"260 589 OFFCURVE",
"338 589 CURVE SMOOTH",
"409 589 OFFCURVE",
"478 566 OFFCURVE",
"542 519 CURVE",
"593 634 LINE",
"538 683 OFFCURVE",
"437 714 OFFCURVE",
"337 714 CURVE SMOOTH",
"166 714 OFFCURVE",
"53 620 OFFCURVE",
"53 492 CURVE SMOOTH",
"53 378 OFFCURVE",
"121 320 OFFCURVE",
"308 281 CURVE SMOOTH",
"417 258 OFFCURVE",
"454 237 OFFCURVE",
"454 193 CURVE SMOOTH",
"454 145 OFFCURVE",
"407 116 OFFCURVE",
"319 116 CURVE SMOOTH",
"237 116 OFFCURVE",
"160 139 OFFCURVE",
"91 186 CURVE",
"40 71 LINE",
"105 21 OFFCURVE",
"212 -9 OFFCURVE",
"317 -9 CURVE SMOOTH"
);
}
);
width = 653;
}
);
leftKerningGroup = S;
rightKerningGroup = S;
unicode = 0053;
userData = {
anchors = (
);
b = {
};
com.typemytype.robofont.layerData = {
b = {
anchors = (
);
components = (
);
contours = (
);
lib = {
};
name = S;
unicodes = (
);
width = 1274;
};
};
components = (
);
contours = (
);
lib = {
};
name = S;
unicodes = (
);
width = 1317;
};
},
{
glyphname = Germandbls;
lastChange = "2017-11-14 17:22:24 +0000";
layers = (
{
background = {
paths = (
{
closed = 1;
nodes = (
"196 -7 OFFCURVE",
"227 25 OFFCURVE",
"227 72 CURVE SMOOTH",
"227 444 LINE SMOOTH",
"227 537 OFFCURVE",
"276 587 OFFCURVE",
"365 587 CURVE SMOOTH",
"431 587 OFFCURVE",
"473 554 OFFCURVE",
"473 501 CURVE SMOOTH",
"473 448 OFFCURVE",
"440 421 OFFCURVE",
"375 421 CURVE SMOOTH",
"342 421 LINE SMOOTH",
"257 421 OFFCURVE",
"257 292 OFFCURVE",
"342 292 CURVE SMOOTH",
"393 292 LINE SMOOTH",
"488 292 OFFCURVE",
"524 267 OFFCURVE",
"524 202 CURVE SMOOTH",
"524 147 OFFCURVE",
"492 113 OFFCURVE",
"441 113 CURVE SMOOTH",
"405 113 OFFCURVE",
"380 129 OFFCURVE",
"356 140 CURVE SMOOTH",
"335 150 OFFCURVE",
"324 153 OFFCURVE",
"311 153 CURVE SMOOTH",
"284 153 OFFCURVE",
"265 128 OFFCURVE",
"265 92 CURVE SMOOTH",
"265 68 OFFCURVE",
"275 49 OFFCURVE",
"296 36 CURVE SMOOTH",
"339 7 OFFCURVE",
"389 -6 OFFCURVE",
"452 -6 CURVE SMOOTH",
"581 -6 OFFCURVE",
"676 80 OFFCURVE",
"676 197 CURVE SMOOTH",
"676 294 OFFCURVE",
"611 360 OFFCURVE",
"504 372 CURVE",
"504 358 LINE",
"577 380 OFFCURVE",
"623 439 OFFCURVE",
"623 514 CURVE SMOOTH",
"623 635 OFFCURVE",
"524 712 OFFCURVE",
"369 712 CURVE SMOOTH",
"179 712 OFFCURVE",
"69 613 OFFCURVE",
"69 441 CURVE SMOOTH",
"69 72 LINE SMOOTH",
"69 24 OFFCURVE",
"100 -7 OFFCURVE",
"148 -7 CURVE SMOOTH"
);
}
);
};
layerId = "E1B555A7-F4E1-459C-9C1A-AE952106EEF9";
paths = (
{
closed = 1;
nodes = (
"227 0 LINE",
"227 444 LINE SMOOTH",
"227 537 OFFCURVE",
"276 587 OFFCURVE",
"365 587 CURVE SMOOTH",
"431 587 OFFCURVE",
"473 554 OFFCURVE",
"473 500 CURVE SMOOTH",
"473 448 OFFCURVE",
"440 419 OFFCURVE",
"375 419 CURVE SMOOTH",
"295 419 LINE",
"295 294 LINE",
"393 294 LINE SMOOTH",
"488 294 OFFCURVE",
"524 267 OFFCURVE",
"524 203 CURVE SMOOTH",
"524 147 OFFCURVE",
"493 113 OFFCURVE",
"443 113 CURVE SMOOTH",
"403 113 OFFCURVE",
"359 129 OFFCURVE",
"306 163 CURVE",
"264 50 LINE",
"317 11 OFFCURVE",
"375 -6 OFFCURVE",
"452 -6 CURVE SMOOTH",
"581 -6 OFFCURVE",
"676 80 OFFCURVE",
"676 197 CURVE SMOOTH",
"676 294 OFFCURVE",
"611 360 OFFCURVE",
"504 372 CURVE",
"504 358 LINE",
"577 380 OFFCURVE",
"623 439 OFFCURVE",
"623 514 CURVE SMOOTH",
"623 635 OFFCURVE",
"524 712 OFFCURVE",
"369 712 CURVE SMOOTH",
"179 712 OFFCURVE",
"69 613 OFFCURVE",
"69 441 CURVE SMOOTH",
"69 0 LINE"
);
}
);
width = 712;
}
);
leftKerningGroup = H;
rightKerningGroup = Germandbls;
unicode = 1E9E;
},
{
glyphname = Schwa;
lastChange = "2017-11-14 17:22:24 +0000";
layers = (
{
anchors = (
{
name = bottom;
position = "{385, 0}";
},
{
name = top;
position = "{384, 705}";
}
);
background = {
anchors = (
{
name = bottom;
position = "{385, 0}";
},
{
name = top;
position = "{384, 705}";
}
);
paths = (
{
closed = 1;
nodes = (
"589 -9 OFFCURVE",
"720 141 OFFCURVE",
"720 353 CURVE SMOOTH",
"720 574 OFFCURVE",
"580 714 OFFCURVE",
"361 714 CURVE SMOOTH",
"265 714 OFFCURVE",
"176 689 OFFCURVE",
"119 643 CURVE SMOOTH",
"99 627 OFFCURVE",
"91 612 OFFCURVE",
"91 587 CURVE SMOOTH",
"91 551 OFFCURVE",
"114 522 OFFCURVE",
"143 522 CURVE SMOOTH",
"162 522 OFFCURVE",
"174 529 OFFCURVE",
"192 539 CURVE SMOOTH",
"247 570 OFFCURVE",
"301 586 OFFCURVE",
"351 586 CURVE SMOOTH",
"488 586 OFFCURVE",
"560 507 OFFCURVE",
"560 353 CURVE SMOOTH",
"560 196 OFFCURVE",
"502 116 OFFCURVE",
"388 116 CURVE SMOOTH",
"272 116 OFFCURVE",
"205 196 OFFCURVE",
"210 353 CURVE",
"169 295 LINE",
"621 295 LINE",
"621 418 LINE",
"113 418 LINE SMOOTH",
"73 418 OFFCURVE",
"49 393 OFFCURVE",
"49 350 CURVE SMOOTH",
"49 122 OFFCURVE",
"180 -9 OFFCURVE",
"388 -9 CURVE SMOOTH"
);
}
);
};
layerId = "E1B555A7-F4E1-459C-9C1A-AE952106EEF9";
paths = (
{
closed = 1;
nodes = (
"589 -9 OFFCURVE",
"720 141 OFFCURVE",
"720 353 CURVE SMOOTH",
"720 574 OFFCURVE",
"580 714 OFFCURVE",
"361 714 CURVE SMOOTH",
"265 714 OFFCURVE",
"161 683 OFFCURVE",
"99 634 CURVE",
"150 519 LINE",
"211 564 OFFCURVE",
"281 586 OFFCURVE",
"355 586 CURVE SMOOTH",
"488 586 OFFCURVE",
"560 507 OFFCURVE",
"560 353 CURVE SMOOTH",
"560 196 OFFCURVE",
"502 116 OFFCURVE",
"390 116 CURVE SMOOTH",
"272 116 OFFCURVE",
"205 196 OFFCURVE",
"210 353 CURVE",
"169 295 LINE",
"621 295 LINE",
"621 418 LINE",
"49 418 LINE",
"49 356 LINE SMOOTH",
"49 122 OFFCURVE",
"180 -9 OFFCURVE",
"395 -9 CURVE SMOOTH"
);
}
);
width = 769;
}
);
leftKerningGroup = O;
rightKerningGroup = O;
unicode = 018F;
},
{
glyphname = T;
lastChange = "2017-11-14 17:22:24 +0000";
layers = (
{
anchors = (
{
name = bottom;
position = "{312, 0}";
},
{
name = center;
position = "{312, 353}";
},
{
name = top;
position = "{312, 705}";
}
);
background = {
anchors = (
{
name = bottom;
position = "{312, 0}";
},
{
name = center;
position = "{312, 353}";
},
{
name = top;
position = "{312, 705}";
}
);
paths = (
{
closed = 1;
nodes = (
"361 -5 OFFCURVE",
"393 26 OFFCURVE",
"393 74 CURVE SMOOTH",
"393 574 LINE",
"551 574 LINE SMOOTH",
"602 574 OFFCURVE",
"627 595 OFFCURVE",
"627 640 CURVE SMOOTH",
"627 684 OFFCURVE",
"602 705 OFFCURVE",
"551 705 CURVE SMOOTH",
"73 705 LINE SMOOTH",
"22 705 OFFCURVE",
"-3 684 OFFCURVE",
"-3 640 CURVE SMOOTH",
"-3 595 OFFCURVE",
"22 574 OFFCURVE",
"73 574 CURVE SMOOTH",
"231 574 LINE",
"231 74 LINE SMOOTH",
"231 26 OFFCURVE",
"263 -5 OFFCURVE",
"312 -5 CURVE SMOOTH"
);
}
);
};
layerId = "E1B555A7-F4E1-459C-9C1A-AE952106EEF9";
paths = (
{
closed = 1;
nodes = (
"393 0 LINE",
"393 574 LINE",
"612 574 LINE",
"612 705 LINE",
"12 705 LINE",
"12 574 LINE",
"231 574 LINE",
"231 0 LINE"
);
}
);
width = 624;
}
);
leftKerningGroup = T;
rightKerningGroup = T;
unicode = 0054;
userData = {
anchors = (
);
b = {
};
com.typemytype.robofont.layerData = {
b = {
anchors = (
);
components = (
);
contours = (
{
points = (
{
segmentType = curve;
smooth = 1;
x = 581;
y = 0;
},
{
segmentType = line;
smooth = 1;
x = 1350;
y = 0;
},
{
smooth = 0;
x = 1399;
y = 0;
},
{
smooth = 0;
x = 1423;
y = 34;
},
{
segmentType = curve;
smooth = 1;
x = 1423;
y = 71;
},
{
smooth = 0;
x = 1423;
y = 107;
},
{
smooth = 0;
x = 1399;
y = 141;
},
{
segmentType = curve;
smooth = 1;
x = 1350;
y = 141;
},
{
segmentType = line;
smooth = 0;
x = 671;
y = 141;
},
{
segmentType = line;
smooth = 0;
x = 671;
y = 665;
},
{
segmentType = line;
smooth = 1;
x = 1290;
y = 665;
},
{
smooth = 0;
x = 1339;
y = 665;
},
{
smooth = 0;
x = 1364;
y = 698;
},
{
segmentType = curve;
smooth = 1;
x = 1364;
y = 734;
},
{
smooth = 0;
x = 1364;
y = 770;
},
{
smooth = 0;
x = 1341;
y = 803;
},
{
segmentType = curve;
smooth = 1;
x = 1290;
y = 803;
},
{
segmentType = line;
smooth = 0;
x = 671;
y = 803;
},
{
segmentType = line;
smooth = 0;
x = 671;
y = 1285;
},
{
segmentType = line;
smooth = 1;
x = 1322;
y = 1285;
},
{
smooth = 0;
x = 1371;
y = 1285;
},
{
smooth = 0;
x = 1395;
y = 1319;
},
{
segmentType = curve;
smooth = 1;
x = 1395;
y = 1356;
},
{
smooth = 0;
x = 1395;
y = 1392;
},
{
smooth = 0;
x = 1371;
y = 1426;
},
{
segmentType = curve;
smooth = 1;
x = 1322;
y = 1426;
},
{
segmentType = line;
smooth = 1;
x = 576;
y = 1426;
},
{
smooth = 0;
x = 528;
y = 1426;
},
{
smooth = 0;
x = 493;
y = 1383;
},
{
segmentType = curve;
smooth = 1;
x = 493;
y = 1340;
},
{
segmentType = line;
smooth = 1;
x = 493;
y = 86;
},
{
smooth = 0;
x = 493;
y = 41;
},
{
smooth = 0;
x = 537;
y = 0;
}
);
}
);
lib = {
};
name = T;
unicodes = (
);
width = 1158;
};
};
components = (
);
contours = (
);
lib = {
};
name = T;
unicodes = (
);
width = 1199;
};
},
{
glyphname = Tbar;
lastChange = "2017-11-14 17:22:24 +0000";
layers = (
{
background = {
paths = (
{
closed = 1;
nodes = (
"361 -5 OFFCURVE",
"393 26 OFFCURVE",
"393 74 CURVE SMOOTH",
"393 574 LINE",
"551 574 LINE SMOOTH",
"602 574 OFFCURVE",
"627 595 OFFCURVE",
"627 640 CURVE SMOOTH",
"627 684 OFFCURVE",
"602 705 OFFCURVE",
"551 705 CURVE SMOOTH",
"73 705 LINE SMOOTH",
"22 705 OFFCURVE",
"-3 684 OFFCURVE",
"-3 640 CURVE SMOOTH",
"-3 595 OFFCURVE",
"22 574 OFFCURVE",
"73 574 CURVE SMOOTH",
"231 574 LINE",
"231 74 LINE SMOOTH",
"231 26 OFFCURVE",
"263 -5 OFFCURVE",
"312 -5 CURVE SMOOTH"
);
},
{
closed = 1;
nodes = (
"471 295 LINE SMOOTH",
"517 295 OFFCURVE",
"543 317 OFFCURVE",
"543 356 CURVE SMOOTH",
"543 395 OFFCURVE",
"517 417 OFFCURVE",
"471 417 CURVE SMOOTH",
"153 417 LINE SMOOTH",
"107 417 OFFCURVE",
"81 395 OFFCURVE",
"81 356 CURVE SMOOTH",
"81 317 OFFCURVE",
"107 295 OFFCURVE",
"153 295 CURVE SMOOTH"
);
}
);
};
layerId = "E1B555A7-F4E1-459C-9C1A-AE952106EEF9";
paths = (
{
closed = 1;
nodes = (
"528 295 LINE",
"528 417 LINE",
"96 417 LINE",
"96 295 LINE"
);
},
{
closed = 1;
nodes = (
"393 0 LINE",
"393 574 LINE",
"612 574 LINE",
"612 705 LINE",
"12 705 LINE",
"12 574 LINE",
"231 574 LINE",
"231 0 LINE"
);
}
);
width = 624;
}
);
leftKerningGroup = T;
rightKerningGroup = T;
unicode = 0166;
userData = {
com.typemytype.robofont.layerData = {
b = {
anchors = (
);
components = (
);
contours = (
);
lib = {
};
name = Tbar;
unicodes = (
);
width = 1158;
};
};
};
},
{
glyphname = U;
lastChange = "2017-11-14 17:22:24 +0000";
layers = (
{
anchors = (
{
name = bottom;
position = "{370, 0}";
},
{
name = ogonek;
position = "{492, 10}";
},
{
name = top;
position = "{370, 705}";
},
{
name = topright;
position = "{596, 705}";
}
);
background = {
anchors = (
{
name = bottom;
position = "{370, 0}";
},
{
name = ogonek;
position = "{492, 10}";
},
{
name = top;
position = "{370, 705}";
},
{
name = topright;
position = "{596, 705}";
}
);
paths = (
{
closed = 1;
nodes = (
"568 -9 OFFCURVE",
"675 97 OFFCURVE",
"675 292 CURVE SMOOTH",
"675 631 LINE SMOOTH",
"675 679 OFFCURVE",
"644 710 OFFCURVE",
"596 710 CURVE SMOOTH",
"548 710 OFFCURVE",
"517 679 OFFCURVE",
"517 631 CURVE SMOOTH",
"517 285 LINE SMOOTH",
"517 176 OFFCURVE",
"465 116 OFFCURVE",
"370 116 CURVE SMOOTH",
"274 116 OFFCURVE",
"223 175 OFFCURVE",
"223 285 CURVE SMOOTH",
"223 631 LINE SMOOTH",
"223 679 OFFCURVE",
"192 710 OFFCURVE",
"144 710 CURVE SMOOTH",
"96 710 OFFCURVE",
"65 679 OFFCURVE",
"65 631 CURVE SMOOTH",
"65 292 LINE SMOOTH",
"65 95 OFFCURVE",
"170 -9 OFFCURVE",
"370 -9 CURVE SMOOTH"
);
}
);
};
layerId = "E1B555A7-F4E1-459C-9C1A-AE952106EEF9";
paths = (
{
closed = 1;
nodes = (
"568 -9 OFFCURVE",
"675 97 OFFCURVE",
"675 292 CURVE SMOOTH",
"675 705 LINE",
"517 705 LINE",
"517 285 LINE SMOOTH",
"517 176 OFFCURVE",
"465 116 OFFCURVE",
"370 116 CURVE SMOOTH",
"274 116 OFFCURVE",
"223 175 OFFCURVE",
"223 285 CURVE SMOOTH",
"223 705 LINE",
"65 705 LINE",
"65 292 LINE SMOOTH",
"65 95 OFFCURVE",
"170 -9 OFFCURVE",
"370 -9 CURVE SMOOTH"
);
}
);
width = 740;
}
);
leftKerningGroup = U;
rightKerningGroup = U;
unicode = 0055;
userData = {
anchors = (
);
b = {
};
com.typemytype.robofont.layerData = {
b = {
anchors = (
);
components = (
);
contours = (
);
lib = {
};
name = U;
unicodes = (
);
width = 1490;
};
};
components = (
);
contours = (
);
lib = {
};
name = U;
unicodes = (
);
width = 1513;
};
},
{
glyphname = Uhorn;
lastChange = "2017-11-14 17:22:24 +0000";
layers = (
{
anchors = (
{
name = bottom;
position = "{370, 0}";
},
{
name = top;
position = "{370, 705}";
}
);
background = {
anchors = (
{
name = bottom;
position = "{370, 0}";
},
{
name = top;
position = "{370, 705}";
}
);
paths = (
{
closed = 1;
nodes = (
"568 -9 OFFCURVE",
"675 97 OFFCURVE",
"675 292 CURVE SMOOTH",
"675 674 LINE",
"642 631 LINE",
"727 640 OFFCURVE",
"787 700 OFFCURVE",
"787 776 CURVE SMOOTH",
"787 822 OFFCURVE",
"768 842 OFFCURVE",
"725 842 CURVE SMOOTH",
"678 842 OFFCURVE",
"654 821 OFFCURVE",
"648 772 CURVE SMOOTH",
"643 730 OFFCURVE",
"626 712 OFFCURVE",
"591 711 CURVE SMOOTH",
"546 709 OFFCURVE",
"517 677 OFFCURVE",
"517 631 CURVE SMOOTH",
"517 285 LINE SMOOTH",
"517 176 OFFCURVE",
"465 116 OFFCURVE",
"370 116 CURVE SMOOTH",
"274 116 OFFCURVE",
"223 175 OFFCURVE",
"223 285 CURVE SMOOTH",
"223 631 LINE SMOOTH",
"223 679 OFFCURVE",
"192 710 OFFCURVE",
"144 710 CURVE SMOOTH",
"96 710 OFFCURVE",
"65 679 OFFCURVE",
"65 631 CURVE SMOOTH",
"65 292 LINE SMOOTH",
"65 95 OFFCURVE",
"170 -9 OFFCURVE",
"370 -9 CURVE SMOOTH"
);
}
);
};
layerId = "E1B555A7-F4E1-459C-9C1A-AE952106EEF9";
paths = (
{
closed = 1;
nodes = (
"653 806 LINE SMOOTH",
"653 731 OFFCURVE",
"630 705 OFFCURVE",
"563 705 CURVE SMOOTH",
"517 705 LINE",
"517 285 LINE SMOOTH",
"517 176 OFFCURVE",
"465 116 OFFCURVE",
"370 116 CURVE SMOOTH",
"274 116 OFFCURVE",
"223 175 OFFCURVE",
"223 285 CURVE SMOOTH",
"223 705 LINE",
"65 705 LINE",
"65 292 LINE SMOOTH",
"65 95 OFFCURVE",
"170 -9 OFFCURVE",
"370 -9 CURVE SMOOTH",
"568 -9 OFFCURVE",
"675 97 OFFCURVE",
"675 292 CURVE SMOOTH",
"675 674 LINE",
"643 631 LINE",
"729 636 OFFCURVE",
"787 699 OFFCURVE",
"787 787 CURVE SMOOTH",
"787 826 LINE",
"653 826 LINE"
);
}
);
width = 740;
}
);
leftKerningGroup = U;
rightKerningGroup = Uhorn;
unicode = 01AF;
},
{
glyphname = Uogonek;
lastChange = "2017-11-14 17:22:24 +0000";
layers = (
{
background = {
paths = (
{
closed = 1;
nodes = (
"486 -197 OFFCURVE",
"514 -190 OFFCURVE",
"541 -174 CURVE SMOOTH",
"574 -155 OFFCURVE",
"559 -98 OFFCURVE",
"523 -109 CURVE SMOOTH",
"504 -115 OFFCURVE",
"492 -117 OFFCURVE",
"475 -117 CURVE SMOOTH",
"444 -117 OFFCURVE",
"423 -96 OFFCURVE",
"423 -64 CURVE SMOOTH",
"423 -30 OFFCURVE",
"444 -5 OFFCURVE",
"485 6 CURVE SMOOTH",
"609 39 OFFCURVE",
"675 139 OFFCURVE",
"675 292 CURVE SMOOTH",
"675 631 LINE SMOOTH",
"675 679 OFFCURVE",
"644 710 OFFCURVE",
"596 710 CURVE SMOOTH",
"548 710 OFFCURVE",
"517 679 OFFCURVE",
"517 631 CURVE SMOOTH",
"517 285 LINE SMOOTH",
"517 176 OFFCURVE",
"465 116 OFFCURVE",
"370 116 CURVE SMOOTH",
"274 116 OFFCURVE",
"223 175 OFFCURVE",
"223 285 CURVE SMOOTH",
"223 631 LINE SMOOTH",
"223 679 OFFCURVE",
"192 710 OFFCURVE",
"144 710 CURVE SMOOTH",
"96 710 OFFCURVE",
"65 679 OFFCURVE",
"65 631 CURVE SMOOTH",
"65 292 LINE SMOOTH",
"65 95 OFFCURVE",
"170 -9 OFFCURVE",
"371 -9 CURVE SMOOTH",
"392 -9 LINE",
"381 11 LINE",
"345 -11 OFFCURVE",
"324 -48 OFFCURVE",
"324 -87 CURVE SMOOTH",
"324 -151 OFFCURVE",
"377 -197 OFFCURVE",
"452 -197 CURVE SMOOTH"
);
}
);
};
layerId = "E1B555A7-F4E1-459C-9C1A-AE952106EEF9";
paths = (
{
closed = 1;
nodes = (
"517 285 LINE SMOOTH",
"517 176 OFFCURVE",
"465 116 OFFCURVE",
"370 116 CURVE SMOOTH",
"274 116 OFFCURVE",
"223 175 OFFCURVE",
"223 285 CURVE SMOOTH",
"223 705 LINE",
"65 705 LINE",
"65 292 LINE SMOOTH",
"65 95 OFFCURVE",
"170 -9 OFFCURVE",
"371 -9 CURVE SMOOTH",
"392 -9 LINE",
"382 11 LINE",
"345 -11 OFFCURVE",
"324 -48 OFFCURVE",
"324 -87 CURVE SMOOTH",
"324 -151 OFFCURVE",
"377 -197 OFFCURVE",
"452 -197 CURVE SMOOTH",
"488 -197 OFFCURVE",
"523 -190 OFFCURVE",
"553 -177 CURVE",
"536 -105 LINE",
"517 -113 OFFCURVE",
"499 -117 OFFCURVE",
"482 -117 CURVE SMOOTH",
"444 -117 OFFCURVE",
"423 -99 OFFCURVE",
"423 -64 CURVE SMOOTH",
"423 -32 OFFCURVE",
"444 -6 OFFCURVE",
"483 5 CURVE SMOOTH",
"609 40 OFFCURVE",
"675 138 OFFCURVE",
"675 292 CURVE SMOOTH",
"675 705 LINE",
"517 705 LINE"
);
}
);
width = 740;
}
);
leftKerningGroup = U;
rightKerningGroup = U;
unicode = 0172;
},
{
glyphname = V;
lastChange = "2017-11-14 17:22:24 +0000";
layers = (
{
anchors = (
{
name = bottom;
position = "{366, 0}";
},
{
name = top;
position = "{365, 705}";
}
);
background = {
anchors = (
{
name = bottom;
position = "{366, 0}";
},
{
name = top;
position = "{365, 705}";
}
);
paths = (
{
closed = 1;
nodes = (
"314 -24 OFFCURVE",
"418 -22 OFFCURVE",
"449 43 CURVE SMOOTH",
"718 609 LINE SMOOTH",
"759 696 OFFCURVE",
"618 755 OFFCURVE",
"578 668 CURVE SMOOTH",
"342 151 LINE",
"393 151 LINE",
"157 668 LINE SMOOTH",
"117 755 OFFCURVE",
"-28 696 OFFCURVE",
"13 609 CURVE SMOOTH",
"282 43 LINE SMOOTH"
);
}
);
};
layerId = "E1B555A7-F4E1-459C-9C1A-AE952106EEF9";
paths = (
{
closed = 1;
nodes = (
"430 0 LINE",
"748 705 LINE",
"585 705 LINE",
"344 147 LINE",
"390 147 LINE",
"150 705 LINE",
"-17 705 LINE",
"301 0 LINE"
);
}
);
width = 731;
}
);
leftKerningGroup = V;
rightKerningGroup = V;
unicode = 0056;
userData = {
anchors = (
);
b = {
};
com.typemytype.robofont.guides = (
);
com.typemytype.robofont.layerData = {
b = {
anchors = (
);
components = (
);
contours = (
{
points = (
{
segmentType = curve;
smooth = 1;
x = 644;
y = "-5";
},
{
smooth = 0;
x = 712;
y = "-5";
},
{
smooth = 0;
x = 764;
y = 38;
},
{
segmentType = curve;
smooth = 1;
x = 793;
y = 117;
},
{
segmentType = line;
smooth = 1;
x = 1243;
y = 1324;
},
{
smooth = 0;
x = 1247;
y = 1335;
},
{
smooth = 0;
x = 1248;
y = 1342;
},
{
segmentType = curve;
smooth = 1;
x = 1248;
y = 1351;
},
{
smooth = 0;
x = 1248;
y = 1395;
},
{
smooth = 0;
x = 1203;
y = 1427;
},
{
segmentType = curve;
smooth = 1;
x = 1160;
y = 1427;
},
{
smooth = 0;
x = 1125;
y = 1427;
},
{
smooth = 0;
x = 1090;
y = 1408;
},
{
segmentType = curve;
smooth = 1;
x = 1076;
y = 1369;
},
{
segmentType = line;
smooth = 0;
x = 651;
y = 192;
},
{
segmentType = line;
smooth = 0;
x = 650;
y = 190;
},
{
segmentType = line;
smooth = 1;
x = 214;
y = 1370;
},
{
smooth = 0;
x = 200;
y = 1407;
},
{
smooth = 0;
x = 170;
y = 1427;
},
{
segmentType = curve;
smooth = 1;
x = 135;
y = 1427;
},
{
smooth = 0;
x = 90;
y = 1427;
},
{
smooth = 0;
x = 43;
y = 1392;
},
{
segmentType = curve;
smooth = 1;
x = 43;
y = 1344;
},
{
smooth = 0;
x = 43;
y = 1336;
},
{
smooth = 0;
x = 44;
y = 1326;
},
{
segmentType = curve;
smooth = 0;
x = 48;
y = 1318;
},
{
segmentType = line;
smooth = 1;
x = 501;
y = 117;
},
{
smooth = 0;
x = 532;
y = 35;
},
{
smooth = 0;
x = 581;
y = "-5";
}
);
}
);
lib = {
};
name = V;
unicodes = (
);
width = 1289;
};
};
components = (
);
contours = (
);
lib = {
};
name = V;
unicodes = (
);
width = 1365;
};
},
{
glyphname = W;
lastChange = "2017-11-14 17:22:24 +0000";
layers = (
{
anchors = (
{
name = bottom;
position = "{558, 0}";
},
{
name = top;
position = "{558, 705}";
}
);
background = {
paths = (
{
closed = 1;
nodes = (
"396 0 LINE",
"571 492 LINE",
"548 492 LINE",
"719 0 LINE",
"848 0 LINE",
"1099 705 LINE",
"946 705 LINE",
"765 167 LINE",
"798 167 LINE",
"618 705 LINE",
"508 705 LINE",
"319 167 LINE",
"356 167 LINE",
"179 705 LINE",
"17 705 LINE",
"267 0 LINE"
);
}
);
};
layerId = "E1B555A7-F4E1-459C-9C1A-AE952106EEF9";
paths = (
{
closed = 1;
nodes = (
"396 0 LINE",
"571 492 LINE",
"547 492 LINE",
"719 0 LINE",
"848 0 LINE",
"1099 705 LINE",
"946 705 LINE",
"764 167 LINE",
"799 167 LINE",
"619 705 LINE",
"507 705 LINE",
"318 167 LINE",
"358 167 LINE",
"180 705 LINE",
"17 705 LINE",
"267 0 LINE"
);
}
);
width = 1116;
}
);
leftKerningGroup = V;
rightKerningGroup = V;
unicode = 0057;
userData = {
anchors = (
);
b = {
};
com.typemytype.robofont.layerData = {
b = {
anchors = (
);
components = (
);
contours = (
);
lib = {
};
name = W;
unicodes = (
);
width = 2126;
};
};
components = (
);
contours = (
);
lib = {
};
name = W;
unicodes = (
);
width = 2070;
};
},
{
glyphname = X;
lastChange = "2017-11-14 17:22:24 +0000";
layers = (
{
anchors = (
{
name = bottom;
position = "{339, 0}";
},
{
name = top;
position = "{338, 705}";
}
);
background = {
paths = (
{
closed = 1;
nodes = (
"1138 236 LINE",
"1232 357 LINE",
"1496 705 LINE",
"1305 705 LINE",
"1138 477 LINE",
"1045 357 LINE",
"774 0 LINE",
"965 0 LINE"
);
},
{
closed = 1;
nodes = (
"1502 0 LINE",
"1232 357 LINE",
"1138 477 LINE",
"972 705 LINE",
"781 705 LINE",
"1045 357 LINE",
"1138 236 LINE",
"1310 0 LINE"
);
},
{
closed = 1;
nodes = (
"692 705 LINE",
"505 705 LINE",
"-22 0 LINE",
"165 0 LINE"
);
},
{
closed = 1;
nodes = (
"698 0 LINE",
"172 705 LINE",
"-15 705 LINE",
"510 0 LINE"
);
}
);
};
layerId = "E1B555A7-F4E1-459C-9C1A-AE952106EEF9";
paths = (
{
closed = 1;
nodes = (
"338 239 LINE",
"429 357 LINE",
"692 705 LINE",
"505 705 LINE",
"338 474 LINE",
"247 357 LINE",
"-22 0 LINE",
"165 0 LINE"
);
},
{
closed = 1;
nodes = (
"698 0 LINE",
"429 357 LINE",
"338 474 LINE",
"172 705 LINE",
"-15 705 LINE",
"247 357 LINE",
"338 239 LINE",
"510 0 LINE"
);
}
);
width = 677;
}
);
leftKerningGroup = X;
rightKerningGroup = X;
unicode = 0058;
userData = {
anchors = (
);
b = {
};
com.typemytype.robofont.layerData = {
b = {
anchors = (
);
components = (
);
contours = (
{
points = (
{
segmentType = curve;
smooth = 1;
x = 151;
y = 0;
},
{
smooth = 0;
x = 176;
y = 0;
},
{
smooth = 0;
x = 201;
y = 12;
},
{
segmentType = curve;
smooth = 1;
x = 222;
y = 41;
},
{
segmentType = line;
smooth = 0;
x = 641;
y = 616;
},
{
segmentType = line;
smooth = 0;
x = 746;
y = 734;
},
{
segmentType = line;
smooth = 1;
x = 1175;
y = 1310;
},
{
smooth = 0;
x = 1186;
y = 1325;
},
{
smooth = 0;
x = 1190;
y = 1338;
},
{
segmentType = curve;
smooth = 1;
x = 1190;
y = 1353;
},
{
smooth = 0;
x = 1190;
y = 1393;
},
{
smooth = 0;
x = 1153;
y = 1426;
},
{
segmentType = curve;
smooth = 1;
x = 1110;
y = 1426;
},
{
smooth = 0;
x = 1083;
y = 1426;
},
{
smooth = 0;
x = 1058;
y = 1414;
},
{
segmentType = curve;
smooth = 1;
x = 1037;
y = 1385;
},
{
segmentType = line;
smooth = 0;
x = 648;
y = 844;
},
{
segmentType = line;
smooth = 0;
x = 542;
y = 732;
},
{
segmentType = line;
smooth = 1;
x = 84;
y = 121;
},
{
smooth = 0;
x = 73;
y = 106;
},
{
smooth = 0;
x = 68;
y = 91;
},
{
segmentType = curve;
smooth = 1;
x = 68;
y = 76;
},
{
smooth = 0;
x = 68;
y = 35;
},
{
smooth = 0;
x = 108;
y = 0;
}
);
},
{
points = (
{
segmentType = curve;
smooth = 1;
x = 1104;
y = 0;
},
{
smooth = 0;
x = 1151;
y = 0;
},
{
smooth = 0;
x = 1200;
y = 40;
},
{
segmentType = curve;
smooth = 1;
x = 1200;
y = 85;
},
{
smooth = 0;
x = 1200;
y = 98;
},
{
smooth = 0;
x = 1195;
y = 113;
},
{
segmentType = curve;
smooth = 0;
x = 1186;
y = 126;
},
{
segmentType = line;
smooth = 0;
x = 272;
y = 1385;
},
{
smooth = 0;
x = 252;
y = 1414;
},
{
smooth = 0;
x = 225;
y = 1426;
},
{
segmentType = curve;
smooth = 1;
x = 197;
y = 1426;
},
{
smooth = 0;
x = 149;
y = 1426;
},
{
smooth = 0;
x = 100;
y = 1388;
},
{
segmentType = curve;
smooth = 1;
x = 100;
y = 1343;
},
{
smooth = 0;
x = 100;
y = 1328;
},
{
smooth = 0;
x = 105;
y = 1315;
},
{
segmentType = curve;
smooth = 0;
x = 114;
y = 1303;
},
{
segmentType = line;
smooth = 0;
x = 1033;
y = 40;
},
{
smooth = 0;
x = 1052;
y = 13;
},
{
smooth = 0;
x = 1076;
y = 0;
}
);
}
);
lib = {
};
name = X;
unicodes = (
);
width = 1274;
};
};
components = (
);
contours = (
);
lib = {
};
name = X;
unicodes = (
);
width = 1322;
};
},
{
glyphname = Y;
lastChange = "2017-11-14 17:22:24 +0000";
layers = (
{
anchors = (
{
name = bottom;
position = "{320, 0}";
},
{
name = top;
position = "{319, 705}";
},
{
name = topleft;
position = "{19, 705}";
}
);
background = {
anchors = (
{
name = bottom;
position = "{320, 0}";
},
{
name = top;
position = "{319, 705}";
},
{
name = topleft;
position = "{19, 705}";
}
);
paths = (
{
closed = 1;
nodes = (
"364 -6 OFFCURVE",
"400 20 OFFCURVE",
"400 74 CURVE SMOOTH",
"400 382 LINE",
"367 293 LINE",
"617 589 LINE SMOOTH",
"681 663 OFFCURVE",
"570 758 OFFCURVE",
"508 684 CURVE SMOOTH",
"303 435 LINE",
"336 435 LINE",
"131 684 LINE SMOOTH",
"69 758 OFFCURVE",
"-42 663 OFFCURVE",
"23 589 CURVE SMOOTH",
"272 293 LINE",
"239 382 LINE",
"239 74 LINE SMOOTH",
"239 20 OFFCURVE",
"275 -6 OFFCURVE",
"320 -6 CURVE SMOOTH"
);
}
);
};
layerId = "E1B555A7-F4E1-459C-9C1A-AE952106EEF9";
paths = (
{
closed = 1;
nodes = (
"400 0 LINE",
"400 367 LINE",
"367 275 LINE",
"693 705 LINE",
"510 705 LINE",
"302 424 LINE",
"335 424 LINE",
"129 705 LINE",
"-53 705 LINE",
"272 275 LINE",
"239 367 LINE",
"239 0 LINE"
);
}
);
width = 639;
}
);
leftKerningGroup = Y;
rightKerningGroup = Y;
unicode = 0059;
userData = {
anchors = (
);
b = {
};
com.typemytype.robofont.guides = (
);
com.typemytype.robofont.layerData = {
b = {
anchors = (
);
components = (
);
contours = (
{
points = (
{
segmentType = curve;
smooth = 1;
x = 641;
y = 0;
},
{
smooth = 0;
x = 685;
y = 0;
},
{
smooth = 0;
x = 730;
y = 29;
},
{
segmentType = curve;
smooth = 1;
x = 730;
y = 85;
},
{
segmentType = line;
smooth = 0;
x = 730;
y = 1285;
},
{
segmentType = line;
smooth = 1;
x = 1115;
y = 1285;
},
{
smooth = 0;
x = 1164;
y = 1285;
},
{
smooth = 0;
x = 1190;
y = 1319;
},
{
segmentType = curve;
smooth = 1;
x = 1190;
y = 1355;
},
{
smooth = 0;
x = 1190;
y = 1392;
},
{
smooth = 0;
x = 1166;
y = 1426;
},
{
segmentType = curve;
smooth = 1;
x = 1115;
y = 1426;
},
{
segmentType = line;
smooth = 1;
x = 160;
y = 1426;
},
{
smooth = 0;
x = 111;
y = 1426;
},
{
smooth = 0;
x = 86;
y = 1392;
},
{
segmentType = curve;
smooth = 1;
x = 86;
y = 1355;
},
{
smooth = 0;
x = 86;
y = 1319;
},
{
smooth = 0;
x = 111;
y = 1285;
},
{
segmentType = curve;
smooth = 1;
x = 160;
y = 1285;
},
{
segmentType = line;
smooth = 0;
x = 552;
y = 1285;
},
{
segmentType = line;
smooth = 1;
x = 552;
y = 85;
},
{
smooth = 0;
x = 552;
y = 29;
},
{
smooth = 0;
x = 596;
y = 0;
}
);
}
);
lib = {
};
name = Y;
unicodes = (
);
width = 1278;
};
};
components = (
);
contours = (
);
lib = {
};
name = Y;
unicodes = (
);
width = 1321;
};
},
{
glyphname = Z;
lastChange = "2017-11-14 17:22:24 +0000";
layers = (
{
anchors = (
{
name = bottom;
position = "{303, 0}";
},
{
name = top;
position = "{307, 705}";
}
);
background = {
anchors = (
{
name = bottom;
position = "{303, 0}";
},
{
name = top;
position = "{307, 705}";
}
);
paths = (
{
closed = 1;
nodes = (
"516 0 LINE SMOOTH",
"567 0 OFFCURVE",
"592 20 OFFCURVE",
"592 64 CURVE SMOOTH",
"592 107 OFFCURVE",
"567 127 OFFCURVE",
"516 127 CURVE SMOOTH",
"199 127 LINE",
"197 83 LINE",
"558 580 LINE SMOOTH",
"600 638 OFFCURVE",
"574 705 OFFCURVE",
"508 705 CURVE SMOOTH",
"112 705 LINE SMOOTH",
"61 705 OFFCURVE",
"36 685 OFFCURVE",
"36 641 CURVE SMOOTH",
"36 598 OFFCURVE",
"61 578 OFFCURVE",
"112 578 CURVE SMOOTH",
"414 578 LINE",
"416 622 LINE",
"55 125 LINE SMOOTH",
"13 67 OFFCURVE",
"40 0 OFFCURVE",
"105 0 CURVE SMOOTH"
);
}
);
};
layerId = "E1B555A7-F4E1-459C-9C1A-AE952106EEF9";
paths = (
{
closed = 1;
nodes = (
"576 0 LINE",
"576 127 LINE",
"199 127 LINE",
"197 83 LINE",
"565 589 LINE",
"565 705 LINE",
"50 705 LINE",
"50 578 LINE",
"415 578 LINE",
"416 622 LINE",
"50 118 LINE",
"50 0 LINE"
);
}
);
width = 611;
}
);
leftKerningGroup = Z;
rightKerningGroup = Z;
unicode = 005A;
userData = {
anchors = (
);
b = {
};
com.typemytype.robofont.layerData = {
b = {
anchors = (
);
components = (
);
contours = (
{
points = (
{
segmentType = curve;
smooth = 1;
x = 266;
y = 0;
},
{
segmentType = line;
smooth = 1;
x = 1035;
y = 0;
},
{
smooth = 0;
x = 1084;
y = 0;
},
{
smooth = 0;
x = 1108;
y = 34;
},
{
segmentType = curve;
smooth = 1;
x = 1108;
y = 71;
},
{
smooth = 0;
x = 1108;
y = 107;
},
{
smooth = 0;
x = 1084;
y = 141;
},
{
segmentType = curve;
smooth = 1;
x = 1035;
y = 141;
},
{
segmentType = line;
smooth = 0;
x = 356;
y = 141;
},
{
segmentType = line;
smooth = 0;
x = 356;
y = 665;
},
{
segmentType = line;
smooth = 1;
x = 975;
y = 665;
},
{
smooth = 0;
x = 1024;
y = 665;
},
{
smooth = 0;
x = 1049;
y = 698;
},
{
segmentType = curve;
smooth = 1;
x = 1049;
y = 734;
},
{
smooth = 0;
x = 1049;
y = 770;
},
{
smooth = 0;
x = 1026;
y = 803;
},
{
segmentType = curve;
smooth = 1;
x = 975;
y = 803;
},
{
segmentType = line;
smooth = 0;
x = 356;
y = 803;
},
{
segmentType = line;
smooth = 0;
x = 356;
y = 1285;
},
{
segmentType = line;
smooth = 1;
x = 1007;
y = 1285;
},
{
smooth = 0;
x = 1056;
y = 1285;
},
{
smooth = 0;
x = 1080;
y = 1319;
},
{
segmentType = curve;
smooth = 1;
x = 1080;
y = 1356;
},
{
smooth = 0;
x = 1080;
y = 1392;
},
{
smooth = 0;
x = 1056;
y = 1426;
},
{
segmentType = curve;
smooth = 1;
x = 1007;
y = 1426;
},
{
segmentType = line;
smooth = 1;
x = 261;
y = 1426;
},
{
smooth = 0;
x = 213;
y = 1426;
},
{
smooth = 0;
x = 178;
y = 1383;
},
{
segmentType = curve;
smooth = 1;
x = 178;
y = 1340;
},
{
segmentType = line;
smooth = 1;
x = 178;
y = 86;
},
{
smooth = 0;
x = 178;
y = 41;
},
{
smooth = 0;
x = 222;
y = 0;
}
);
}
);
lib = {
};
name = Z;
unicodes = (
);
width = 1165;
};
};
components = (
);
contours = (
);
lib = {
};
name = Z;
unicodes = (
);
width = 1222;
};
},
{
glyphname = a;
lastChange = "2017-11-14 17:22:24 +0000";
layers = (
{
anchors = (
{
name = bottom;
position = "{275, 0}";
},
{
name = ogonek;
position = "{469, 10}";
},
{
name = top;
position = "{279, 495}";
}
);
background = {
anchors = (
{
name = bottom;
position = "{275, 0}";
},
{
name = ogonek;
position = "{469, 10}";
},
{
name = top;
position = "{279, 495}";
}
);
paths = (
{
closed = 1;
nodes = (
"289 -8 OFFCURVE",
"342 33 OFFCURVE",
"354 98 CURVE",
"346 101 LINE",
"346 66 LINE SMOOTH",
"346 23 OFFCURVE",
"376 -6 OFFCURVE",
"419 -6 CURVE SMOOTH",
"466 -6 OFFCURVE",
"493 21 OFFCURVE",
"493 66 CURVE SMOOTH",
"493 289 LINE SMOOTH",
"493 433 OFFCURVE",
"425 503 OFFCURVE",
"279 503 CURVE SMOOTH",
"214 503 OFFCURVE",
"140 487 OFFCURVE",
"93 462 CURVE SMOOTH",
"67 448 OFFCURVE",
"55 432 OFFCURVE",
"55 405 CURVE SMOOTH",
"55 370 OFFCURVE",
"75 347 OFFCURVE",
"104 347 CURVE SMOOTH",
"114 347 OFFCURVE",
"126 350 OFFCURVE",
"143 357 CURVE",
"199 378 OFFCURVE",
"236 387 OFFCURVE",
"267 387 CURVE SMOOTH",
"323 387 OFFCURVE",
"345 364 OFFCURVE",
"345 310 CURVE SMOOTH",
"345 202 LINE SMOOTH",
"345 141 OFFCURVE",
"306 99 OFFCURVE",
"250 99 CURVE SMOOTH",
"214 99 OFFCURVE",
"187 124 OFFCURVE",
"187 160 CURVE SMOOTH",
"187 203 OFFCURVE",
"224 218 OFFCURVE",
"328 218 CURVE SMOOTH",
"361 218 LINE",
"361 293 LINE",
"319 293 LINE SMOOTH",
"112 293 OFFCURVE",
"37 255 OFFCURVE",
"37 149 CURVE SMOOTH",
"37 58 OFFCURVE",
"114 -8 OFFCURVE",
"215 -8 CURVE SMOOTH"
);
}
);
};
layerId = "E1B555A7-F4E1-459C-9C1A-AE952106EEF9";
paths = (
{
closed = 1;
nodes = (
"289 -8 OFFCURVE",
"342 33 OFFCURVE",
"354 100 CURVE",
"346 100 LINE",
"346 0 LINE",
"493 0 LINE",
"493 289 LINE SMOOTH",
"493 435 OFFCURVE",
"424 503 OFFCURVE",
"276 503 CURVE SMOOTH",
"205 503 OFFCURVE",
"113 477 OFFCURVE",
"57 442 CURVE",
"98 338 LINE",
"150 368 OFFCURVE",
"213 387 OFFCURVE",
"261 387 CURVE SMOOTH",
"322 387 OFFCURVE",
"345 367 OFFCURVE",
"345 310 CURVE SMOOTH",
"345 202 LINE SMOOTH",
"345 141 OFFCURVE",
"306 99 OFFCURVE",
"250 99 CURVE SMOOTH",
"213 99 OFFCURVE",
"187 125 OFFCURVE",
"187 160 CURVE SMOOTH",
"187 203 OFFCURVE",
"224 218 OFFCURVE",
"328 218 CURVE SMOOTH",
"361 218 LINE",
"361 293 LINE",
"319 293 LINE SMOOTH",
"112 293 OFFCURVE",
"37 255 OFFCURVE",
"37 149 CURVE SMOOTH",
"37 58 OFFCURVE",
"114 -8 OFFCURVE",
"215 -8 CURVE SMOOTH"
);
}
);
width = 547;
}
);
leftKerningGroup = a;
rightKerningGroup = n;
unicode = 0061;
userData = {
anchors = (
);
b = {
};
com.typemytype.robofont.layerData = {
b = {
anchors = (
);
components = (
);
contours = (
);
lib = {
};
name = a;
unicodes = (
);
width = 1040;
};
};
components = (
);
contours = (
);
lib = {
};
name = a;
unicodes = (
);
width = 1101;
};
},
{
glyphname = aogonek;
lastChange = "2017-11-14 17:22:24 +0000";
layers = (
{
background = {
paths = (
{
closed = 1;
nodes = (
"463 -197 OFFCURVE",
"491 -190 OFFCURVE",
"518 -174 CURVE SMOOTH",
"551 -155 OFFCURVE",
"536 -98 OFFCURVE",
"500 -109 CURVE SMOOTH",
"475 -115 OFFCURVE",
"466 -117 OFFCURVE",
"452 -117 CURVE SMOOTH",
"421 -117 OFFCURVE",
"400 -96 OFFCURVE",
"400 -64 CURVE SMOOTH",
"400 -36 OFFCURVE",
"418 -17 OFFCURVE",
"457 2 CURVE SMOOTH",
"481 13 OFFCURVE",
"493 35 OFFCURVE",
"493 66 CURVE SMOOTH",
"493 289 LINE SMOOTH",
"493 433 OFFCURVE",
"425 503 OFFCURVE",
"279 503 CURVE SMOOTH",
"214 503 OFFCURVE",
"140 487 OFFCURVE",
"93 462 CURVE SMOOTH",
"67 448 OFFCURVE",
"55 432 OFFCURVE",
"55 405 CURVE SMOOTH",
"55 370 OFFCURVE",
"75 347 OFFCURVE",
"104 347 CURVE SMOOTH",
"114 347 OFFCURVE",
"126 350 OFFCURVE",
"143 357 CURVE",
"199 378 OFFCURVE",
"236 387 OFFCURVE",
"267 387 CURVE SMOOTH",
"323 387 OFFCURVE",
"345 364 OFFCURVE",
"345 310 CURVE SMOOTH",
"345 202 LINE SMOOTH",
"345 141 OFFCURVE",
"306 99 OFFCURVE",
"250 99 CURVE SMOOTH",
"214 99 OFFCURVE",
"187 124 OFFCURVE",
"187 160 CURVE SMOOTH",
"187 202 OFFCURVE",
"224 218 OFFCURVE",
"328 218 CURVE SMOOTH",
"361 218 LINE",
"361 293 LINE",
"319 293 LINE SMOOTH",
"112 293 OFFCURVE",
"37 254 OFFCURVE",
"37 149 CURVE SMOOTH",
"37 58 OFFCURVE",
"114 -8 OFFCURVE",
"217 -8 CURVE SMOOTH",
"289 -8 OFFCURVE",
"342 33 OFFCURVE",
"354 98 CURVE",
"346 101 LINE",
"346 66 LINE SMOOTH",
"346 38 OFFCURVE",
"359 15 OFFCURVE",
"382 2 CURVE",
"395 37 LINE",
"335 13 OFFCURVE",
"301 -31 OFFCURVE",
"301 -84 CURVE SMOOTH",
"301 -151 OFFCURVE",
"353 -197 OFFCURVE",
"429 -197 CURVE SMOOTH"
);
}
);
};
layerId = "E1B555A7-F4E1-459C-9C1A-AE952106EEF9";
paths = (
{
closed = 1;
nodes = (
"465 -197 OFFCURVE",
"500 -190 OFFCURVE",
"530 -177 CURVE",
"513 -105 LINE",
"494 -113 OFFCURVE",
"476 -117 OFFCURVE",
"459 -117 CURVE SMOOTH",
"421 -117 OFFCURVE",
"400 -99 OFFCURVE",
"400 -64 CURVE SMOOTH",
"400 -26 OFFCURVE",
"434 0 OFFCURVE",
"483 0 CURVE SMOOTH",
"493 0 LINE",
"493 289 LINE SMOOTH",
"493 435 OFFCURVE",
"424 503 OFFCURVE",
"276 503 CURVE SMOOTH",
"205 503 OFFCURVE",
"113 477 OFFCURVE",
"57 442 CURVE",
"98 338 LINE",
"150 368 OFFCURVE",
"213 387 OFFCURVE",
"261 387 CURVE SMOOTH",
"322 387 OFFCURVE",
"345 367 OFFCURVE",
"345 310 CURVE SMOOTH",
"345 202 LINE SMOOTH",
"345 141 OFFCURVE",
"306 99 OFFCURVE",
"250 99 CURVE SMOOTH",
"214 99 OFFCURVE",
"187 124 OFFCURVE",
"187 160 CURVE SMOOTH",
"187 202 OFFCURVE",
"224 218 OFFCURVE",
"328 218 CURVE SMOOTH",
"361 218 LINE",
"361 293 LINE",
"319 293 LINE SMOOTH",
"112 293 OFFCURVE",
"37 254 OFFCURVE",
"37 149 CURVE SMOOTH",
"37 58 OFFCURVE",
"114 -8 OFFCURVE",
"217 -8 CURVE SMOOTH",
"289 -8 OFFCURVE",
"342 33 OFFCURVE",
"354 100 CURVE",
"346 100 LINE",
"346 0 LINE",
"382 0 LINE",
"395 37 LINE",
"335 13 OFFCURVE",
"301 -31 OFFCURVE",
"301 -85 CURVE SMOOTH",
"301 -151 OFFCURVE",
"354 -197 OFFCURVE",
"429 -197 CURVE SMOOTH"
);
}
);
width = 547;
}
);
leftKerningGroup = a;
rightKerningGroup = n;
unicode = 0105;
userData = {
com.typemytype.robofont.layerData = {
b = {
anchors = (
);
components = (
);
contours = (
);
lib = {
};
name = aogonek;
unicodes = (
);
width = 1040;
};
};
};
},
{
glyphname = aringacute;
lastChange = "2017-11-14 17:22:24 +0000";
layers = (
{
background = {
paths = (
{
closed = 1;
nodes = (
"289 -8 OFFCURVE",
"342 33 OFFCURVE",
"354 98 CURVE",
"346 101 LINE",
"346 66 LINE SMOOTH",
"346 23 OFFCURVE",
"376 -6 OFFCURVE",
"419 -6 CURVE SMOOTH",
"466 -6 OFFCURVE",
"493 21 OFFCURVE",
"493 66 CURVE SMOOTH",
"493 289 LINE SMOOTH",
"493 433 OFFCURVE",
"425 503 OFFCURVE",
"279 503 CURVE SMOOTH",
"214 503 OFFCURVE",
"140 487 OFFCURVE",
"93 462 CURVE SMOOTH",
"67 448 OFFCURVE",
"55 432 OFFCURVE",
"55 405 CURVE SMOOTH",
"55 370 OFFCURVE",
"75 347 OFFCURVE",
"104 347 CURVE SMOOTH",
"114 347 OFFCURVE",
"126 350 OFFCURVE",
"143 357 CURVE",
"199 378 OFFCURVE",
"236 387 OFFCURVE",
"267 387 CURVE SMOOTH",
"323 387 OFFCURVE",
"345 364 OFFCURVE",
"345 310 CURVE SMOOTH",
"345 202 LINE SMOOTH",
"345 141 OFFCURVE",
"306 99 OFFCURVE",
"250 99 CURVE SMOOTH",
"214 99 OFFCURVE",
"187 124 OFFCURVE",
"187 160 CURVE SMOOTH",
"187 203 OFFCURVE",
"224 218 OFFCURVE",
"328 218 CURVE SMOOTH",
"361 218 LINE",
"361 293 LINE",
"319 293 LINE SMOOTH",
"112 293 OFFCURVE",
"37 255 OFFCURVE",
"37 149 CURVE SMOOTH",
"37 58 OFFCURVE",
"114 -8 OFFCURVE",
"215 -8 CURVE SMOOTH"
);
},
{
closed = 1;
nodes = (
"340 550 OFFCURVE",
"389 597 OFFCURVE",
"389 658 CURVE SMOOTH",
"389 719 OFFCURVE",
"340 766 OFFCURVE",
"279 766 CURVE SMOOTH",
"218 766 OFFCURVE",
"169 719 OFFCURVE",
"169 658 CURVE SMOOTH",
"169 597 OFFCURVE",
"218 550 OFFCURVE",
"279 550 CURVE SMOOTH"
);
},
{
closed = 1;
nodes = (
"254 613 OFFCURVE",
"236 633 OFFCURVE",
"236 658 CURVE SMOOTH",
"236 683 OFFCURVE",
"254 703 OFFCURVE",
"279 703 CURVE SMOOTH",
"304 703 OFFCURVE",
"322 683 OFFCURVE",
"322 658 CURVE SMOOTH",
"322 633 OFFCURVE",
"304 613 OFFCURVE",
"279 613 CURVE SMOOTH"
);
},
{
closed = 1;
nodes = (
"476 749 LINE SMOOTH",
"569 793 OFFCURVE",
"483 908 OFFCURVE",
"410 836 CURVE SMOOTH",
"325 753 LINE SMOOTH",
"292 721 OFFCURVE",
"328 679 OFFCURVE",
"367 697 CURVE SMOOTH"
);
}
);
};
layerId = "E1B555A7-F4E1-459C-9C1A-AE952106EEF9";
paths = (
{
closed = 1;
nodes = (
"289 -8 OFFCURVE",
"342 33 OFFCURVE",
"354 100 CURVE",
"346 100 LINE",
"346 0 LINE",
"493 0 LINE",
"493 289 LINE SMOOTH",
"493 435 OFFCURVE",
"424 503 OFFCURVE",
"276 503 CURVE SMOOTH",
"205 503 OFFCURVE",
"113 477 OFFCURVE",
"57 442 CURVE",
"98 338 LINE",
"150 368 OFFCURVE",
"213 387 OFFCURVE",
"261 387 CURVE SMOOTH",
"322 387 OFFCURVE",
"345 367 OFFCURVE",
"345 310 CURVE SMOOTH",
"345 202 LINE SMOOTH",
"345 141 OFFCURVE",
"306 99 OFFCURVE",
"250 99 CURVE SMOOTH",
"213 99 OFFCURVE",
"187 125 OFFCURVE",
"187 160 CURVE SMOOTH",
"187 203 OFFCURVE",
"224 218 OFFCURVE",
"328 218 CURVE SMOOTH",
"361 218 LINE",
"361 293 LINE",
"319 293 LINE SMOOTH",
"112 293 OFFCURVE",
"37 255 OFFCURVE",
"37 149 CURVE SMOOTH",
"37 58 OFFCURVE",
"114 -8 OFFCURVE",
"215 -8 CURVE SMOOTH"
);
},
{
closed = 1;
nodes = (
"340 550 OFFCURVE",
"389 597 OFFCURVE",
"389 658 CURVE SMOOTH",
"389 719 OFFCURVE",
"340 766 OFFCURVE",
"279 766 CURVE SMOOTH",
"218 766 OFFCURVE",
"169 719 OFFCURVE",
"169 658 CURVE SMOOTH",
"169 597 OFFCURVE",
"218 550 OFFCURVE",
"279 550 CURVE SMOOTH"
);
},
{
closed = 1;
nodes = (
"254 613 OFFCURVE",
"236 633 OFFCURVE",
"236 658 CURVE SMOOTH",
"236 683 OFFCURVE",
"254 703 OFFCURVE",
"279 703 CURVE SMOOTH",
"304 703 OFFCURVE",
"322 683 OFFCURVE",
"322 658 CURVE SMOOTH",
"322 633 OFFCURVE",
"304 613 OFFCURVE",
"279 613 CURVE SMOOTH"
);
},
{
closed = 1;
nodes = (
"372 694 LINE",
"531 854 LINE",
"388 854 LINE",
"309 739 LINE"
);
}
);
width = 547;
}
);
leftKerningGroup = a;
rightKerningGroup = n;
unicode = 01FB;
},
{
glyphname = ae;
lastChange = "2017-11-14 17:22:24 +0000";
layers = (
{
anchors = (
{
name = bottom;
position = "{417, 0}";
},
{
name = top;
position = "{417, 495}";
}
);
background = {
anchors = (
{
name = bottom;
position = "{417, 0}";
},
{
name = top;
position = "{417, 495}";
}
);
paths = (
{
closed = 1;
nodes = (
"653 -8 OFFCURVE",
"719 9 OFFCURVE",
"763 33 CURVE SMOOTH",
"787 46 OFFCURVE",
"801 66 OFFCURVE",
"801 90 CURVE SMOOTH",
"801 125 OFFCURVE",
"782 148 OFFCURVE",
"755 148 CURVE SMOOTH",
"718 148 OFFCURVE",
"675 108 OFFCURVE",
"606 108 CURVE SMOOTH",
"525 108 OFFCURVE",
"491 155 OFFCURVE",
"491 263 CURVE SMOOTH",
"491 349 OFFCURVE",
"526 396 OFFCURVE",
"589 396 CURVE SMOOTH",
"643 396 OFFCURVE",
"673 354 OFFCURVE",
"673 278 CURVE",
"711 293 LINE",
"481 293 LINE",
"480 216 LINE",
"764 216 LINE SMOOTH",
"790 216 OFFCURVE",
"804 232 OFFCURVE",
"804 262 CURVE SMOOTH",
"804 406 OFFCURVE",
"718 503 OFFCURVE",
"592 503 CURVE SMOOTH",
"455 503 OFFCURVE",
"363 400 OFFCURVE",
"363 247 CURVE SMOOTH",
"363 84 OFFCURVE",
"450 -8 OFFCURVE",
"603 -8 CURVE SMOOTH"
);
},
{
closed = 1;
nodes = (
"348 -8 OFFCURVE",
"425 65 OFFCURVE",
"425 193 CURVE",
"475 202 LINE",
"475 289 LINE SMOOTH",
"475 436 OFFCURVE",
"412 503 OFFCURVE",
"275 503 CURVE SMOOTH",
"207 503 OFFCURVE",
"140 488 OFFCURVE",
"93 462 CURVE SMOOTH",
"68 448 OFFCURVE",
"55 429 OFFCURVE",
"55 405 CURVE SMOOTH",
"55 370 OFFCURVE",
"74 347 OFFCURVE",
"101 347 CURVE SMOOTH",
"140 347 OFFCURVE",
"177 387 OFFCURVE",
"266 387 CURVE SMOOTH",
"320 387 OFFCURVE",
"343 364 OFFCURVE",
"343 310 CURVE SMOOTH",
"343 202 LINE SMOOTH",
"343 144 OFFCURVE",
"305 99 OFFCURVE",
"255 99 CURVE SMOOTH",
"215 99 OFFCURVE",
"187 123 OFFCURVE",
"187 160 CURVE SMOOTH",
"187 203 OFFCURVE",
"224 218 OFFCURVE",
"326 218 CURVE SMOOTH",
"349 218 LINE",
"349 293 LINE",
"317 293 LINE SMOOTH",
"112 293 OFFCURVE",
"37 255 OFFCURVE",
"37 149 CURVE SMOOTH",
"37 57 OFFCURVE",
"120 -8 OFFCURVE",
"234 -8 CURVE SMOOTH"
);
}
);
};
layerId = "E1B555A7-F4E1-459C-9C1A-AE952106EEF9";
paths = (
{
closed = 1;
nodes = (
"674 -8 OFFCURVE",
"748 15 OFFCURVE",
"796 52 CURVE",
"755 156 LINE",
"712 125 OFFCURVE",
"660 108 OFFCURVE",
"606 108 CURVE SMOOTH",
"525 108 OFFCURVE",
"491 153 OFFCURVE",
"491 263 CURVE SMOOTH",
"491 349 OFFCURVE",
"526 396 OFFCURVE",
"589 396 CURVE SMOOTH",
"643 396 OFFCURVE",
"673 354 OFFCURVE",
"673 278 CURVE",
"711 293 LINE",
"481 293 LINE",
"480 216 LINE",
"804 216 LINE",
"804 254 LINE SMOOTH",
"804 403 OFFCURVE",
"718 503 OFFCURVE",
"592 503 CURVE SMOOTH",
"455 503 OFFCURVE",
"363 400 OFFCURVE",
"363 247 CURVE SMOOTH",
"363 84 OFFCURVE",
"451 -8 OFFCURVE",
"605 -8 CURVE SMOOTH"
);
},
{
closed = 1;
nodes = (
"348 -8 OFFCURVE",
"425 65 OFFCURVE",
"425 193 CURVE",
"475 202 LINE",
"475 289 LINE SMOOTH",
"475 436 OFFCURVE",
"412 503 OFFCURVE",
"275 503 CURVE SMOOTH",
"204 503 OFFCURVE",
"112 477 OFFCURVE",
"57 442 CURVE",
"98 338 LINE",
"150 369 OFFCURVE",
"213 387 OFFCURVE",
"266 387 CURVE SMOOTH",
"320 387 OFFCURVE",
"343 364 OFFCURVE",
"343 310 CURVE SMOOTH",
"343 202 LINE SMOOTH",
"343 144 OFFCURVE",
"305 99 OFFCURVE",
"255 99 CURVE SMOOTH",
"215 99 OFFCURVE",
"187 123 OFFCURVE",
"187 160 CURVE SMOOTH",
"187 202 OFFCURVE",
"224 218 OFFCURVE",
"326 218 CURVE SMOOTH",
"349 218 LINE",
"349 293 LINE",
"317 293 LINE SMOOTH",
"112 293 OFFCURVE",
"37 255 OFFCURVE",
"37 149 CURVE SMOOTH",
"37 57 OFFCURVE",
"120 -8 OFFCURVE",
"234 -8 CURVE SMOOTH"
);
}
);
width = 836;
}
);
leftKerningGroup = a;
rightKerningGroup = e;
unicode = 00E6;
userData = {
com.typemytype.robofont.layerData = {
b = {
anchors = (
);
components = (
);
contours = (
);
lib = {
};
name = ae;
unicodes = (
);
width = 1734;
};
};
};
},
{
glyphname = b;
lastChange = "2017-11-14 17:22:24 +0000";
layers = (
{
anchors = (
{
name = bottom;
position = "{308, 0}";
},
{
name = top;
position = "{365, 495}";
}
);
background = {
anchors = (
{
name = bottom;
position = "{308, 0}";
},
{
name = top;
position = "{365, 495}";
}
);
paths = (
{
closed = 1;
nodes = (
"492 -8 OFFCURVE",
"582 96 OFFCURVE",
"582 250 CURVE SMOOTH",
"582 404 OFFCURVE",
"493 503 OFFCURVE",
"365 503 CURVE SMOOTH",
"287 503 OFFCURVE",
"222 463 OFFCURVE",
"200 399 CURVE",
"213 380 LINE",
"213 642 LINE SMOOTH",
"213 683 OFFCURVE",
"183 710 OFFCURVE",
"137 710 CURVE SMOOTH",
"89 710 OFFCURVE",
"57 681 OFFCURVE",
"57 639 CURVE SMOOTH",
"57 67 LINE SMOOTH",
"57 23 OFFCURVE",
"87 -6 OFFCURVE",
"134 -6 CURVE SMOOTH",
"181 -6 OFFCURVE",
"211 23 OFFCURVE",
"211 67 CURVE SMOOTH",
"211 118 LINE",
"200 96 LINE",
"222 32 OFFCURVE",
"287 -8 OFFCURVE",
"365 -8 CURVE SMOOTH"
);
},
{
closed = 1;
nodes = (
"250 110 OFFCURVE",
"211 159 OFFCURVE",
"211 248 CURVE SMOOTH",
"211 336 OFFCURVE",
"250 385 OFFCURVE",
"319 385 CURVE SMOOTH",
"388 385 OFFCURVE",
"427 337 OFFCURVE",
"427 250 CURVE SMOOTH",
"427 161 OFFCURVE",
"387 110 OFFCURVE",
"319 110 CURVE SMOOTH"
);
}
);
};
layerId = "E1B555A7-F4E1-459C-9C1A-AE952106EEF9";
paths = (
{
closed = 1;
nodes = (
"211 0 LINE",
"211 118 LINE",
"200 96 LINE",
"222 32 OFFCURVE",
"287 -8 OFFCURVE",
"365 -8 CURVE SMOOTH",
"492 -8 OFFCURVE",
"582 96 OFFCURVE",
"582 250 CURVE SMOOTH",
"582 404 OFFCURVE",
"493 503 OFFCURVE",
"365 503 CURVE SMOOTH",
"287 503 OFFCURVE",
"222 463 OFFCURVE",
"200 399 CURVE",
"213 380 LINE",
"213 705 LINE",
"57 705 LINE",
"57 0 LINE"
);
},
{
closed = 1;
nodes = (
"250 110 OFFCURVE",
"211 159 OFFCURVE",
"211 248 CURVE SMOOTH",
"211 336 OFFCURVE",
"250 385 OFFCURVE",
"319 385 CURVE SMOOTH",
"388 385 OFFCURVE",
"427 337 OFFCURVE",
"427 250 CURVE SMOOTH",
"427 161 OFFCURVE",
"387 110 OFFCURVE",
"319 110 CURVE SMOOTH"
);
}
);
width = 615;
}
);
leftKerningGroup = h;
rightKerningGroup = o;
unicode = 0062;
userData = {
anchors = (
);
b = {
};
com.typemytype.robofont.layerData = {
b = {
anchors = (
);
components = (
);
contours = (
{
points = (
{
segmentType = curve;
smooth = 1;
x = 238;
y = 1425;
},
{
smooth = 0;
x = 198;
y = 1425;
},
{
smooth = 0;
x = 158;
y = 1400;
},
{
segmentType = curve;
smooth = 1;
x = 158;
y = 1351;
},
{
segmentType = line;
smooth = 1;
x = 158;
y = 76;
},
{
smooth = 0;
x = 158;
y = 27;
},
{
smooth = 0;
x = 197;
y = 3;
},
{
segmentType = curve;
smooth = 1;
x = 237;
y = 3;
},
{
smooth = 0;
x = 297;
y = 3;
},
{
smooth = 0;
x = 318;
y = 38;
},
{
segmentType = curve;
smooth = 1;
x = 318;
y = 76;
},
{
segmentType = line;
smooth = 0;
x = 318;
y = 183;
},
{
smooth = 0;
x = 384;
y = 46;
},
{
smooth = 0;
x = 516;
y = "-20";
},
{
segmentType = curve;
smooth = 1;
x = 666;
y = "-20";
},
{
smooth = 0;
x = 957;
y = "-20";
},
{
smooth = 0;
x = 1095;
y = 225;
},
{
segmentType = curve;
smooth = 1;
x = 1095;
y = 502;
},
{
smooth = 0;
x = 1095;
y = 777;
},
{
smooth = 0;
x = 939;
y = 1013;
},
{
segmentType = curve;
smooth = 1;
x = 650;
y = 1013;
},
{
smooth = 0;
x = 503;
y = 1013;
},
{
smooth = 0;
x = 376;
y = 942;
},
{
segmentType = curve;
smooth = 0;
x = 318;
y = 814;
},
{
segmentType = line;
smooth = 1;
x = 318;
y = 1351;
},
{
smooth = 0;
x = 318;
y = 1400;
},
{
smooth = 0;
x = 278;
y = 1425;
}
);
},
{
points = (
{
segmentType = curve;
smooth = 1;
x = 632;
y = 903;
},
{
smooth = 0;
x = 859;
y = 903;
},
{
smooth = 0;
x = 935;
y = 685;
},
{
segmentType = curve;
smooth = 1;
x = 935;
y = 496;
},
{
smooth = 0;
x = 935;
y = 316;
},
{
smooth = 0;
x = 869;
y = 93;
},
{
segmentType = curve;
smooth = 0;
x = 645;
y = 90;
},
{
smooth = 0;
x = 395;
y = 90;
},
{
smooth = 0;
x = 319;
y = 279;
},
{
segmentType = curve;
smooth = 1;
x = 319;
y = 501;
},
{
smooth = 0;
x = 319;
y = 701;
},
{
smooth = 0;
x = 407;
y = 903;
}
);
}
);
lib = {
};
name = b;
unicodes = (
);
width = 1181;
};
};
components = (
);
contours = (
);
lib = {
};
name = b;
unicodes = (
);
width = 1203;
};
},
{
glyphname = c;
lastChange = "2017-11-14 17:22:24 +0000";
layers = (
{
anchors = (
{
name = bottom;
position = "{286, 0}";
},
{
name = top;
position = "{295, 495}";
}
);
background = {
paths = (
{
closed = 1;
nodes = (
"847 -8 OFFCURVE",
"905 7 OFFCURVE",
"949 34 CURVE SMOOTH",
"970 47 OFFCURVE",
"980 66 OFFCURVE",
"980 90 CURVE SMOOTH",
"980 126 OFFCURVE",
"961 151 OFFCURVE",
"934 151 CURVE SMOOTH",
"891 151 OFFCURVE",
"862 111 OFFCURVE",
"805 111 CURVE SMOOTH",
"733 111 OFFCURVE",
"693 159 OFFCURVE",
"693 248 CURVE SMOOTH",
"693 337 OFFCURVE",
"733 384 OFFCURVE",
"805 384 CURVE SMOOTH",
"862 384 OFFCURVE",
"891 344 OFFCURVE",
"934 344 CURVE SMOOTH",
"961 344 OFFCURVE",
"980 369 OFFCURVE",
"980 405 CURVE SMOOTH",
"980 429 OFFCURVE",
"970 448 OFFCURVE",
"949 461 CURVE SMOOTH",
"907 487 OFFCURVE",
"849 503 OFFCURVE",
"795 503 CURVE SMOOTH",
"639 503 OFFCURVE",
"533 400 OFFCURVE",
"533 245 CURVE SMOOTH",
"533 90 OFFCURVE",
"631 -8 OFFCURVE",
"786 -8 CURVE SMOOTH"
);
},
{
closed = 1;
nodes = (
"454 -8 OFFCURVE",
"557 91 OFFCURVE",
"557 248 CURVE SMOOTH",
"557 405 OFFCURVE",
"454 503 OFFCURVE",
"295 503 CURVE SMOOTH",
"136 503 OFFCURVE",
"33 405 OFFCURVE",
"33 248 CURVE SMOOTH",
"33 91 OFFCURVE",
"136 -8 OFFCURVE",
"295 -8 CURVE SMOOTH"
);
},
{
closed = 1;
nodes = (
"226 110 OFFCURVE",
"188 154 OFFCURVE",
"188 248 CURVE SMOOTH",
"188 342 OFFCURVE",
"226 386 OFFCURVE",
"295 386 CURVE SMOOTH",
"364 386 OFFCURVE",
"402 342 OFFCURVE",
"402 248 CURVE SMOOTH",
"402 154 OFFCURVE",
"364 110 OFFCURVE",
"295 110 CURVE SMOOTH"
);
}
);
};
layerId = "E1B555A7-F4E1-459C-9C1A-AE952106EEF9";
paths = (
{
closed = 1;
nodes = (
"369 -8 OFFCURVE",
"442 15 OFFCURVE",
"486 52 CURVE",
"445 159 LINE",
"408 129 OFFCURVE",
"358 111 OFFCURVE",
"315 111 CURVE SMOOTH",
"238 111 OFFCURVE",
"193 157 OFFCURVE",
"193 248 CURVE SMOOTH",
"193 339 OFFCURVE",
"239 384 OFFCURVE",
"315 384 CURVE SMOOTH",
"358 384 OFFCURVE",
"408 366 OFFCURVE",
"445 336 CURVE",
"486 443 LINE",
"444 480 OFFCURVE",
"371 503 OFFCURVE",
"300 503 CURVE SMOOTH",
"139 503 OFFCURVE",
"33 400 OFFCURVE",
"33 245 CURVE SMOOTH",
"33 90 OFFCURVE",
"131 -8 OFFCURVE",
"293 -8 CURVE SMOOTH"
);
}
);
width = 495;
}
);
leftKerningGroup = o;
rightKerningGroup = c;
unicode = 0063;
userData = {
anchors = (
);
b = {
};
com.typemytype.robofont.layerData = {
b = {
anchors = (
);
components = (
);
contours = (
);
lib = {
};
name = c;
unicodes = (
);
width = 956.14099;
};
};
components = (
);
contours = (
);
lib = {
};
name = c;
unicodes = (
);
width = 992;
};
},
{
glyphname = d;
lastChange = "2017-11-14 17:22:24 +0000";
layers = (
{
anchors = (
{
name = bottom;
position = "{308, 0}";
},
{
name = center;
position = "{308, 248}";
},
{
name = top;
position = "{308, 495}";
},
{
name = topright;
position = "{583, 705}";
}
);
background = {
paths = (
{
closed = 1;
nodes = (
"454 -8 OFFCURVE",
"557 91 OFFCURVE",
"557 248 CURVE SMOOTH",
"557 405 OFFCURVE",
"454 503 OFFCURVE",
"295 503 CURVE SMOOTH",
"136 503 OFFCURVE",
"33 405 OFFCURVE",
"33 248 CURVE SMOOTH",
"33 91 OFFCURVE",
"136 -8 OFFCURVE",
"295 -8 CURVE SMOOTH"
);
},
{
closed = 1;
nodes = (
"226 110 OFFCURVE",
"188 154 OFFCURVE",
"188 248 CURVE SMOOTH",
"188 342 OFFCURVE",
"226 386 OFFCURVE",
"295 386 CURVE SMOOTH",
"364 386 OFFCURVE",
"402 342 OFFCURVE",
"402 248 CURVE SMOOTH",
"402 154 OFFCURVE",
"364 110 OFFCURVE",
"295 110 CURVE SMOOTH"
);
}
);
};
layerId = "E1B555A7-F4E1-459C-9C1A-AE952106EEF9";
paths = (
{
closed = 1;
nodes = (
"558 705 LINE",
"402 705 LINE",
"402 380 LINE",
"415 399 LINE",
"393 463 OFFCURVE",
"328 503 OFFCURVE",
"250 503 CURVE SMOOTH",
"122 503 OFFCURVE",
"33 404 OFFCURVE",
"33 250 CURVE SMOOTH",
"33 96 OFFCURVE",
"123 -8 OFFCURVE",
"250 -8 CURVE SMOOTH",
"328 -8 OFFCURVE",
"393 32 OFFCURVE",
"415 96 CURVE",
"404 118 LINE",
"404 0 LINE",
"558 0 LINE"
);
},
{
closed = 1;
nodes = (
"228 110 OFFCURVE",
"188 161 OFFCURVE",
"188 250 CURVE SMOOTH",
"188 337 OFFCURVE",
"227 385 OFFCURVE",
"296 385 CURVE SMOOTH",
"365 385 OFFCURVE",
"404 336 OFFCURVE",
"404 248 CURVE SMOOTH",
"404 159 OFFCURVE",
"365 110 OFFCURVE",
"296 110 CURVE SMOOTH"
);
}
);
width = 615;
}
);
leftKerningGroup = o;
rightKerningGroup = l;
unicode = 0064;
userData = {
anchors = (
);
b = {
};
com.typemytype.robofont.layerData = {
b = {
anchors = (
);
components = (
);
contours = (
);
lib = {
};
name = d;
unicodes = (
);
width = 1181;
};
};
components = (
);
contours = (
);
lib = {
};
name = d;
unicodes = (
);
width = 1207;
};
},
{
glyphname = eth;
lastChange = "2017-11-14 17:22:24 +0000";
layers = (
{
background = {
paths = (
{
closed = 1;
nodes = (
"463 -8 OFFCURVE",
"564 101 OFFCURVE",
"564 289 CURVE SMOOTH",
"564 473 OFFCURVE",
"412 644 OFFCURVE",
"245 706 CURVE SMOOTH",
"158 738 OFFCURVE",
"109 637 OFFCURVE",
"187 602 CURVE SMOOTH",
"276 561 OFFCURVE",
"418 470 OFFCURVE",
"418 326 CURVE",
"459 321 LINE",
"434 411 OFFCURVE",
"373 455 OFFCURVE",
"274 455 CURVE SMOOTH",
"133 455 OFFCURVE",
"33 360 OFFCURVE",
"33 225 CURVE SMOOTH",
"33 86 OFFCURVE",
"137 -8 OFFCURVE",
"289 -8 CURVE SMOOTH"
);
},
{
closed = 1;
nodes = (
"225 110 OFFCURVE",
"188 149 OFFCURVE",
"188 225 CURVE SMOOTH",
"188 301 OFFCURVE",
"225 340 OFFCURVE",
"295 340 CURVE SMOOTH",
"365 340 OFFCURVE",
"402 301 OFFCURVE",
"402 225 CURVE SMOOTH",
"402 151 OFFCURVE",
"364 110 OFFCURVE",
"295 110 CURVE SMOOTH"
);
},
{
closed = 1;
nodes = (
"522 561 LINE SMOOTH",
"582 577 OFFCURVE",
"562 656 OFFCURVE",
"503 640 CURVE SMOOTH",
"183 555 LINE SMOOTH",
"124 539 OFFCURVE",
"144 460 OFFCURVE",
"203 476 CURVE SMOOTH"
);
}
);
};
guideLines = (
{
angle = 90;
position = "{148, 292}";
},
{
angle = 90;
position = "{563, 292}";
}
);
layerId = "E1B555A7-F4E1-459C-9C1A-AE952106EEF9";
paths = (
{
closed = 1;
nodes = (
"465 -8 OFFCURVE",
"564 103 OFFCURVE",
"564 298 CURVE SMOOTH",
"564 483 OFFCURVE",
"432 682 OFFCURVE",
"181 716 CURVE",
"147 610 LINE",
"296 590 OFFCURVE",
"418 482 OFFCURVE",
"418 326 CURVE",
"459 321 LINE",
"434 411 OFFCURVE",
"373 455 OFFCURVE",
"274 455 CURVE SMOOTH",
"133 455 OFFCURVE",
"33 360 OFFCURVE",
"33 225 CURVE SMOOTH",
"33 86 OFFCURVE",
"137 -8 OFFCURVE",
"289 -8 CURVE SMOOTH"
);
},
{
closed = 1;
nodes = (
"225 110 OFFCURVE",
"188 149 OFFCURVE",
"188 225 CURVE SMOOTH",
"188 301 OFFCURVE",
"225 340 OFFCURVE",
"295 340 CURVE SMOOTH",
"365 340 OFFCURVE",
"402 301 OFFCURVE",
"402 225 CURVE SMOOTH",
"402 151 OFFCURVE",
"364 110 OFFCURVE",
"295 110 CURVE SMOOTH"
);
},
{
closed = 1;
nodes = (
"559 571 LINE",
"538 650 LINE",
"146 545 LINE",
"167 466 LINE"
);
}
);
width = 597;
}
);
leftKerningGroup = o;
rightKerningGroup = o;
unicode = 00F0;
userData = {
com.typemytype.robofont.layerData = {
b = {
anchors = (
);
components = (
);
contours = (
);
lib = {
};
name = eth;
unicodes = (
);
width = 1230;
};
};
};
},
{
glyphname = dcaron;
lastChange = "2017-11-14 17:22:24 +0000";
layers = (
{
background = {
components = (
{
name = d;
}
);
paths = (
{
closed = 1;
nodes = (
"660 665 LINE SMOOTH",
"669 724 OFFCURVE",
"583 728 OFFCURVE",
"583 667 CURVE SMOOTH",
"583 526 LINE SMOOTH",
"583 486 OFFCURVE",
"631 481 OFFCURVE",
"637 521 CURVE SMOOTH"
);
}
);
};
components = (
{
name = d;
}
);
layerId = "E1B555A7-F4E1-459C-9C1A-AE952106EEF9";
paths = (
{
closed = 1;
nodes = (
"662 705 LINE",
"583 705 LINE",
"583 511 LINE",
"636 511 LINE"
);
}
);
width = 615;
}
);
leftKerningGroup = o;
rightKerningGroup = lcaron;
unicode = 010F;
},
{
glyphname = dcroat;
lastChange = "2017-11-14 17:22:24 +0000";
layers = (
{
background = {
paths = (
{
closed = 1;
nodes = (
"328 -8 OFFCURVE",
"393 32 OFFCURVE",
"415 96 CURVE",
"404 118 LINE",
"404 67 LINE SMOOTH",
"404 23 OFFCURVE",
"434 -6 OFFCURVE",
"481 -6 CURVE SMOOTH",
"528 -6 OFFCURVE",
"558 23 OFFCURVE",
"558 67 CURVE SMOOTH",
"558 639 LINE SMOOTH",
"558 681 OFFCURVE",
"526 710 OFFCURVE",
"478 710 CURVE SMOOTH",
"432 710 OFFCURVE",
"402 683 OFFCURVE",
"402 642 CURVE SMOOTH",
"402 380 LINE",
"415 399 LINE",
"393 463 OFFCURVE",
"328 503 OFFCURVE",
"250 503 CURVE SMOOTH",
"122 503 OFFCURVE",
"33 404 OFFCURVE",
"33 250 CURVE SMOOTH",
"33 96 OFFCURVE",
"123 -8 OFFCURVE",
"250 -8 CURVE SMOOTH"
);
},
{
closed = 1;
nodes = (
"228 110 OFFCURVE",
"188 161 OFFCURVE",
"188 250 CURVE SMOOTH",
"188 337 OFFCURVE",
"227 385 OFFCURVE",
"296 385 CURVE SMOOTH",
"365 385 OFFCURVE",
"404 336 OFFCURVE",
"404 248 CURVE SMOOTH",
"404 159 OFFCURVE",
"365 110 OFFCURVE",
"296 110 CURVE SMOOTH"
);
},
{
closed = 1;
nodes = (
"593 531 LINE SMOOTH",
"636 531 OFFCURVE",
"658 552 OFFCURVE",
"658 585 CURVE SMOOTH",
"658 618 OFFCURVE",
"636 639 OFFCURVE",
"593 639 CURVE SMOOTH",
"267 639 LINE SMOOTH",
"224 639 OFFCURVE",
"202 618 OFFCURVE",
"202 585 CURVE SMOOTH",
"202 552 OFFCURVE",
"224 531 OFFCURVE",
"267 531 CURVE SMOOTH"
);
}
);
};
layerId = "E1B555A7-F4E1-459C-9C1A-AE952106EEF9";
paths = (
{
closed = 1;
nodes = (
"643 531 LINE",
"643 639 LINE",
"217 639 LINE",
"217 531 LINE"
);
},
{
closed = 1;
nodes = (
"558 705 LINE",
"402 705 LINE",
"402 380 LINE",
"415 399 LINE",
"393 463 OFFCURVE",
"328 503 OFFCURVE",
"250 503 CURVE SMOOTH",
"122 503 OFFCURVE",
"33 404 OFFCURVE",
"33 250 CURVE SMOOTH",
"33 96 OFFCURVE",
"123 -8 OFFCURVE",
"250 -8 CURVE SMOOTH",
"328 -8 OFFCURVE",
"393 32 OFFCURVE",
"415 96 CURVE",
"404 118 LINE",
"404 0 LINE",
"558 0 LINE"
);
},
{
closed = 1;
nodes = (
"228 110 OFFCURVE",
"188 161 OFFCURVE",
"188 250 CURVE SMOOTH",
"188 337 OFFCURVE",
"227 385 OFFCURVE",
"296 385 CURVE SMOOTH",
"365 385 OFFCURVE",
"404 336 OFFCURVE",
"404 248 CURVE SMOOTH",
"404 159 OFFCURVE",
"365 110 OFFCURVE",
"296 110 CURVE SMOOTH"
);
}
);
width = 615;
}
);
leftKerningGroup = o;
rightKerningGroup = l;
unicode = 0111;
userData = {
com.typemytype.robofont.layerData = {
b = {
anchors = (
);
components = (
);
contours = (
);
lib = {
};
name = dcroat;
unicodes = (
);
width = 1181;
};
};
};
},
{
glyphname = e;
lastChange = "2017-11-14 17:22:24 +0000";
layers = (
{
anchors = (
{
name = bottom;
position = "{297, 0}";
},
{
name = ogonek;
position = "{398, 10}";
},
{
name = top;
position = "{276, 495}";
}
);
background = {
anchors = (
{
name = bottom;
position = "{297, 0}";
},
{
name = ogonek;
position = "{398, 10}";
},
{
name = top;
position = "{276, 495}";
}
);
paths = (
{
closed = 1;
nodes = (
"369 -8 OFFCURVE",
"442 15 OFFCURVE",
"486 52 CURVE",
"445 159 LINE",
"408 129 OFFCURVE",
"358 111 OFFCURVE",
"315 111 CURVE SMOOTH",
"238 111 OFFCURVE",
"193 157 OFFCURVE",
"193 248 CURVE SMOOTH",
"193 339 OFFCURVE",
"239 384 OFFCURVE",
"315 384 CURVE SMOOTH",
"358 384 OFFCURVE",
"408 366 OFFCURVE",
"445 336 CURVE",
"486 443 LINE",
"444 480 OFFCURVE",
"371 503 OFFCURVE",
"300 503 CURVE SMOOTH",
"139 503 OFFCURVE",
"33 400 OFFCURVE",
"33 245 CURVE SMOOTH",
"33 90 OFFCURVE",
"131 -8 OFFCURVE",
"293 -8 CURVE SMOOTH"
);
},
{
closed = 1;
nodes = (
"954 -8 OFFCURVE",
"1057 91 OFFCURVE",
"1057 248 CURVE SMOOTH",
"1057 405 OFFCURVE",
"954 503 OFFCURVE",
"795 503 CURVE SMOOTH",
"636 503 OFFCURVE",
"533 405 OFFCURVE",
"533 248 CURVE SMOOTH",
"533 91 OFFCURVE",
"636 -8 OFFCURVE",
"795 -8 CURVE SMOOTH"
);
},
{
closed = 1;
nodes = (
"726 110 OFFCURVE",
"688 154 OFFCURVE",
"688 248 CURVE SMOOTH",
"688 342 OFFCURVE",
"726 386 OFFCURVE",
"795 386 CURVE SMOOTH",
"864 386 OFFCURVE",
"902 342 OFFCURVE",
"902 248 CURVE SMOOTH",
"902 154 OFFCURVE",
"864 110 OFFCURVE",
"795 110 CURVE SMOOTH"
);
}
);
};
guideLines = (
{
angle = 90;
position = "{501, 186}";
}
);
layerId = "E1B555A7-F4E1-459C-9C1A-AE952106EEF9";
paths = (
{
closed = 1;
nodes = (
"452 156 LINE",
"411 125 OFFCURVE",
"359 108 OFFCURVE",
"309 108 CURVE SMOOTH",
"222 108 OFFCURVE",
"182 152 OFFCURVE",
"182 260 CURVE SMOOTH",
"182 349 OFFCURVE",
"217 396 OFFCURVE",
"280 396 CURVE SMOOTH",
"339 396 OFFCURVE",
"370 356 OFFCURVE",
"370 278 CURVE",
"408 293 LINE",
"172 293 LINE",
"171 216 LINE",
"501 216 LINE",
"501 254 LINE SMOOTH",
"501 408 OFFCURVE",
"414 503 OFFCURVE",
"276 503 CURVE SMOOTH",
"134 503 OFFCURVE",
"33 398 OFFCURVE",
"33 247 CURVE SMOOTH",
"33 90 OFFCURVE",
"135 -8 OFFCURVE",
"302 -8 CURVE SMOOTH",
"371 -8 OFFCURVE",
"445 15 OFFCURVE",
"493 52 CURVE"
);
}
);
width = 533;
}
);
leftKerningGroup = o;
rightKerningGroup = e;
unicode = 0065;
userData = {
anchors = (
);
b = {
};
com.typemytype.robofont.layerData = {
b = {
anchors = (
);
components = (
);
contours = (
);
lib = {
};
name = e;
unicodes = (
);
width = 1132;
};
};
components = (
);
contours = (
);
lib = {
};
name = e;
unicodes = (
);
width = 1132;
};
},
{
glyphname = eogonek;
lastChange = "2017-11-14 17:22:24 +0000";
layers = (
{
anchors = (
{
name = top;
position = "{276, 495}";
}
);
background = {
anchors = (
{
name = top;
position = "{276, 495}";
}
);
paths = (
{
closed = 1;
nodes = (
"425 -197 OFFCURVE",
"453 -190 OFFCURVE",
"480 -174 CURVE SMOOTH",
"513 -155 OFFCURVE",
"498 -98 OFFCURVE",
"462 -109 CURVE SMOOTH",
"442 -115 OFFCURVE",
"432 -117 OFFCURVE",
"414 -117 CURVE SMOOTH",
"383 -117 OFFCURVE",
"362 -96 OFFCURVE",
"362 -64 CURVE SMOOTH",
"362 -30 OFFCURVE",
"385 -6 OFFCURVE",
"452 29 CURVE SMOOTH",
"484 46 OFFCURVE",
"498 65 OFFCURVE",
"498 90 CURVE SMOOTH",
"498 125 OFFCURVE",
"479 148 OFFCURVE",
"452 148 CURVE SMOOTH",
"415 148 OFFCURVE",
"372 108 OFFCURVE",
"300 108 CURVE SMOOTH",
"216 108 OFFCURVE",
"182 153 OFFCURVE",
"182 263 CURVE SMOOTH",
"182 349 OFFCURVE",
"217 396 OFFCURVE",
"280 396 CURVE SMOOTH",
"339 396 OFFCURVE",
"370 356 OFFCURVE",
"370 278 CURVE",
"408 293 LINE",
"172 293 LINE",
"171 216 LINE",
"461 216 LINE SMOOTH",
"487 216 OFFCURVE",
"501 232 OFFCURVE",
"501 262 CURVE SMOOTH",
"501 409 OFFCURVE",
"412 503 OFFCURVE",
"276 503 CURVE SMOOTH",
"134 503 OFFCURVE",
"33 398 OFFCURVE",
"33 247 CURVE SMOOTH",
"33 89 OFFCURVE",
"135 -8 OFFCURVE",
"299 -8 CURVE SMOOTH",
"316 -8 OFFCURVE",
"335 -6 OFFCURVE",
"352 -3 CURVE",
"323 13 LINE",
"284 -10 OFFCURVE",
"263 -46 OFFCURVE",
"263 -87 CURVE SMOOTH",
"263 -151 OFFCURVE",
"316 -197 OFFCURVE",
"391 -197 CURVE SMOOTH"
);
}
);
};
guideLines = (
{
angle = 90;
position = "{498, 155}";
}
);
layerId = "E1B555A7-F4E1-459C-9C1A-AE952106EEF9";
paths = (
{
closed = 1;
nodes = (
"427 -197 OFFCURVE",
"462 -190 OFFCURVE",
"492 -177 CURVE",
"475 -105 LINE",
"456 -113 OFFCURVE",
"438 -117 OFFCURVE",
"421 -117 CURVE SMOOTH",
"383 -117 OFFCURVE",
"362 -99 OFFCURVE",
"362 -64 CURVE SMOOTH",
"362 -30 OFFCURVE",
"382 -7 OFFCURVE",
"436 20 CURVE SMOOTH",
"471 37 OFFCURVE",
"483 44 OFFCURVE",
"493 52 CURVE",
"452 156 LINE",
"411 125 OFFCURVE",
"359 108 OFFCURVE",
"309 108 CURVE SMOOTH",
"222 108 OFFCURVE",
"182 152 OFFCURVE",
"182 260 CURVE SMOOTH",
"182 346 OFFCURVE",
"217 396 OFFCURVE",
"280 396 CURVE SMOOTH",
"339 396 OFFCURVE",
"370 356 OFFCURVE",
"370 278 CURVE",
"408 293 LINE",
"172 293 LINE",
"171 216 LINE",
"501 216 LINE",
"501 254 LINE SMOOTH",
"501 408 OFFCURVE",
"414 503 OFFCURVE",
"276 503 CURVE SMOOTH",
"134 503 OFFCURVE",
"33 398 OFFCURVE",
"33 247 CURVE SMOOTH",
"33 90 OFFCURVE",
"135 -8 OFFCURVE",
"302 -8 CURVE SMOOTH",
"317 -8 OFFCURVE",
"332 -6 OFFCURVE",
"352 -3 CURVE",
"323 13 LINE",
"284 -10 OFFCURVE",
"263 -46 OFFCURVE",
"263 -87 CURVE SMOOTH",
"263 -151 OFFCURVE",
"316 -197 OFFCURVE",
"391 -197 CURVE SMOOTH"
);
}
);
width = 533;
}
);
leftKerningGroup = o;
rightKerningGroup = e;
unicode = 0119;
},
{
glyphname = schwa;
lastChange = "2017-11-14 17:22:24 +0000";
layers = (
{
background = {
paths = (
{
closed = 1;
nodes = (
"401 -8 OFFCURVE",
"500 99 OFFCURVE",
"500 248 CURVE SMOOTH",
"500 404 OFFCURVE",
"399 503 OFFCURVE",
"242 503 CURVE SMOOTH",
"187 503 OFFCURVE",
"123 486 OFFCURVE",
"77 462 CURVE SMOOTH",
"52 449 OFFCURVE",
"39 429 OFFCURVE",
"39 405 CURVE SMOOTH",
"39 370 OFFCURVE",
"58 347 OFFCURVE",
"85 347 CURVE SMOOTH",
"122 347 OFFCURVE",
"165 387 OFFCURVE",
"235 387 CURVE SMOOTH",
"318 387 OFFCURVE",
"354 341 OFFCURVE",
"354 232 CURVE SMOOTH",
"354 146 OFFCURVE",
"319 99 OFFCURVE",
"258 99 CURVE SMOOTH",
"198 99 OFFCURVE",
"167 139 OFFCURVE",
"167 217 CURVE",
"125 202 LINE",
"361 202 LINE",
"362 279 LINE",
"72 279 LINE SMOOTH",
"46 279 OFFCURVE",
"32 263 OFFCURVE",
"32 233 CURVE SMOOTH",
"32 82 OFFCURVE",
"120 -8 OFFCURVE",
"265 -8 CURVE SMOOTH"
);
}
);
};
layerId = "E1B555A7-F4E1-459C-9C1A-AE952106EEF9";
paths = (
{
closed = 1;
nodes = (
"81 339 LINE",
"136 371 OFFCURVE",
"185 387 OFFCURVE",
"232 387 CURVE SMOOTH",
"315 387 OFFCURVE",
"351 345 OFFCURVE",
"354 242 CURVE SMOOTH",
"357 148 OFFCURVE",
"323 99 OFFCURVE",
"258 99 CURVE SMOOTH",
"198 99 OFFCURVE",
"167 140 OFFCURVE",
"167 217 CURVE",
"125 202 LINE",
"361 202 LINE",
"362 279 LINE",
"32 279 LINE",
"32 240 LINE SMOOTH",
"32 85 OFFCURVE",
"122 -8 OFFCURVE",
"265 -8 CURVE SMOOTH",
"405 -8 OFFCURVE",
"500 95 OFFCURVE",
"500 248 CURVE SMOOTH",
"500 404 OFFCURVE",
"399 503 OFFCURVE",
"243 503 CURVE SMOOTH",
"167 503 OFFCURVE",
"91 481 OFFCURVE",
"40 443 CURVE"
);
}
);
width = 533;
}
);
leftKerningGroup = o;
rightKerningGroup = o;
unicode = 0259;
},
{
glyphname = f;
lastChange = "2017-11-14 17:22:24 +0000";
layers = (
{
anchors = (
{
name = bottom;
position = "{175, 0}";
},
{
name = top;
position = "{175, 495}";
}
);
background = {
anchors = (
{
name = bottom;
position = "{175, 0}";
},
{
name = top;
position = "{175, 495}";
}
);
paths = (
{
closed = 1;
nodes = (
"216 -5 OFFCURVE",
"253 17 OFFCURVE",
"253 68 CURVE SMOOTH",
"253 507 LINE SMOOTH",
"253 556 OFFCURVE",
"272 588 OFFCURVE",
"327 592 CURVE SMOOTH",
"353 594 LINE SMOOTH",
"390 597 OFFCURVE",
"413 615 OFFCURVE",
"413 652 CURVE SMOOTH",
"413 689 OFFCURVE",
"391 711 OFFCURVE",
"323 706 CURVE SMOOTH",
"297 704 LINE SMOOTH",
"175 695 OFFCURVE",
"97 621 OFFCURVE",
"97 490 CURVE SMOOTH",
"97 68 LINE SMOOTH",
"97 17 OFFCURVE",
"134 -5 OFFCURVE",
"175 -5 CURVE SMOOTH"
);
},
{
closed = 1;
nodes = (
"320 375 LINE SMOOTH",
"368 375 OFFCURVE",
"390 396 OFFCURVE",
"390 433 CURVE SMOOTH",
"390 470 OFFCURVE",
"368 491 OFFCURVE",
"320 491 CURVE SMOOTH",
"59 491 LINE SMOOTH",
"11 491 OFFCURVE",
"-11 470 OFFCURVE",
"-11 433 CURVE SMOOTH",
"-11 396 OFFCURVE",
"11 375 OFFCURVE",
"59 375 CURVE SMOOTH"
);
}
);
};
layerId = "E1B555A7-F4E1-459C-9C1A-AE952106EEF9";
paths = (
{
closed = 1;
nodes = (
"253 0 LINE",
"253 511 LINE SMOOTH",
"253 569 OFFCURVE",
"280 591 OFFCURVE",
"357 594 CURVE SMOOTH",
"404 596 LINE",
"395 710 LINE",
"339 707 LINE SMOOTH",
"173 698 OFFCURVE",
"97 626 OFFCURVE",
"97 480 CURVE SMOOTH",
"97 0 LINE"
);
},
{
closed = 1;
nodes = (
"375 375 LINE",
"375 491 LINE",
"4 491 LINE",
"4 375 LINE"
);
}
);
width = 379;
}
);
leftKerningGroup = f;
rightKerningGroup = f;
unicode = 0066;
userData = {
anchors = (
);
b = {
};
com.typemytype.robofont.layerData = {
b = {
anchors = (
);
components = (
);
contours = (
);
lib = {
};
name = f;
unicodes = (
);
width = 696;
};
};
components = (
);
contours = (
);
lib = {
};
name = f;
unicodes = (
);
width = 723;
};
},
{
glyphname = g;
lastChange = "2017-11-14 17:22:24 +0000";
layers = (
{
anchors = (
{
name = bottom;
position = "{310, 0}";
},
{
name = top;
position = "{310, 495}";
}
);
background = {
anchors = (
{
name = bottom;
position = "{310, 0}";
},
{
name = top;
position = "{310, 495}";
}
);
paths = (
{
closed = 1;
nodes = (
"468 -188 OFFCURVE",
"562 -105 OFFCURVE",
"562 54 CURVE SMOOTH",
"562 428 LINE SMOOTH",
"562 472 OFFCURVE",
"532 501 OFFCURVE",
"485 501 CURVE SMOOTH",
"438 501 OFFCURVE",
"408 473 OFFCURVE",
"408 430 CURVE SMOOTH",
"408 387 LINE",
"419 399 LINE",
"397 463 OFFCURVE",
"331 503 OFFCURVE",
"252 503 CURVE SMOOTH",
"124 503 OFFCURVE",
"33 406 OFFCURVE",
"33 258 CURVE SMOOTH",
"33 110 OFFCURVE",
"124 14 OFFCURVE",
"252 14 CURVE SMOOTH",
"331 14 OFFCURVE",
"397 54 OFFCURVE",
"419 116 CURVE",
"408 125 LINE",
"408 43 LINE SMOOTH",
"408 -35 OFFCURVE",
"368 -72 OFFCURVE",
"284 -72 CURVE SMOOTH",
"207 -72 OFFCURVE",
"150 -32 OFFCURVE",
"111 -32 CURVE SMOOTH",
"84 -32 OFFCURVE",
"65 -55 OFFCURVE",
"65 -90 CURVE SMOOTH",
"65 -114 OFFCURVE",
"79 -135 OFFCURVE",
"103 -148 CURVE SMOOTH",
"150 -174 OFFCURVE",
"215 -188 OFFCURVE",
"288 -188 CURVE SMOOTH"
);
},
{
closed = 1;
nodes = (
"230 132 OFFCURVE",
"188 179 OFFCURVE",
"188 258 CURVE SMOOTH",
"188 338 OFFCURVE",
"229 385 OFFCURVE",
"298 385 CURVE SMOOTH",
"368 385 OFFCURVE",
"408 337 OFFCURVE",
"408 258 CURVE SMOOTH",
"408 178 OFFCURVE",
"367 132 OFFCURVE",
"298 132 CURVE SMOOTH"
);
}
);
};
layerId = "E1B555A7-F4E1-459C-9C1A-AE952106EEF9";
paths = (
{
closed = 1;
nodes = (
"469 -188 OFFCURVE",
"562 -105 OFFCURVE",
"562 54 CURVE SMOOTH",
"562 491 LINE",
"408 491 LINE",
"408 387 LINE",
"419 399 LINE",
"397 463 OFFCURVE",
"331 503 OFFCURVE",
"252 503 CURVE SMOOTH",
"124 503 OFFCURVE",
"33 406 OFFCURVE",
"33 258 CURVE SMOOTH",
"33 110 OFFCURVE",
"124 14 OFFCURVE",
"252 14 CURVE SMOOTH",
"331 14 OFFCURVE",
"397 54 OFFCURVE",
"419 116 CURVE",
"408 125 LINE",
"408 43 LINE SMOOTH",
"408 -35 OFFCURVE",
"368 -72 OFFCURVE",
"286 -72 CURVE SMOOTH",
"224 -72 OFFCURVE",
"159 -54 OFFCURVE",
"97 -20 CURVE",
"56 -127 LINE",
"117 -166 OFFCURVE",
"202 -188 OFFCURVE",
"290 -188 CURVE SMOOTH"
);
},
{
closed = 1;
nodes = (
"230 132 OFFCURVE",
"188 180 OFFCURVE",
"188 258 CURVE SMOOTH",
"188 338 OFFCURVE",
"229 385 OFFCURVE",
"298 385 CURVE SMOOTH",
"368 385 OFFCURVE",
"408 337 OFFCURVE",
"408 258 CURVE SMOOTH",
"408 179 OFFCURVE",
"367 132 OFFCURVE",
"298 132 CURVE SMOOTH"
);
}
);
width = 619;
}
);
leftKerningGroup = o;
rightKerningGroup = u;
unicode = 0067;
userData = {
anchors = (
);
b = {
};
com.typemytype.robofont.layerData = {
b = {
anchors = (
);
components = (
);
contours = (
);
lib = {
};
name = g;
unicodes = (
);
width = 1167;
};
};
components = (
);
contours = (
);
lib = {
};
name = g;
unicodes = (
);
width = 1207;
};
},
{
glyphname = h;
lastChange = "2017-11-14 17:22:24 +0000";
layers = (
{
anchors = (
{
name = bottom;
position = "{300, 0}";
},
{
name = center;
position = "{300, 248}";
},
{
name = top;
position = "{137, 705}";
}
);
background = {
anchors = (
{
name = bottom;
position = "{300, 0}";
},
{
name = center;
position = "{300, 248}";
},
{
name = top;
position = "{137, 705}";
}
);
paths = (
{
closed = 1;
nodes = (
"883 -6 OFFCURVE",
"913 22 OFFCURVE",
"913 67 CURVE SMOOTH",
"913 275 LINE SMOOTH",
"913 340 OFFCURVE",
"953 382 OFFCURVE",
"1014 382 CURVE SMOOTH",
"1064 382 OFFCURVE",
"1087 355 OFFCURVE",
"1087 298 CURVE SMOOTH",
"1087 67 LINE SMOOTH",
"1087 22 OFFCURVE",
"1117 -6 OFFCURVE",
"1165 -6 CURVE SMOOTH",
"1213 -6 OFFCURVE",
"1243 22 OFFCURVE",
"1243 67 CURVE SMOOTH",
"1243 295 LINE SMOOTH",
"1243 435 OFFCURVE",
"1186 503 OFFCURVE",
"1072 503 CURVE SMOOTH",
"991 503 OFFCURVE",
"929 466 OFFCURVE",
"896 399 CURVE",
"913 397 LINE",
"913 642 LINE SMOOTH",
"913 683 OFFCURVE",
"883 710 OFFCURVE",
"837 710 CURVE SMOOTH",
"789 710 OFFCURVE",
"757 681 OFFCURVE",
"757 639 CURVE SMOOTH",
"757 67 LINE SMOOTH",
"757 22 OFFCURVE",
"787 -6 OFFCURVE",
"835 -6 CURVE SMOOTH"
);
},
{
closed = 1;
nodes = (
"211 0 LINE",
"211 118 LINE",
"200 96 LINE",
"222 32 OFFCURVE",
"287 -8 OFFCURVE",
"365 -8 CURVE SMOOTH",
"492 -8 OFFCURVE",
"582 96 OFFCURVE",
"582 250 CURVE SMOOTH",
"582 404 OFFCURVE",
"493 503 OFFCURVE",
"365 503 CURVE SMOOTH",
"287 503 OFFCURVE",
"222 463 OFFCURVE",
"200 399 CURVE",
"213 380 LINE",
"213 705 LINE",
"57 705 LINE",
"57 0 LINE"
);
},
{
closed = 1;
nodes = (
"250 110 OFFCURVE",
"211 159 OFFCURVE",
"211 248 CURVE SMOOTH",
"211 336 OFFCURVE",
"250 385 OFFCURVE",
"319 385 CURVE SMOOTH",
"388 385 OFFCURVE",
"427 337 OFFCURVE",
"427 250 CURVE SMOOTH",
"427 161 OFFCURVE",
"387 110 OFFCURVE",
"319 110 CURVE SMOOTH"
);
}
);
};
layerId = "E1B555A7-F4E1-459C-9C1A-AE952106EEF9";
paths = (
{
closed = 1;
nodes = (
"213 0 LINE",
"213 275 LINE SMOOTH",
"213 340 OFFCURVE",
"253 382 OFFCURVE",
"314 382 CURVE SMOOTH",
"363 382 OFFCURVE",
"387 355 OFFCURVE",
"387 288 CURVE SMOOTH",
"387 0 LINE",
"543 0 LINE",
"543 295 LINE SMOOTH",
"543 435 OFFCURVE",
"486 503 OFFCURVE",
"369 503 CURVE SMOOTH",
"291 503 OFFCURVE",
"229 466 OFFCURVE",
"196 399 CURVE",
"213 391 LINE",
"213 705 LINE",
"57 705 LINE",
"57 0 LINE"
);
}
);
width = 597;
}
);
leftKerningGroup = h;
rightKerningGroup = n;
unicode = 0068;
userData = {
anchors = (
);
b = {
};
com.typemytype.robofont.layerData = {
b = {
anchors = (
);
components = (
);
contours = (
);
lib = {
};
name = h;
unicodes = (
);
width = 1148;
};
};
components = (
);
contours = {
};
lib = {
};
name = h;
points = {
};
segmentType = curve;
unicodes = (
);
width = 1195;
x = 137;
y = 113;
};
},
{
glyphname = hbar;
lastChange = "2017-11-14 17:22:24 +0000";
layers = (
{
background = {
paths = (
{
closed = 1;
nodes = (
"183 -6 OFFCURVE",
"213 22 OFFCURVE",
"213 67 CURVE SMOOTH",
"213 275 LINE SMOOTH",
"213 340 OFFCURVE",
"253 382 OFFCURVE",
"314 382 CURVE SMOOTH",
"364 382 OFFCURVE",
"387 355 OFFCURVE",
"387 298 CURVE SMOOTH",
"387 67 LINE SMOOTH",
"387 22 OFFCURVE",
"417 -6 OFFCURVE",
"465 -6 CURVE SMOOTH",
"513 -6 OFFCURVE",
"543 22 OFFCURVE",
"543 67 CURVE SMOOTH",
"543 295 LINE SMOOTH",
"543 435 OFFCURVE",
"486 503 OFFCURVE",
"372 503 CURVE SMOOTH",
"291 503 OFFCURVE",
"229 466 OFFCURVE",
"196 399 CURVE",
"213 397 LINE",
"213 642 LINE SMOOTH",
"213 683 OFFCURVE",
"183 710 OFFCURVE",
"137 710 CURVE SMOOTH",
"89 710 OFFCURVE",
"57 681 OFFCURVE",
"57 639 CURVE SMOOTH",
"57 67 LINE SMOOTH",
"57 22 OFFCURVE",
"87 -6 OFFCURVE",
"135 -6 CURVE SMOOTH"
);
},
{
closed = 1;
nodes = (
"348 531 LINE SMOOTH",
"391 531 OFFCURVE",
"413 552 OFFCURVE",
"413 585 CURVE SMOOTH",
"413 618 OFFCURVE",
"391 639 OFFCURVE",
"348 639 CURVE SMOOTH",
"22 639 LINE SMOOTH",
"-21 639 OFFCURVE",
"-43 618 OFFCURVE",
"-43 585 CURVE SMOOTH",
"-43 552 OFFCURVE",
"-21 531 OFFCURVE",
"22 531 CURVE SMOOTH"
);
}
);
};
layerId = "E1B555A7-F4E1-459C-9C1A-AE952106EEF9";
paths = (
{
closed = 1;
nodes = (
"213 0 LINE",
"213 275 LINE SMOOTH",
"213 340 OFFCURVE",
"253 382 OFFCURVE",
"314 382 CURVE SMOOTH",
"363 382 OFFCURVE",
"387 355 OFFCURVE",
"387 288 CURVE SMOOTH",
"387 0 LINE",
"543 0 LINE",
"543 295 LINE SMOOTH",
"543 435 OFFCURVE",
"486 503 OFFCURVE",
"369 503 CURVE SMOOTH",
"291 503 OFFCURVE",
"229 466 OFFCURVE",
"196 399 CURVE",
"213 391 LINE",
"213 705 LINE",
"57 705 LINE",
"57 0 LINE"
);
},
{
closed = 1;
nodes = (
"398 531 LINE",
"398 639 LINE",
"-28 639 LINE",
"-28 531 LINE"
);
}
);
width = 597;
}
);
leftKerningGroup = h;
rightKerningGroup = n;
unicode = 0127;
},
{
glyphname = idotless;
lastChange = "2017-11-14 17:22:24 +0000";
layers = (
{
anchors = (
{
name = bottom;
position = "{135, 0}";
},
{
name = ogonek;
position = "{187, 10}";
},
{
name = top;
position = "{135, 495}";
}
);
background = {
anchors = (
{
name = bottom;
position = "{135, 0}";
},
{
name = ogonek;
position = "{187, 10}";
},
{
name = top;
position = "{135, 495}";
}
);
paths = (
{
closed = 1;
nodes = (
"176 -6 OFFCURVE",
"213 16 OFFCURVE",
"213 67 CURVE SMOOTH",
"213 428 LINE SMOOTH",
"213 479 OFFCURVE",
"176 501 OFFCURVE",
"135 501 CURVE SMOOTH",
"94 501 OFFCURVE",
"57 479 OFFCURVE",
"57 428 CURVE SMOOTH",
"57 67 LINE SMOOTH",
"57 16 OFFCURVE",
"94 -6 OFFCURVE",
"135 -6 CURVE SMOOTH"
);
}
);
};
layerId = "E1B555A7-F4E1-459C-9C1A-AE952106EEF9";
paths = (
{
closed = 1;
nodes = (
"213 0 LINE",
"213 491 LINE",
"57 491 LINE",
"57 0 LINE"
);
}
);
width = 270;
}
);
leftKerningGroup = n;
rightKerningGroup = u;
unicode = 0131;
},
{
glyphname = iogonek;
lastChange = "2017-11-14 17:22:24 +0000";
layers = (
{
background = {
paths = (
{
closed = 1;
nodes = (
"180 -197 OFFCURVE",
"209 -191 OFFCURVE",
"238 -174 CURVE SMOOTH",
"271 -155 OFFCURVE",
"256 -98 OFFCURVE",
"220 -109 CURVE SMOOTH",
"198 -116 OFFCURVE",
"187 -117 OFFCURVE",
"172 -117 CURVE SMOOTH",
"144 -117 OFFCURVE",
"120 -99 OFFCURVE",
"120 -64 CURVE SMOOTH",
"120 -27 OFFCURVE",
"150 -9 OFFCURVE",
"177 4 CURVE SMOOTH",
"205 17 OFFCURVE",
"213 43 OFFCURVE",
"213 67 CURVE SMOOTH",
"213 428 LINE SMOOTH",
"213 479 OFFCURVE",
"176 501 OFFCURVE",
"135 501 CURVE SMOOTH",
"94 501 OFFCURVE",
"57 479 OFFCURVE",
"57 428 CURVE SMOOTH",
"57 67 LINE SMOOTH",
"57 33 OFFCURVE",
"74 13 OFFCURVE",
"93 2 CURVE",
"115 37 LINE",
"51 11 OFFCURVE",
"21 -35 OFFCURVE",
"21 -84 CURVE SMOOTH",
"21 -154 OFFCURVE",
"77 -197 OFFCURVE",
"149 -197 CURVE SMOOTH"
);
},
{
closed = 1;
nodes = (
"189 579 OFFCURVE",
"223 610 OFFCURVE",
"223 657 CURVE SMOOTH",
"223 704 OFFCURVE",
"188 734 OFFCURVE",
"135 734 CURVE SMOOTH",
"81 734 OFFCURVE",
"47 704 OFFCURVE",
"47 657 CURVE SMOOTH",
"47 610 OFFCURVE",
"81 579 OFFCURVE",
"135 579 CURVE SMOOTH"
);
}
);
};
layerId = "E1B555A7-F4E1-459C-9C1A-AE952106EEF9";
paths = (
{
closed = 1;
nodes = (
"185 -197 OFFCURVE",
"220 -190 OFFCURVE",
"250 -177 CURVE",
"233 -105 LINE",
"214 -113 OFFCURVE",
"196 -117 OFFCURVE",
"179 -117 CURVE SMOOTH",
"141 -117 OFFCURVE",
"120 -99 OFFCURVE",
"120 -64 CURVE SMOOTH",
"120 -27 OFFCURVE",
"152 0 OFFCURVE",
"203 0 CURVE SMOOTH",
"213 0 LINE",
"213 491 LINE",
"57 491 LINE",
"57 0 LINE",
"102 0 LINE",
"115 37 LINE",
"51 11 OFFCURVE",
"21 -35 OFFCURVE",
"21 -85 CURVE SMOOTH",
"21 -154 OFFCURVE",
"77 -197 OFFCURVE",
"149 -197 CURVE SMOOTH"
);
},
{
closed = 1;
nodes = (
"52 584 LINE",
"218 584 LINE",
"218 729 LINE",
"52 729 LINE"
);
}
);
width = 270;
}
);
leftKerningGroup = h;
rightKerningGroup = l;
unicode = 012F;
},
{
glyphname = jdotless;
lastChange = "2017-11-14 17:22:24 +0000";
layers = (
{
anchors = (
{
name = bottom;
position = "{134, 0}";
},
{
name = top;
position = "{134, 495}";
}
);
background = {
anchors = (
{
name = bottom;
position = "{134, 0}";
},
{
name = top;
position = "{134, 495}";
}
);
paths = (
{
closed = 1;
nodes = (
"37 -180 LINE SMOOTH",
"157 -171 OFFCURVE",
"213 -106 OFFCURVE",
"213 4 CURVE SMOOTH",
"213 428 LINE SMOOTH",
"213 479 OFFCURVE",
"176 501 OFFCURVE",
"135 501 CURVE SMOOTH",
"94 501 OFFCURVE",
"57 479 OFFCURVE",
"57 428 CURVE SMOOTH",
"57 -8 LINE SMOOTH",
"57 -45 OFFCURVE",
"38 -66 OFFCURVE",
"5 -68 CURVE SMOOTH",
"-23 -70 LINE SMOOTH",
"-65 -73 OFFCURVE",
"-83 -91 OFFCURVE",
"-83 -124 CURVE SMOOTH",
"-83 -167 OFFCURVE",
"-47 -186 OFFCURVE",
"9 -182 CURVE SMOOTH"
);
}
);
};
layerId = "E1B555A7-F4E1-459C-9C1A-AE952106EEF9";
paths = (
{
closed = 1;
nodes = (
"57 491 LINE",
"57 5 LINE SMOOTH",
"57 -46 OFFCURVE",
"35 -67 OFFCURVE",
"-21 -71 CURVE SMOOTH",
"-73 -75 LINE",
"-62 -186 LINE",
"-14 -183 LINE SMOOTH",
"153 -173 OFFCURVE",
"213 -116 OFFCURVE",
"213 34 CURVE SMOOTH",
"213 491 LINE"
);
}
);
width = 270;
}
);
leftKerningGroup = n;
rightKerningGroup = l;
unicode = 0237;
},
{
glyphname = k;
lastChange = "2017-11-14 17:22:24 +0000";
layers = (
{
anchors = (
{
name = bottom;
position = "{281, 0}";
},
{
name = top;
position = "{281, 495}";
}
);
background = {
paths = (
{
closed = 1;
nodes = (
"503 -52 OFFCURVE",
"592 59 OFFCURVE",
"525 121 CURVE SMOOTH",
"348 286 LINE",
"340 216 LINE",
"509 379 LINE SMOOTH",
"578 446 OFFCURVE",
"478 546 OFFCURVE",
"410 478 CURVE SMOOTH",
"180 249 LINE",
"429 17 LINE SMOOTH"
);
},
{
closed = 1;
nodes = (
"176 -5 OFFCURVE",
"213 17 OFFCURVE",
"213 68 CURVE SMOOTH",
"213 637 LINE SMOOTH",
"213 688 OFFCURVE",
"176 710 OFFCURVE",
"135 710 CURVE SMOOTH",
"94 710 OFFCURVE",
"57 688 OFFCURVE",
"57 637 CURVE SMOOTH",
"57 68 LINE SMOOTH",
"57 17 OFFCURVE",
"94 -5 OFFCURVE",
"135 -5 CURVE SMOOTH"
);
}
);
};
layerId = "E1B555A7-F4E1-459C-9C1A-AE952106EEF9";
paths = (
{
closed = 1;
nodes = (
"587 0 LINE",
"347 287 LINE",
"339 217 LINE",
"576 490 LINE",
"390 490 LINE",
"185 250 LINE",
"397 0 LINE"
);
},
{
closed = 1;
nodes = (
"213 0 LINE",
"213 705 LINE",
"57 705 LINE",
"57 0 LINE"
);
}
);
width = 562;
}
);
leftKerningGroup = h;
rightKerningGroup = k;
unicode = 006B;
userData = {
com.typemytype.robofont.layerData = {
b = {
anchors = (
);
components = (
);
contours = (
{
points = (
{
segmentType = line;
smooth = 0;
x = 318;
y = 536;
},
{
segmentType = line;
smooth = 1;
x = 793;
y = 27;
},
{
smooth = 0;
x = 809;
y = 9;
},
{
smooth = 0;
x = 828;
y = 1;
},
{
segmentType = curve;
smooth = 1;
x = 845;
y = 1;
},
{
smooth = 0;
x = 883;
y = 1;
},
{
smooth = 0;
x = 922;
y = 33;
},
{
segmentType = curve;
smooth = 1;
x = 922;
y = 71;
},
{
smooth = 0;
x = 922;
y = 84;
},
{
smooth = 0;
x = 918;
y = 99;
},
{
segmentType = curve;
smooth = 1;
x = 906;
y = 112;
},
{
segmentType = line;
smooth = 0;
x = 492;
y = 554;
},
{
segmentType = line;
smooth = 1;
x = 873;
y = 889;
},
{
smooth = 0;
x = 888;
y = 902;
},
{
smooth = 0;
x = 894;
y = 918;
},
{
segmentType = curve;
smooth = 1;
x = 894;
y = 933;
},
{
smooth = 0;
x = 894;
y = 968;
},
{
smooth = 0;
x = 858;
y = 1002;
},
{
segmentType = curve;
smooth = 1;
x = 821;
y = 1002;
},
{
smooth = 0;
x = 802;
y = 1002;
},
{
smooth = 0;
x = 785;
y = 994;
},
{
segmentType = curve;
smooth = 0;
x = 770;
y = 979;
},
{
segmentType = line;
smooth = 0;
x = 318;
y = 574;
}
);
}
);
lib = {
};
name = k;
unicodes = (
);
width = 984;
};
};
};
},
{
glyphname = kgreenlandic;
lastChange = "2017-11-14 17:22:24 +0000";
layers = (
{
anchors = (
{
name = bottom;
position = "{281, 0}";
},
{
name = top;
position = "{281, 495}";
}
);
background = {
paths = (
{
closed = 1;
nodes = (
"503 -52 OFFCURVE",
"592 59 OFFCURVE",
"525 121 CURVE SMOOTH",
"348 286 LINE",
"340 216 LINE",
"509 379 LINE SMOOTH",
"578 446 OFFCURVE",
"478 546 OFFCURVE",
"410 478 CURVE SMOOTH",
"180 249 LINE",
"429 17 LINE SMOOTH"
);
},
{
closed = 1;
nodes = (
"176 -5 OFFCURVE",
"213 17 OFFCURVE",
"213 68 CURVE SMOOTH",
"213 428 LINE SMOOTH",
"213 479 OFFCURVE",
"176 501 OFFCURVE",
"135 501 CURVE SMOOTH",
"94 501 OFFCURVE",
"57 479 OFFCURVE",
"57 428 CURVE SMOOTH",
"57 68 LINE SMOOTH",
"57 17 OFFCURVE",
"94 -5 OFFCURVE",
"135 -5 CURVE SMOOTH"
);
}
);
};
layerId = "E1B555A7-F4E1-459C-9C1A-AE952106EEF9";
paths = (
{
closed = 1;
nodes = (
"587 0 LINE",
"347 287 LINE",
"339 217 LINE",
"576 490 LINE",
"390 490 LINE",
"185 250 LINE",
"397 0 LINE"
);
},
{
closed = 1;
nodes = (
"213 0 LINE",
"213 491 LINE",
"57 491 LINE",
"57 0 LINE"
);
}
);
width = 562;
}
);
leftKerningGroup = n;
rightKerningGroup = k;
unicode = 0138;
userData = {
com.typemytype.robofont.layerData = {
b = {
anchors = (
);
components = (
);
contours = (
);
lib = {
};
name = kgreenlandic;
unicodes = (
);
width = 1047;
};
};
};
},
{
glyphname = l;
lastChange = "2017-11-14 17:22:24 +0000";
layers = (
{
anchors = (
{
name = bottom;
position = "{135, 0}";
},
{
name = center;
position = "{135, 248}";
},
{
name = top;
position = "{135, 705}";
},
{
name = topright;
position = "{238, 705}";
}
);
background = {
anchors = (
{
name = bottom;
position = "{135, 0}";
},
{
name = center;
position = "{135, 248}";
},
{
name = top;
position = "{135, 705}";
},
{
name = topright;
position = "{238, 705}";
}
);
paths = (
{
closed = 1;
nodes = (
"176 -6 OFFCURVE",
"213 16 OFFCURVE",
"213 67 CURVE SMOOTH",
"213 637 LINE SMOOTH",
"213 688 OFFCURVE",
"176 710 OFFCURVE",
"135 710 CURVE SMOOTH",
"94 710 OFFCURVE",
"57 688 OFFCURVE",
"57 637 CURVE SMOOTH",
"57 67 LINE SMOOTH",
"57 16 OFFCURVE",
"94 -6 OFFCURVE",
"135 -6 CURVE SMOOTH"
);
}
);
};
layerId = "E1B555A7-F4E1-459C-9C1A-AE952106EEF9";
paths = (
{
closed = 1;
nodes = (
"213 0 LINE",
"213 705 LINE",
"57 705 LINE",
"57 0 LINE"
);
}
);
width = 270;
}
);
leftKerningGroup = h;
rightKerningGroup = l;
unicode = 006C;
userData = {
com.typemytype.robofont.layerData = {
b = {
anchors = (
);
components = (
);
contours = (
);
lib = {
};
name = l;
unicodes = (
);
width = 511;
};
};
};
},
{
glyphname = lcaron;
lastChange = "2017-11-14 17:22:24 +0000";
layers = (
{
background = {
components = (
{
name = l;
}
);
paths = (
{
closed = 1;
nodes = (
"315 665 LINE SMOOTH",
"324 724 OFFCURVE",
"238 728 OFFCURVE",
"238 667 CURVE SMOOTH",
"238 526 LINE SMOOTH",
"238 486 OFFCURVE",
"286 481 OFFCURVE",
"292 521 CURVE SMOOTH"
);
}
);
};
components = (
{
name = l;
}
);
layerId = "E1B555A7-F4E1-459C-9C1A-AE952106EEF9";
paths = (
{
closed = 1;
nodes = (
"317 705 LINE",
"238 705 LINE",
"238 511 LINE",
"291 511 LINE"
);
}
);
width = 270;
}
);
leftKerningGroup = h;
rightKerningGroup = lcaron;
unicode = 013E;
},
{
glyphname = lslash;
lastChange = "2017-11-14 17:22:24 +0000";
layers = (
{
background = {
paths = (
{
closed = 1;
nodes = (
"219 -6 OFFCURVE",
"256 16 OFFCURVE",
"256 67 CURVE SMOOTH",
"256 637 LINE SMOOTH",
"256 688 OFFCURVE",
"219 710 OFFCURVE",
"178 710 CURVE SMOOTH",
"137 710 OFFCURVE",
"100 688 OFFCURVE",
"100 637 CURVE SMOOTH",
"100 67 LINE SMOOTH",
"100 16 OFFCURVE",
"137 -6 OFFCURVE",
"178 -6 CURVE SMOOTH"
);
},
{
closed = 1;
nodes = (
"320 368 LINE SMOOTH",
"396 412 OFFCURVE",
"338 516 OFFCURVE",
"261 471 CURVE SMOOTH",
"36 341 LINE SMOOTH",
"-40 297 OFFCURVE",
"17 193 OFFCURVE",
"95 238 CURVE SMOOTH"
);
}
);
};
layerId = "E1B555A7-F4E1-459C-9C1A-AE952106EEF9";
paths = (
{
closed = 1;
nodes = (
"373 398 LINE",
"315 502 LINE",
"-17 310 LINE",
"41 206 LINE"
);
},
{
closed = 1;
nodes = (
"256 0 LINE",
"256 705 LINE",
"100 705 LINE",
"100 0 LINE"
);
}
);
width = 356;
}
);
leftKerningGroup = l;
rightKerningGroup = l;
unicode = 0142;
},
{
glyphname = m;
lastChange = "2017-11-14 17:22:24 +0000";
layers = (
{
anchors = (
{
name = bottom;
position = "{445, 0}";
},
{
name = top;
position = "{445, 495}";
}
);
background = {
anchors = (
{
name = bottom;
position = "{445, 0}";
},
{
name = top;
position = "{445, 495}";
}
);
paths = (
{
closed = 1;
nodes = (
"176 -6 OFFCURVE",
"213 16 OFFCURVE",
"213 67 CURVE SMOOTH",
"213 275 LINE SMOOTH",
"213 343 OFFCURVE",
"248 382 OFFCURVE",
"302 382 CURVE SMOOTH",
"343 382 OFFCURVE",
"367 362 OFFCURVE",
"367 298 CURVE SMOOTH",
"367 67 LINE SMOOTH",
"367 16 OFFCURVE",
"404 -6 OFFCURVE",
"445 -6 CURVE SMOOTH",
"487 -6 OFFCURVE",
"523 16 OFFCURVE",
"523 67 CURVE SMOOTH",
"523 275 LINE SMOOTH",
"523 343 OFFCURVE",
"558 382 OFFCURVE",
"612 382 CURVE SMOOTH",
"653 382 OFFCURVE",
"677 362 OFFCURVE",
"677 298 CURVE SMOOTH",
"677 67 LINE SMOOTH",
"677 16 OFFCURVE",
"714 -6 OFFCURVE",
"755 -6 CURVE SMOOTH",
"797 -6 OFFCURVE",
"833 16 OFFCURVE",
"833 67 CURVE SMOOTH",
"833 295 LINE SMOOTH",
"833 451 OFFCURVE",
"767 503 OFFCURVE",
"666 503 CURVE SMOOTH",
"584 503 OFFCURVE",
"521 457 OFFCURVE",
"494 394 CURVE",
"517 366 LINE",
"498 467 OFFCURVE",
"440 503 OFFCURVE",
"359 503 CURVE SMOOTH",
"284 503 OFFCURVE",
"226 469 OFFCURVE",
"196 401 CURVE",
"209 395 LINE",
"209 433 LINE SMOOTH",
"209 478 OFFCURVE",
"176 501 OFFCURVE",
"136 501 CURVE SMOOTH",
"96 501 OFFCURVE",
"57 478 OFFCURVE",
"57 430 CURVE SMOOTH",
"57 67 LINE SMOOTH",
"57 16 OFFCURVE",
"94 -6 OFFCURVE",
"135 -6 CURVE SMOOTH"
);
}
);
};
layerId = "E1B555A7-F4E1-459C-9C1A-AE952106EEF9";
paths = (
{
closed = 1;
nodes = (
"213 0 LINE",
"213 270 LINE SMOOTH",
"213 341 OFFCURVE",
"245 382 OFFCURVE",
"301 382 CURVE SMOOTH",
"348 382 OFFCURVE",
"367 355 OFFCURVE",
"367 290 CURVE SMOOTH",
"367 0 LINE",
"523 0 LINE",
"523 270 LINE SMOOTH",
"523 341 OFFCURVE",
"555 382 OFFCURVE",
"611 382 CURVE SMOOTH",
"658 382 OFFCURVE",
"677 355 OFFCURVE",
"677 290 CURVE SMOOTH",
"677 0 LINE",
"833 0 LINE",
"833 295 LINE SMOOTH",
"833 436 OFFCURVE",
"779 503 OFFCURVE",
"666 503 CURVE SMOOTH",
"589 503 OFFCURVE",
"523 461 OFFCURVE",
"494 394 CURVE",
"517 366 LINE",
"500 458 OFFCURVE",
"448 503 OFFCURVE",
"359 503 CURVE SMOOTH",
"282 503 OFFCURVE",
"225 467 OFFCURVE",
"196 401 CURVE",
"209 397 LINE",
"209 491 LINE",
"57 491 LINE",
"57 0 LINE"
);
}
);
width = 887;
}
);
leftKerningGroup = n;
rightKerningGroup = n;
unicode = 006D;
userData = {
anchors = (
);
b = {
};
com.typemytype.robofont.layerData = {
b = {
anchors = (
);
components = (
);
contours = (
);
lib = {
};
name = m;
unicodes = (
);
width = 1838;
};
};
components = (
);
contours = (
);
lib = {
};
name = m;
unicodes = (
);
width = 1877;
};
},
{
glyphname = n;
lastChange = "2017-11-14 17:22:24 +0000";
layers = (
{
anchors = (
{
name = bottom;
position = "{300, 0}";
},
{
name = top;
position = "{300, 495}";
}
);
background = {
anchors = (
{
name = bottom;
position = "{300, 0}";
},
{
name = top;
position = "{300, 495}";
}
);
paths = (
{
closed = 1;
nodes = (
"183 -6 OFFCURVE",
"213 22 OFFCURVE",
"213 67 CURVE SMOOTH",
"213 275 LINE SMOOTH",
"213 340 OFFCURVE",
"253 382 OFFCURVE",
"314 382 CURVE SMOOTH",
"363 382 OFFCURVE",
"387 355 OFFCURVE",
"387 288 CURVE SMOOTH",
"387 67 LINE SMOOTH",
"387 22 OFFCURVE",
"417 -6 OFFCURVE",
"465 -6 CURVE SMOOTH",
"513 -6 OFFCURVE",
"543 22 OFFCURVE",
"543 67 CURVE SMOOTH",
"543 295 LINE SMOOTH",
"543 435 OFFCURVE",
"486 503 OFFCURVE",
"369 503 CURVE SMOOTH",
"291 503 OFFCURVE",
"229 466 OFFCURVE",
"196 399 CURVE",
"209 397 LINE",
"209 433 LINE SMOOTH",
"209 474 OFFCURVE",
"180 501 OFFCURVE",
"136 501 CURVE SMOOTH",
"89 501 OFFCURVE",
"57 472 OFFCURVE",
"57 430 CURVE SMOOTH",
"57 67 LINE SMOOTH",
"57 22 OFFCURVE",
"87 -6 OFFCURVE",
"135 -6 CURVE SMOOTH"
);
}
);
};
layerId = "E1B555A7-F4E1-459C-9C1A-AE952106EEF9";
paths = (
{
closed = 1;
nodes = (
"213 0 LINE",
"213 275 LINE SMOOTH",
"213 340 OFFCURVE",
"253 382 OFFCURVE",
"314 382 CURVE SMOOTH",
"363 382 OFFCURVE",
"387 355 OFFCURVE",
"387 288 CURVE SMOOTH",
"387 0 LINE",
"543 0 LINE",
"543 295 LINE SMOOTH",
"543 435 OFFCURVE",
"486 503 OFFCURVE",
"369 503 CURVE SMOOTH",
"291 503 OFFCURVE",
"229 466 OFFCURVE",
"196 399 CURVE",
"209 397 LINE",
"209 491 LINE",
"57 491 LINE",
"57 0 LINE"
);
}
);
width = 597;
}
);
leftKerningGroup = n;
rightKerningGroup = n;
unicode = 006E;
userData = {
anchors = (
);
b = {
};
com.typemytype.robofont.layerData = {
b = {
anchors = (
);
components = (
);
contours = (
);
lib = {
};
name = n;
unicodes = (
);
width = 1152;
};
};
components = (
);
contours = {
};
lib = {
};
name = n;
points = {
};
segmentType = curve;
unicodes = (
);
width = 1195;
x = 137;
y = 113;
};
},
{
glyphname = eng;
lastChange = "2017-11-14 17:22:24 +0000";
layers = (
{
background = {
paths = (
{
closed = 1;
nodes = (
"367 -180 LINE SMOOTH",
"484 -171 OFFCURVE",
"543 -109 OFFCURVE",
"543 4 CURVE SMOOTH",
"543 295 LINE SMOOTH",
"543 435 OFFCURVE",
"486 503 OFFCURVE",
"369 503 CURVE SMOOTH",
"291 503 OFFCURVE",
"228 464 OFFCURVE",
"194 395 CURVE",
"209 396 LINE",
"209 433 LINE SMOOTH",
"209 474 OFFCURVE",
"180 501 OFFCURVE",
"136 501 CURVE SMOOTH",
"89 501 OFFCURVE",
"57 472 OFFCURVE",
"57 430 CURVE SMOOTH",
"57 67 LINE SMOOTH",
"57 22 OFFCURVE",
"87 -6 OFFCURVE",
"135 -6 CURVE SMOOTH",
"183 -6 OFFCURVE",
"213 22 OFFCURVE",
"213 67 CURVE SMOOTH",
"213 275 LINE SMOOTH",
"213 340 OFFCURVE",
"253 382 OFFCURVE",
"314 382 CURVE SMOOTH",
"364 382 OFFCURVE",
"387 355 OFFCURVE",
"387 298 CURVE SMOOTH",
"387 -8 LINE SMOOTH",
"387 -45 OFFCURVE",
"368 -66 OFFCURVE",
"335 -68 CURVE SMOOTH",
"307 -70 LINE SMOOTH",
"266 -73 OFFCURVE",
"247 -90 OFFCURVE",
"247 -124 CURVE SMOOTH",
"247 -165 OFFCURVE",
"280 -186 OFFCURVE",
"339 -182 CURVE SMOOTH"
);
}
);
};
layerId = "E1B555A7-F4E1-459C-9C1A-AE952106EEF9";
paths = (
{
closed = 1;
nodes = (
"291 503 OFFCURVE",
"229 466 OFFCURVE",
"196 399 CURVE",
"209 397 LINE",
"209 491 LINE",
"57 491 LINE",
"57 0 LINE",
"213 0 LINE",
"213 275 LINE SMOOTH",
"213 340 OFFCURVE",
"253 382 OFFCURVE",
"314 382 CURVE SMOOTH",
"363 382 OFFCURVE",
"387 355 OFFCURVE",
"387 288 CURVE SMOOTH",
"387 6 LINE SMOOTH",
"387 -45 OFFCURVE",
"365 -66 OFFCURVE",
"309 -70 CURVE SMOOTH",
"259 -74 LINE",
"268 -185 LINE",
"316 -182 LINE SMOOTH",
"483 -172 OFFCURVE",
"543 -115 OFFCURVE",
"543 35 CURVE SMOOTH",
"543 295 LINE SMOOTH",
"543 435 OFFCURVE",
"486 503 OFFCURVE",
"369 503 CURVE SMOOTH"
);
}
);
width = 597;
}
);
leftKerningGroup = n;
rightKerningGroup = n;
unicode = 014B;
},
{
glyphname = o;
lastChange = "2017-11-14 17:22:24 +0000";
layers = (
{
anchors = (
{
name = bottom;
position = "{295, 0}";
},
{
name = center;
position = "{295, 248}";
},
{
name = ogonek;
position = "{397, 10}";
},
{
name = top;
position = "{295, 495}";
},
{
name = topright;
position = "{359, 495}";
}
);
background = {
anchors = (
{
name = bottom;
position = "{295, 0}";
},
{
name = center;
position = "{295, 248}";
},
{
name = ogonek;
position = "{397, 10}";
},
{
name = top;
position = "{295, 495}";
},
{
name = topright;
position = "{359, 495}";
}
);
paths = (
{
closed = 1;
nodes = (
"454 -8 OFFCURVE",
"557 91 OFFCURVE",
"557 248 CURVE SMOOTH",
"557 405 OFFCURVE",
"454 503 OFFCURVE",
"295 503 CURVE SMOOTH",
"136 503 OFFCURVE",
"33 405 OFFCURVE",
"33 248 CURVE SMOOTH",
"33 91 OFFCURVE",
"136 -8 OFFCURVE",
"295 -8 CURVE SMOOTH"
);
},
{
closed = 1;
nodes = (
"226 110 OFFCURVE",
"188 154 OFFCURVE",
"188 248 CURVE SMOOTH",
"188 342 OFFCURVE",
"226 386 OFFCURVE",
"295 386 CURVE SMOOTH",
"364 386 OFFCURVE",
"402 342 OFFCURVE",
"402 248 CURVE SMOOTH",
"402 154 OFFCURVE",
"364 110 OFFCURVE",
"295 110 CURVE SMOOTH"
);
}
);
};
guideLines = (
{
angle = 90;
position = "{557, 248}";
}
);
layerId = "E1B555A7-F4E1-459C-9C1A-AE952106EEF9";
paths = (
{
closed = 1;
nodes = (
"454 -8 OFFCURVE",
"557 91 OFFCURVE",
"557 248 CURVE SMOOTH",
"557 405 OFFCURVE",
"454 503 OFFCURVE",
"295 503 CURVE SMOOTH",
"136 503 OFFCURVE",
"33 405 OFFCURVE",
"33 248 CURVE SMOOTH",
"33 91 OFFCURVE",
"136 -8 OFFCURVE",
"295 -8 CURVE SMOOTH"
);
},
{
closed = 1;
nodes = (
"226 110 OFFCURVE",
"188 154 OFFCURVE",
"188 248 CURVE SMOOTH",
"188 342 OFFCURVE",
"226 386 OFFCURVE",
"295 386 CURVE SMOOTH",
"364 386 OFFCURVE",
"402 342 OFFCURVE",
"402 248 CURVE SMOOTH",
"402 154 OFFCURVE",
"364 110 OFFCURVE",
"295 110 CURVE SMOOTH"
);
}
);
width = 590;
}
);
leftKerningGroup = o;
rightKerningGroup = o;
unicode = 006F;
userData = {
anchors = (
);
b = {
};
com.typemytype.robofont.guides = (
);
com.typemytype.robofont.layerData = {
b = {
anchors = (
);
components = (
);
contours = (
);
lib = {
};
name = o;
unicodes = (
);
width = 1144;
};
};
components = (
);
contours = (
);
lib = {
};
name = o;
unicodes = (
);
width = 1199;
};
},
{
glyphname = ohorn;
lastChange = "2017-11-14 17:22:24 +0000";
layers = (
{
anchors = (
{
name = bottom;
position = "{295, 0}";
},
{
name = top;
position = "{295, 495}";
}
);
background = {
anchors = (
{
name = bottom;
position = "{295, 0}";
},
{
name = top;
position = "{295, 495}";
}
);
paths = (
{
closed = 1;
nodes = (
"454 -8 OFFCURVE",
"557 91 OFFCURVE",
"557 247 CURVE SMOOTH",
"557 331 OFFCURVE",
"527 405 OFFCURVE",
"466 448 CURVE",
"451 421 LINE",
"531 431 OFFCURVE",
"583 497 OFFCURVE",
"583 565 CURVE SMOOTH",
"583 612 OFFCURVE",
"563 631 OFFCURVE",
"521 631 CURVE SMOOTH",
"477 631 OFFCURVE",
"450 613 OFFCURVE",
"444 561 CURVE SMOOTH",
"438 511 OFFCURVE",
"413 495 OFFCURVE",
"376 495 CURVE SMOOTH",
"356 495 OFFCURVE",
"332 503 OFFCURVE",
"295 503 CURVE SMOOTH",
"136 503 OFFCURVE",
"33 405 OFFCURVE",
"33 247 CURVE SMOOTH",
"33 91 OFFCURVE",
"136 -8 OFFCURVE",
"295 -8 CURVE SMOOTH"
);
},
{
closed = 1;
nodes = (
"226 110 OFFCURVE",
"188 154 OFFCURVE",
"188 247 CURVE SMOOTH",
"188 342 OFFCURVE",
"226 386 OFFCURVE",
"295 386 CURVE SMOOTH",
"364 386 OFFCURVE",
"402 342 OFFCURVE",
"402 247 CURVE SMOOTH",
"402 154 OFFCURVE",
"364 110 OFFCURVE",
"295 110 CURVE SMOOTH"
);
}
);
};
layerId = "E1B555A7-F4E1-459C-9C1A-AE952106EEF9";
paths = (
{
closed = 1;
nodes = (
"454 -8 OFFCURVE",
"557 91 OFFCURVE",
"557 247 CURVE SMOOTH",
"557 331 OFFCURVE",
"527 405 OFFCURVE",
"466 448 CURVE",
"451 421 LINE",
"531 431 OFFCURVE",
"583 494 OFFCURVE",
"583 577 CURVE SMOOTH",
"583 616 LINE",
"449 616 LINE",
"449 596 LINE SMOOTH",
"449 511 OFFCURVE",
"413 495 OFFCURVE",
"376 495 CURVE SMOOTH",
"366 495 OFFCURVE",
"322 503 OFFCURVE",
"292 503 CURVE SMOOTH",
"136 503 OFFCURVE",
"33 405 OFFCURVE",
"33 247 CURVE SMOOTH",
"33 91 OFFCURVE",
"136 -8 OFFCURVE",
"295 -8 CURVE SMOOTH"
);
},
{
closed = 1;
nodes = (
"226 110 OFFCURVE",
"188 154 OFFCURVE",
"188 248 CURVE SMOOTH",
"188 342 OFFCURVE",
"226 386 OFFCURVE",
"295 386 CURVE SMOOTH",
"364 386 OFFCURVE",
"402 342 OFFCURVE",
"402 248 CURVE SMOOTH",
"402 154 OFFCURVE",
"364 110 OFFCURVE",
"295 110 CURVE SMOOTH"
);
}
);
width = 590;
}
);
leftKerningGroup = o;
rightKerningGroup = o;
unicode = 01A1;
},
{
glyphname = oogonek;
lastChange = "2017-11-14 17:22:24 +0000";
layers = (
{
anchors = (
{
name = top;
position = "{295, 495}";
}
);
background = {
anchors = (
{
name = top;
position = "{295, 495}";
}
);
paths = (
{
closed = 1;
nodes = (
"391 -197 OFFCURVE",
"419 -190 OFFCURVE",
"446 -174 CURVE SMOOTH",
"479 -155 OFFCURVE",
"464 -98 OFFCURVE",
"428 -109 CURVE SMOOTH",
"403 -115 OFFCURVE",
"394 -117 OFFCURVE",
"380 -117 CURVE SMOOTH",
"349 -117 OFFCURVE",
"328 -96 OFFCURVE",
"328 -64 CURVE SMOOTH",
"328 -30 OFFCURVE",
"349 -7 OFFCURVE",
"392 6 CURVE SMOOTH",
"494 37 OFFCURVE",
"557 127 OFFCURVE",
"557 248 CURVE SMOOTH",
"557 405 OFFCURVE",
"454 503 OFFCURVE",
"295 503 CURVE SMOOTH",
"136 503 OFFCURVE",
"33 405 OFFCURVE",
"33 248 CURVE SMOOTH",
"33 91 OFFCURVE",
"136 -8 OFFCURVE",
"300 -8 CURVE",
"290 14 LINE",
"250 -10 OFFCURVE",
"229 -46 OFFCURVE",
"229 -87 CURVE SMOOTH",
"229 -151 OFFCURVE",
"282 -197 OFFCURVE",
"357 -197 CURVE SMOOTH"
);
},
{
closed = 1;
nodes = (
"226 110 OFFCURVE",
"188 154 OFFCURVE",
"188 248 CURVE SMOOTH",
"188 342 OFFCURVE",
"226 386 OFFCURVE",
"295 386 CURVE SMOOTH",
"364 386 OFFCURVE",
"402 342 OFFCURVE",
"402 248 CURVE SMOOTH",
"402 154 OFFCURVE",
"364 110 OFFCURVE",
"295 110 CURVE SMOOTH"
);
}
);
};
layerId = "E1B555A7-F4E1-459C-9C1A-AE952106EEF9";
paths = (
{
closed = 1;
nodes = (
"393 -197 OFFCURVE",
"428 -190 OFFCURVE",
"458 -177 CURVE",
"441 -105 LINE",
"422 -113 OFFCURVE",
"404 -117 OFFCURVE",
"387 -117 CURVE SMOOTH",
"349 -117 OFFCURVE",
"328 -99 OFFCURVE",
"328 -64 CURVE SMOOTH",
"328 -30 OFFCURVE",
"349 -6 OFFCURVE",
"392 6 CURVE SMOOTH",
"494 35 OFFCURVE",
"557 127 OFFCURVE",
"557 248 CURVE SMOOTH",
"557 405 OFFCURVE",
"454 503 OFFCURVE",
"295 503 CURVE SMOOTH",
"136 503 OFFCURVE",
"33 405 OFFCURVE",
"33 248 CURVE SMOOTH",
"33 91 OFFCURVE",
"136 -8 OFFCURVE",
"300 -8 CURVE",
"290 14 LINE",
"250 -10 OFFCURVE",
"229 -46 OFFCURVE",
"229 -87 CURVE SMOOTH",
"229 -151 OFFCURVE",
"282 -197 OFFCURVE",
"357 -197 CURVE SMOOTH"
);
},
{
closed = 1;
nodes = (
"226 110 OFFCURVE",
"188 154 OFFCURVE",
"188 248 CURVE SMOOTH",
"188 342 OFFCURVE",
"226 386 OFFCURVE",
"295 386 CURVE SMOOTH",
"364 386 OFFCURVE",
"402 342 OFFCURVE",
"402 248 CURVE SMOOTH",
"402 154 OFFCURVE",
"364 110 OFFCURVE",
"295 110 CURVE SMOOTH"
);
}
);
width = 590;
}
);
leftKerningGroup = o;
rightKerningGroup = o;
unicode = 01EB;
},
{
glyphname = oslash;
lastChange = "2017-11-14 17:22:24 +0000";
layers = (
{
anchors = (
{
name = top;
position = "{295, 495}";
}
);
background = {
anchors = (
{
name = top;
position = "{295, 495}";
}
);
paths = (
{
closed = 1;
nodes = (
"454 -8 OFFCURVE",
"557 91 OFFCURVE",
"557 248 CURVE SMOOTH",
"557 405 OFFCURVE",
"454 503 OFFCURVE",
"295 503 CURVE SMOOTH",
"136 503 OFFCURVE",
"33 405 OFFCURVE",
"33 248 CURVE SMOOTH",
"33 91 OFFCURVE",
"136 -8 OFFCURVE",
"295 -8 CURVE SMOOTH"
);
},
{
closed = 1;
nodes = (
"481 484 LINE SMOOTH",
"511 535 OFFCURVE",
"435 571 OFFCURVE",
"406 522 CURVE SMOOTH",
"109 11 LINE SMOOTH",
"79 -40 OFFCURVE",
"155 -76 OFFCURVE",
"184 -27 CURVE SMOOTH"
);
},
{
closed = 1;
nodes = (
"223 109 OFFCURVE",
"185 153 OFFCURVE",
"185 248 CURVE SMOOTH",
"185 343 OFFCURVE",
"223 387 OFFCURVE",
"295 387 CURVE SMOOTH",
"367 387 OFFCURVE",
"405 343 OFFCURVE",
"405 248 CURVE SMOOTH",
"405 153 OFFCURVE",
"367 109 OFFCURVE",
"295 109 CURVE SMOOTH"
);
}
);
};
layerId = "E1B555A7-F4E1-459C-9C1A-AE952106EEF9";
paths = (
{
closed = 1;
nodes = (
"454 -8 OFFCURVE",
"557 91 OFFCURVE",
"557 248 CURVE SMOOTH",
"557 405 OFFCURVE",
"454 503 OFFCURVE",
"295 503 CURVE SMOOTH",
"136 503 OFFCURVE",
"33 405 OFFCURVE",
"33 248 CURVE SMOOTH",
"33 91 OFFCURVE",
"136 -8 OFFCURVE",
"295 -8 CURVE SMOOTH"
);
},
{
closed = 1;
nodes = (
"500 516 LINE",
"428 559 LINE",
"90 -21 LINE",
"162 -64 LINE"
);
},
{
closed = 1;
nodes = (
"223 109 OFFCURVE",
"185 153 OFFCURVE",
"185 248 CURVE SMOOTH",
"185 343 OFFCURVE",
"223 387 OFFCURVE",
"295 387 CURVE SMOOTH",
"367 387 OFFCURVE",
"405 343 OFFCURVE",
"405 248 CURVE SMOOTH",
"405 153 OFFCURVE",
"367 109 OFFCURVE",
"295 109 CURVE SMOOTH"
);
}
);
width = 590;
}
);
leftKerningGroup = o;
rightKerningGroup = o;
unicode = 00F8;
},
{
glyphname = oe;
lastChange = "2017-11-14 17:22:24 +0000";
layers = (
{
anchors = (
{
name = bottom;
position = "{476, 0}";
},
{
name = top;
position = "{476, 495}";
}
);
background = {
anchors = (
{
name = bottom;
position = "{476, 0}";
},
{
name = top;
position = "{476, 495}";
}
);
paths = (
{
closed = 1;
nodes = (
"440 -8 OFFCURVE",
"531 89 OFFCURVE",
"531 248 CURVE SMOOTH",
"531 407 OFFCURVE",
"440 503 OFFCURVE",
"291 503 CURVE SMOOTH",
"134 503 OFFCURVE",
"33 404 OFFCURVE",
"33 248 CURVE SMOOTH",
"33 92 OFFCURVE",
"134 -8 OFFCURVE",
"291 -8 CURVE SMOOTH"
);
},
{
closed = 1;
nodes = (
"224 110 OFFCURVE",
"188 156 OFFCURVE",
"188 248 CURVE SMOOTH",
"188 340 OFFCURVE",
"224 386 OFFCURVE",
"293 386 CURVE SMOOTH",
"362 386 OFFCURVE",
"398 340 OFFCURVE",
"398 248 CURVE SMOOTH",
"398 156 OFFCURVE",
"362 110 OFFCURVE",
"293 110 CURVE SMOOTH"
);
},
{
closed = 1;
nodes = (
"715 -8 OFFCURVE",
"781 9 OFFCURVE",
"825 33 CURVE SMOOTH",
"849 46 OFFCURVE",
"863 66 OFFCURVE",
"863 90 CURVE SMOOTH",
"863 125 OFFCURVE",
"844 148 OFFCURVE",
"817 148 CURVE SMOOTH",
"780 148 OFFCURVE",
"737 108 OFFCURVE",
"668 108 CURVE SMOOTH",
"587 108 OFFCURVE",
"553 153 OFFCURVE",
"553 263 CURVE SMOOTH",
"553 349 OFFCURVE",
"588 396 OFFCURVE",
"651 396 CURVE SMOOTH",
"705 396 OFFCURVE",
"735 354 OFFCURVE",
"735 278 CURVE",
"773 293 LINE",
"543 293 LINE",
"542 216 LINE",
"826 216 LINE SMOOTH",
"852 216 OFFCURVE",
"866 232 OFFCURVE",
"866 262 CURVE SMOOTH",
"866 406 OFFCURVE",
"780 503 OFFCURVE",
"654 503 CURVE SMOOTH",
"516 503 OFFCURVE",
"425 402 OFFCURVE",
"425 247 CURVE SMOOTH",
"425 86 OFFCURVE",
"514 -8 OFFCURVE",
"665 -8 CURVE SMOOTH"
);
}
);
};
layerId = "E1B555A7-F4E1-459C-9C1A-AE952106EEF9";
paths = (
{
closed = 1;
nodes = (
"440 -8 OFFCURVE",
"531 89 OFFCURVE",
"531 248 CURVE SMOOTH",
"531 407 OFFCURVE",
"440 503 OFFCURVE",
"291 503 CURVE SMOOTH",
"134 503 OFFCURVE",
"33 404 OFFCURVE",
"33 248 CURVE SMOOTH",
"33 92 OFFCURVE",
"134 -8 OFFCURVE",
"291 -8 CURVE SMOOTH"
);
},
{
closed = 1;
nodes = (
"226 110 OFFCURVE",
"188 154 OFFCURVE",
"188 248 CURVE SMOOTH",
"188 342 OFFCURVE",
"226 386 OFFCURVE",
"293 386 CURVE SMOOTH",
"360 386 OFFCURVE",
"398 342 OFFCURVE",
"398 248 CURVE SMOOTH",
"398 154 OFFCURVE",
"360 110 OFFCURVE",
"293 110 CURVE SMOOTH"
);
},
{
closed = 1;
nodes = (
"736 -8 OFFCURVE",
"810 15 OFFCURVE",
"858 52 CURVE",
"817 156 LINE",
"774 125 OFFCURVE",
"722 108 OFFCURVE",
"668 108 CURVE SMOOTH",
"587 108 OFFCURVE",
"553 153 OFFCURVE",
"553 263 CURVE SMOOTH",
"553 349 OFFCURVE",
"588 396 OFFCURVE",
"651 396 CURVE SMOOTH",
"705 396 OFFCURVE",
"735 354 OFFCURVE",
"735 278 CURVE",
"773 293 LINE",
"543 293 LINE",
"542 216 LINE",
"866 216 LINE",
"866 254 LINE SMOOTH",
"866 403 OFFCURVE",
"780 503 OFFCURVE",
"654 503 CURVE SMOOTH",
"516 503 OFFCURVE",
"425 402 OFFCURVE",
"425 247 CURVE SMOOTH",
"425 85 OFFCURVE",
"514 -8 OFFCURVE",
"667 -8 CURVE SMOOTH"
);
}
);
width = 898;
}
);
leftKerningGroup = o;
rightKerningGroup = e;
unicode = 0153;
},
{
glyphname = p;
lastChange = "2017-11-14 17:22:24 +0000";
layers = (
{
anchors = (
{
name = bottom;
position = "{308, 0}";
},
{
name = top;
position = "{308, 495}";
}
);
background = {
anchors = (
{
name = bottom;
position = "{308, 0}";
},
{
name = top;
position = "{308, 495}";
}
);
paths = (
{
closed = 1;
nodes = (
"183 -185 OFFCURVE",
"213 -158 OFFCURVE",
"213 -117 CURVE SMOOTH",
"213 115 LINE",
"200 96 LINE",
"222 32 OFFCURVE",
"287 -8 OFFCURVE",
"365 -8 CURVE SMOOTH",
"493 -8 OFFCURVE",
"582 91 OFFCURVE",
"582 245 CURVE SMOOTH",
"582 399 OFFCURVE",
"492 503 OFFCURVE",
"365 503 CURVE SMOOTH",
"287 503 OFFCURVE",
"222 463 OFFCURVE",
"200 399 CURVE",
"211 377 LINE",
"211 428 LINE SMOOTH",
"211 472 OFFCURVE",
"181 501 OFFCURVE",
"134 501 CURVE SMOOTH",
"87 501 OFFCURVE",
"57 472 OFFCURVE",
"57 428 CURVE SMOOTH",
"57 -114 LINE SMOOTH",
"57 -156 OFFCURVE",
"89 -185 OFFCURVE",
"137 -185 CURVE SMOOTH"
);
},
{
closed = 1;
nodes = (
"250 110 OFFCURVE",
"211 159 OFFCURVE",
"211 247 CURVE SMOOTH",
"211 336 OFFCURVE",
"250 385 OFFCURVE",
"319 385 CURVE SMOOTH",
"387 385 OFFCURVE",
"427 334 OFFCURVE",
"427 245 CURVE SMOOTH",
"427 158 OFFCURVE",
"388 110 OFFCURVE",
"319 110 CURVE SMOOTH"
);
}
);
};
layerId = "E1B555A7-F4E1-459C-9C1A-AE952106EEF9";
paths = (
{
closed = 1;
nodes = (
"213 -180 LINE",
"213 115 LINE",
"200 96 LINE",
"222 32 OFFCURVE",
"287 -8 OFFCURVE",
"365 -8 CURVE SMOOTH",
"493 -8 OFFCURVE",
"582 91 OFFCURVE",
"582 245 CURVE SMOOTH",
"582 399 OFFCURVE",
"492 503 OFFCURVE",
"365 503 CURVE SMOOTH",
"287 503 OFFCURVE",
"222 463 OFFCURVE",
"200 399 CURVE",
"211 377 LINE",
"211 491 LINE",
"57 491 LINE",
"57 -180 LINE"
);
},
{
closed = 1;
nodes = (
"250 110 OFFCURVE",
"211 159 OFFCURVE",
"211 247 CURVE SMOOTH",
"211 336 OFFCURVE",
"250 385 OFFCURVE",
"319 385 CURVE SMOOTH",
"387 385 OFFCURVE",
"427 334 OFFCURVE",
"427 245 CURVE SMOOTH",
"427 158 OFFCURVE",
"388 110 OFFCURVE",
"319 110 CURVE SMOOTH"
);
}
);
width = 615;
}
);
leftKerningGroup = n;
rightKerningGroup = o;
unicode = 0070;
userData = {
anchors = (
);
b = {
};
com.typemytype.robofont.layerData = {
b = {
anchors = (
);
components = (
);
contours = (
);
lib = {
};
name = p;
unicodes = (
);
width = 1181;
};
};
components = (
);
contours = (
);
lib = {
};
name = p;
unicodes = (
);
width = 1207;
};
},
{
glyphname = thorn;
lastChange = "2017-11-14 17:22:24 +0000";
layers = (
{
anchors = (
{
name = bottom;
position = "{308, 0}";
},
{
name = top;
position = "{308, 495}";
}
);
background = {
anchors = (
{
name = bottom;
position = "{308, 0}";
},
{
name = top;
position = "{308, 495}";
}
);
paths = (
{
closed = 1;
nodes = (
"183 -185 OFFCURVE",
"213 -158 OFFCURVE",
"213 -117 CURVE SMOOTH",
"213 113 LINE",
"200 96 LINE",
"222 32 OFFCURVE",
"287 -8 OFFCURVE",
"365 -8 CURVE SMOOTH",
"493 -8 OFFCURVE",
"582 94 OFFCURVE",
"582 245 CURVE SMOOTH",
"582 396 OFFCURVE",
"493 503 OFFCURVE",
"365 503 CURVE SMOOTH",
"287 503 OFFCURVE",
"222 463 OFFCURVE",
"200 399 CURVE",
"213 380 LINE",
"213 642 LINE SMOOTH",
"213 683 OFFCURVE",
"183 710 OFFCURVE",
"137 710 CURVE SMOOTH",
"89 710 OFFCURVE",
"57 681 OFFCURVE",
"57 639 CURVE SMOOTH",
"57 -114 LINE SMOOTH",
"57 -156 OFFCURVE",
"89 -185 OFFCURVE",
"137 -185 CURVE SMOOTH"
);
},
{
closed = 1;
nodes = (
"250 110 OFFCURVE",
"211 159 OFFCURVE",
"211 247 CURVE SMOOTH",
"211 336 OFFCURVE",
"250 385 OFFCURVE",
"319 385 CURVE SMOOTH",
"387 385 OFFCURVE",
"427 334 OFFCURVE",
"427 245 CURVE SMOOTH",
"427 158 OFFCURVE",
"388 110 OFFCURVE",
"319 110 CURVE SMOOTH"
);
}
);
};
layerId = "E1B555A7-F4E1-459C-9C1A-AE952106EEF9";
paths = (
{
closed = 1;
nodes = (
"213 -180 LINE",
"213 115 LINE",
"200 96 LINE",
"222 32 OFFCURVE",
"287 -8 OFFCURVE",
"365 -8 CURVE SMOOTH",
"493 -8 OFFCURVE",
"582 91 OFFCURVE",
"582 245 CURVE SMOOTH",
"582 399 OFFCURVE",
"492 503 OFFCURVE",
"365 503 CURVE SMOOTH",
"287 503 OFFCURVE",
"222 463 OFFCURVE",
"200 399 CURVE",
"213 380 LINE",
"213 705 LINE",
"57 705 LINE",
"57 -180 LINE"
);
},
{
closed = 1;
nodes = (
"250 110 OFFCURVE",
"211 159 OFFCURVE",
"211 247 CURVE SMOOTH",
"211 336 OFFCURVE",
"250 385 OFFCURVE",
"319 385 CURVE SMOOTH",
"387 385 OFFCURVE",
"427 334 OFFCURVE",
"427 245 CURVE SMOOTH",
"427 158 OFFCURVE",
"388 110 OFFCURVE",
"319 110 CURVE SMOOTH"
);
}
);
width = 615;
}
);
leftKerningGroup = h;
rightKerningGroup = o;
unicode = 00FE;
},
{
glyphname = q;
lastChange = "2017-11-14 17:22:24 +0000";
layers = (
{
anchors = (
{
name = bottom;
position = "{308, 0}";
},
{
name = top;
position = "{308, 495}";
}
);
background = {
anchors = (
{
name = bottom;
position = "{308, 0}";
},
{
name = top;
position = "{308, 495}";
}
);
paths = (
{
closed = 1;
nodes = (
"526 -185 OFFCURVE",
"558 -156 OFFCURVE",
"558 -114 CURVE SMOOTH",
"558 428 LINE SMOOTH",
"558 472 OFFCURVE",
"528 501 OFFCURVE",
"481 501 CURVE SMOOTH",
"434 501 OFFCURVE",
"404 472 OFFCURVE",
"404 428 CURVE SMOOTH",
"404 377 LINE",
"415 399 LINE",
"393 463 OFFCURVE",
"328 503 OFFCURVE",
"250 503 CURVE SMOOTH",
"123 503 OFFCURVE",
"33 399 OFFCURVE",
"33 245 CURVE SMOOTH",
"33 91 OFFCURVE",
"122 -8 OFFCURVE",
"250 -8 CURVE SMOOTH",
"328 -8 OFFCURVE",
"393 32 OFFCURVE",
"415 96 CURVE",
"402 115 LINE",
"402 -117 LINE SMOOTH",
"402 -158 OFFCURVE",
"432 -185 OFFCURVE",
"478 -185 CURVE SMOOTH"
);
},
{
closed = 1;
nodes = (
"227 110 OFFCURVE",
"188 158 OFFCURVE",
"188 245 CURVE SMOOTH",
"188 334 OFFCURVE",
"228 385 OFFCURVE",
"296 385 CURVE SMOOTH",
"365 385 OFFCURVE",
"404 336 OFFCURVE",
"404 247 CURVE SMOOTH",
"404 159 OFFCURVE",
"365 110 OFFCURVE",
"296 110 CURVE SMOOTH"
);
}
);
};
layerId = "E1B555A7-F4E1-459C-9C1A-AE952106EEF9";
paths = (
{
closed = 1;
nodes = (
"558 -180 LINE",
"558 491 LINE",
"404 491 LINE",
"404 377 LINE",
"415 399 LINE",
"393 463 OFFCURVE",
"328 503 OFFCURVE",
"250 503 CURVE SMOOTH",
"123 503 OFFCURVE",
"33 399 OFFCURVE",
"33 245 CURVE SMOOTH",
"33 91 OFFCURVE",
"122 -8 OFFCURVE",
"250 -8 CURVE SMOOTH",
"328 -8 OFFCURVE",
"393 32 OFFCURVE",
"415 96 CURVE",
"402 115 LINE",
"402 -180 LINE"
);
},
{
closed = 1;
nodes = (
"227 110 OFFCURVE",
"188 158 OFFCURVE",
"188 245 CURVE SMOOTH",
"188 334 OFFCURVE",
"228 385 OFFCURVE",
"296 385 CURVE SMOOTH",
"365 385 OFFCURVE",
"404 336 OFFCURVE",
"404 247 CURVE SMOOTH",
"404 159 OFFCURVE",
"365 110 OFFCURVE",
"296 110 CURVE SMOOTH"
);
}
);
width = 615;
}
);
leftKerningGroup = o;
rightKerningGroup = q;
unicode = 0071;
userData = {
anchors = (
);
b = {
};
com.typemytype.robofont.layerData = {
b = {
anchors = (
);
components = (
);
contours = (
);
lib = {
};
name = p;
unicodes = (
);
width = 1181;
};
};
components = (
);
contours = (
);
lib = {
};
name = p;
unicodes = (
);
width = 1207;
};
},
{
glyphname = r;
lastChange = "2017-11-14 17:22:24 +0000";
layers = (
{
anchors = (
{
name = bottom;
position = "{135, 0}";
},
{
name = top;
position = "{235, 495}";
}
);
background = {
anchors = (
{
name = bottom;
position = "{135, 0}";
},
{
name = top;
position = "{235, 495}";
}
);
paths = (
{
closed = 1;
nodes = (
"176 -6 OFFCURVE",
"213 16 OFFCURVE",
"213 67 CURVE SMOOTH",
"213 254 LINE SMOOTH",
"213 312 OFFCURVE",
"239 357 OFFCURVE",
"315 365 CURVE SMOOTH",
"345 368 LINE SMOOTH",
"402 374 OFFCURVE",
"420 394 OFFCURVE",
"420 439 CURVE SMOOTH",
"420 482 OFFCURVE",
"394 504 OFFCURVE",
"353 501 CURVE SMOOTH",
"339 500 LINE SMOOTH",
"278 495 OFFCURVE",
"212 457 OFFCURVE",
"196 372 CURVE",
"206 361 LINE",
"206 433 LINE SMOOTH",
"206 478 OFFCURVE",
"175 501 OFFCURVE",
"134 501 CURVE SMOOTH",
"95 501 OFFCURVE",
"57 478 OFFCURVE",
"57 430 CURVE SMOOTH",
"57 67 LINE SMOOTH",
"57 16 OFFCURVE",
"94 -6 OFFCURVE",
"135 -6 CURVE SMOOTH"
);
}
);
};
layerId = "E1B555A7-F4E1-459C-9C1A-AE952106EEF9";
paths = (
{
closed = 1;
nodes = (
"213 0 LINE",
"213 254 LINE SMOOTH",
"213 314 OFFCURVE",
"238 357 OFFCURVE",
"326 366 CURVE SMOOTH",
"413 375 LINE",
"404 504 LINE",
"359 501 LINE SMOOTH",
"275 495 OFFCURVE",
"212 457 OFFCURVE",
"196 372 CURVE",
"206 361 LINE",
"206 491 LINE",
"57 491 LINE",
"57 0 LINE"
);
}
);
width = 404;
}
);
leftKerningGroup = n;
rightKerningGroup = r;
unicode = 0072;
userData = {
anchors = (
);
b = {
};
com.typemytype.robofont.layerData = {
b = {
anchors = (
);
components = (
);
contours = (
);
lib = {
};
name = r;
unicodes = (
);
width = 715;
};
};
components = (
);
contours = (
);
lib = {
};
name = r;
unicodes = (
);
width = 763;
};
},
{
glyphname = s;
lastChange = "2017-11-14 17:22:24 +0000";
layers = (
{
anchors = (
{
name = bottom;
position = "{244, 0}";
},
{
name = top;
position = "{253, 495}";
}
);
background = {
paths = (
{
closed = 1;
nodes = (
"376 -8 OFFCURVE",
"461 53 OFFCURVE",
"461 148 CURVE SMOOTH",
"461 233 OFFCURVE",
"415 272 OFFCURVE",
"284 297 CURVE SMOOTH",
"204 312 OFFCURVE",
"183 323 OFFCURVE",
"183 350 CURVE SMOOTH",
"183 375 OFFCURVE",
"208 390 OFFCURVE",
"247 390 CURVE SMOOTH",
"322 390 OFFCURVE",
"349 347 OFFCURVE",
"396 347 CURVE SMOOTH",
"422 347 OFFCURVE",
"442 372 OFFCURVE",
"442 405 CURVE SMOOTH",
"442 429 OFFCURVE",
"432 448 OFFCURVE",
"411 461 CURVE SMOOTH",
"368 488 OFFCURVE",
"311 503 OFFCURVE",
"253 503 CURVE SMOOTH",
"131 503 OFFCURVE",
"41 436 OFFCURVE",
"41 344 CURVE SMOOTH",
"41 263 OFFCURVE",
"90 221 OFFCURVE",
"208 198 CURVE SMOOTH",
"303 179 OFFCURVE",
"320 171 OFFCURVE",
"320 145 CURVE SMOOTH",
"320 120 OFFCURVE",
"293 106 OFFCURVE",
"249 106 CURVE SMOOTH",
"149 106 OFFCURVE",
"120 148 OFFCURVE",
"73 148 CURVE SMOOTH",
"46 148 OFFCURVE",
"27 125 OFFCURVE",
"27 93 CURVE SMOOTH",
"27 67 OFFCURVE",
"38 46 OFFCURVE",
"58 34 CURVE SMOOTH",
"104 5 OFFCURVE",
"162 -8 OFFCURVE",
"244 -8 CURVE SMOOTH"
);
}
);
};
layerId = "E1B555A7-F4E1-459C-9C1A-AE952106EEF9";
paths = (
{
closed = 1;
nodes = (
"380 -8 OFFCURVE",
"461 50 OFFCURVE",
"461 145 CURVE SMOOTH",
"461 224 OFFCURVE",
"417 268 OFFCURVE",
"316 291 CURVE SMOOTH",
"233 310 LINE SMOOTH",
"195 319 OFFCURVE",
"181 330 OFFCURVE",
"181 349 CURVE SMOOTH",
"181 377 OFFCURVE",
"208 393 OFFCURVE",
"253 393 CURVE SMOOTH",
"301 393 OFFCURVE",
"355 375 OFFCURVE",
"408 340 CURVE",
"449 443 LINE",
"395 481 OFFCURVE",
"325 503 OFFCURVE",
"254 503 CURVE SMOOTH",
"128 503 OFFCURVE",
"41 439 OFFCURVE",
"41 346 CURVE SMOOTH",
"41 269 OFFCURVE",
"83 226 OFFCURVE",
"179 205 CURVE SMOOTH",
"259 187 LINE SMOOTH",
"308 176 OFFCURVE",
"322 166 OFFCURVE",
"322 143 CURVE SMOOTH",
"322 117 OFFCURVE",
"296 102 OFFCURVE",
"250 102 CURVE SMOOTH",
"186 102 OFFCURVE",
"118 123 OFFCURVE",
"65 159 CURVE",
"24 52 LINE",
"78 13 OFFCURVE",
"156 -8 OFFCURVE",
"248 -8 CURVE SMOOTH"
);
}
);
width = 488;
}
);
leftKerningGroup = s;
rightKerningGroup = s;
unicode = 0073;
userData = {
anchors = (
);
b = {
};
com.typemytype.robofont.layerData = {
b = {
anchors = (
);
components = (
);
contours = (
);
lib = {
};
name = s;
unicodes = (
);
width = 1007;
};
};
components = (
);
contours = (
);
lib = {
};
name = s;
unicodes = (
);
width = 1006.76001;
};
},
{
glyphname = germandbls;
lastChange = "2017-11-14 17:22:24 +0000";
layers = (
{
background = {
paths = (
{
closed = 1;
nodes = (
"582 -8 OFFCURVE",
"663 56 OFFCURVE",
"663 158 CURVE SMOOTH",
"663 329 OFFCURVE",
"435 291 OFFCURVE",
"435 363 CURVE SMOOTH",
"435 420 OFFCURVE",
"547 463 OFFCURVE",
"547 564 CURVE SMOOTH",
"547 658 OFFCURVE",
"469 713 OFFCURVE",
"336 713 CURVE SMOOTH",
"157 713 OFFCURVE",
"57 617 OFFCURVE",
"57 442 CURVE SMOOTH",
"57 67 LINE SMOOTH",
"57 22 OFFCURVE",
"87 -6 OFFCURVE",
"135 -6 CURVE SMOOTH",
"183 -6 OFFCURVE",
"213 22 OFFCURVE",
"213 67 CURVE SMOOTH",
"213 466 LINE SMOOTH",
"213 553 OFFCURVE",
"256 602 OFFCURVE",
"329 602 CURVE SMOOTH",
"377 602 OFFCURVE",
"402 584 OFFCURVE",
"402 550 CURVE SMOOTH",
"402 492 OFFCURVE",
"293 446 OFFCURVE",
"293 346 CURVE SMOOTH",
"293 184 OFFCURVE",
"522 221 OFFCURVE",
"522 145 CURVE SMOOTH",
"522 120 OFFCURVE",
"500 106 OFFCURVE",
"461 106 CURVE SMOOTH",
"381 106 OFFCURVE",
"352 148 OFFCURVE",
"305 148 CURVE SMOOTH",
"278 148 OFFCURVE",
"259 125 OFFCURVE",
"259 93 CURVE SMOOTH",
"259 67 OFFCURVE",
"270 46 OFFCURVE",
"290 34 CURVE SMOOTH",
"334 7 OFFCURVE",
"393 -8 OFFCURVE",
"456 -8 CURVE SMOOTH"
);
}
);
};
layerId = "E1B555A7-F4E1-459C-9C1A-AE952106EEF9";
paths = (
{
closed = 1;
nodes = (
"213 0 LINE",
"213 466 LINE SMOOTH",
"213 553 OFFCURVE",
"256 602 OFFCURVE",
"329 602 CURVE SMOOTH",
"377 602 OFFCURVE",
"402 584 OFFCURVE",
"402 550 CURVE SMOOTH",
"402 492 OFFCURVE",
"293 446 OFFCURVE",
"293 346 CURVE SMOOTH",
"293 184 OFFCURVE",
"522 221 OFFCURVE",
"522 145 CURVE SMOOTH",
"522 120 OFFCURVE",
"501 107 OFFCURVE",
"461 106 CURVE SMOOTH",
"412 105 OFFCURVE",
"351 125 OFFCURVE",
"296 159 CURVE",
"255 52 LINE",
"307 14 OFFCURVE",
"382 -8 OFFCURVE",
"459 -8 CURVE SMOOTH",
"583 -8 OFFCURVE",
"663 57 OFFCURVE",
"663 158 CURVE SMOOTH",
"663 329 OFFCURVE",
"435 291 OFFCURVE",
"435 363 CURVE SMOOTH",
"435 420 OFFCURVE",
"547 463 OFFCURVE",
"547 564 CURVE SMOOTH",
"547 658 OFFCURVE",
"469 713 OFFCURVE",
"336 713 CURVE SMOOTH",
"157 713 OFFCURVE",
"57 617 OFFCURVE",
"57 442 CURVE SMOOTH",
"57 0 LINE"
);
}
);
width = 683;
}
);
leftKerningGroup = h;
rightKerningGroup = germandbls;
unicode = 00DF;
},
{
glyphname = t;
lastChange = "2017-11-14 17:22:24 +0000";
layers = (
{
anchors = (
{
name = bottom;
position = "{245, 0}";
},
{
name = center;
position = "{175, 248}";
},
{
name = top;
position = "{175, 635}";
},
{
name = topright;
position = "{293, 705}";
}
);
background = {
paths = (
{
closed = 1;
nodes = (
"360 -9 OFFCURVE",
"393 12 OFFCURVE",
"393 53 CURVE SMOOTH",
"393 87 OFFCURVE",
"374 104 OFFCURVE",
"333 107 CURVE SMOOTH",
"305 109 LINE SMOOTH",
"272 111 OFFCURVE",
"253 132 OFFCURVE",
"253 169 CURVE SMOOTH",
"253 567 LINE SMOOTH",
"253 612 OFFCURVE",
"223 640 OFFCURVE",
"175 640 CURVE SMOOTH",
"127 640 OFFCURVE",
"97 612 OFFCURVE",
"97 567 CURVE SMOOTH",
"97 181 LINE SMOOTH",
"97 68 OFFCURVE",
"156 6 OFFCURVE",
"273 -3 CURVE SMOOTH",
"301 -5 LINE SMOOTH"
);
},
{
closed = 1;
nodes = (
"320 375 LINE SMOOTH",
"366 375 OFFCURVE",
"390 395 OFFCURVE",
"390 433 CURVE SMOOTH",
"390 471 OFFCURVE",
"366 491 OFFCURVE",
"320 491 CURVE SMOOTH",
"59 491 LINE SMOOTH",
"13 491 OFFCURVE",
"-11 471 OFFCURVE",
"-11 433 CURVE SMOOTH",
"-11 395 OFFCURVE",
"13 375 OFFCURVE",
"59 375 CURVE SMOOTH"
);
}
);
};
layerId = "E1B555A7-F4E1-459C-9C1A-AE952106EEF9";
paths = (
{
closed = 1;
nodes = (
"375 375 LINE",
"375 491 LINE",
"4 491 LINE",
"4 375 LINE"
);
},
{
closed = 1;
nodes = (
"97 192 LINE SMOOTH",
"97 59 OFFCURVE",
"161 -8 OFFCURVE",
"314 -8 CURVE SMOOTH",
"336 -8 OFFCURVE",
"351 -7 OFFCURVE",
"373 -4 CURVE",
"381 109 LINE",
"364 107 OFFCURVE",
"348 106 OFFCURVE",
"333 106 CURVE SMOOTH",
"279 106 OFFCURVE",
"253 134 OFFCURVE",
"253 192 CURVE SMOOTH",
"253 635 LINE",
"97 635 LINE"
);
}
);
width = 390;
}
);
leftKerningGroup = t;
rightKerningGroup = t;
unicode = 0074;
userData = {
anchors = (
);
b = {
};
com.typemytype.robofont.layerData = {
b = {
anchors = (
);
components = (
);
contours = (
{
points = (
{
segmentType = curve;
smooth = 1;
x = 317;
y = 0;
},
{
smooth = 0;
x = 358;
y = 0;
},
{
smooth = 0;
x = 398;
y = 27;
},
{
segmentType = curve;
smooth = 1;
x = 398;
y = 79;
},
{
segmentType = line;
smooth = 0;
x = 398;
y = 876;
},
{
segmentType = line;
smooth = 1;
x = 578;
y = 876;
},
{
smooth = 0;
x = 621;
y = 876;
},
{
smooth = 0;
x = 634;
y = 897;
},
{
segmentType = curve;
smooth = 1;
x = 634;
y = 928;
},
{
smooth = 0;
x = 634;
y = 957;
},
{
smooth = 0;
x = 621;
y = 981;
},
{
segmentType = curve;
smooth = 1;
x = 578;
y = 981;
},
{
segmentType = line;
smooth = 0;
x = 398;
y = 981;
},
{
segmentType = line;
smooth = 1;
x = 398;
y = 1053;
},
{
smooth = 0;
x = 398;
y = 1285;
},
{
smooth = 0;
x = 432;
y = 1318;
},
{
segmentType = curve;
smooth = 1;
x = 544;
y = 1318;
},
{
segmentType = line;
smooth = 1;
x = 629;
y = 1318;
},
{
smooth = 0;
x = 706;
y = 1318;
},
{
smooth = 0;
x = 703;
y = 1438;
},
{
segmentType = curve;
smooth = 1;
x = 630;
y = 1438;
},
{
segmentType = line;
smooth = 1;
x = 510;
y = 1438;
},
{
smooth = 0;
x = 357;
y = 1438;
},
{
smooth = 0;
x = 238;
y = 1371;
},
{
segmentType = curve;
smooth = 1;
x = 238;
y = 1112;
},
{
segmentType = line;
smooth = 0;
x = 238;
y = 981;
},
{
segmentType = line;
smooth = 1;
x = 98;
y = 981;
},
{
smooth = 0;
x = 55;
y = 981;
},
{
smooth = 0;
x = 39;
y = 957;
},
{
segmentType = curve;
smooth = 1;
x = 39;
y = 928;
},
{
smooth = 0;
x = 39;
y = 899;
},
{
smooth = 0;
x = 55;
y = 876;
},
{
segmentType = curve;
smooth = 1;
x = 98;
y = 876;
},
{
segmentType = line;
smooth = 0;
x = 238;
y = 876;
},
{
segmentType = line;
smooth = 1;
x = 238;
y = 79;
},
{
smooth = 0;
x = 238;
y = 26;
},
{
smooth = 0;
x = 278;
y = 0;
}
);
}
);
lib = {
};
name = t;
unicodes = (
);
width = 706;
};
};
components = (
);
contours = (
);
lib = {
};
name = t;
unicodes = (
);
width = 768;
};
},
{
glyphname = tbar;
lastChange = "2017-11-14 17:22:24 +0000";
layers = (
{
background = {
paths = (
{
closed = 1;
nodes = (
"365 -9 OFFCURVE",
"398 12 OFFCURVE",
"398 53 CURVE SMOOTH",
"398 87 OFFCURVE",
"379 104 OFFCURVE",
"338 107 CURVE SMOOTH",
"310 109 LINE SMOOTH",
"277 111 OFFCURVE",
"258 132 OFFCURVE",
"258 169 CURVE SMOOTH",
"258 567 LINE SMOOTH",
"258 612 OFFCURVE",
"228 640 OFFCURVE",
"180 640 CURVE SMOOTH",
"132 640 OFFCURVE",
"102 612 OFFCURVE",
"102 567 CURVE SMOOTH",
"102 181 LINE SMOOTH",
"102 68 OFFCURVE",
"161 6 OFFCURVE",
"278 -3 CURVE SMOOTH",
"306 -5 LINE SMOOTH"
);
},
{
closed = 1;
nodes = (
"310 226 LINE SMOOTH",
"351 226 OFFCURVE",
"375 246 OFFCURVE",
"375 280 CURVE SMOOTH",
"375 314 OFFCURVE",
"351 334 OFFCURVE",
"310 334 CURVE SMOOTH",
"79 334 LINE SMOOTH",
"38 334 OFFCURVE",
"14 314 OFFCURVE",
"14 280 CURVE SMOOTH",
"14 246 OFFCURVE",
"38 226 OFFCURVE",
"79 226 CURVE SMOOTH"
);
},
{
closed = 1;
nodes = (
"325 375 LINE SMOOTH",
"371 375 OFFCURVE",
"395 395 OFFCURVE",
"395 433 CURVE SMOOTH",
"395 471 OFFCURVE",
"371 491 OFFCURVE",
"325 491 CURVE SMOOTH",
"64 491 LINE SMOOTH",
"18 491 OFFCURVE",
"-6 471 OFFCURVE",
"-6 433 CURVE SMOOTH",
"-6 395 OFFCURVE",
"18 375 OFFCURVE",
"64 375 CURVE SMOOTH"
);
}
);
};
layerId = "E1B555A7-F4E1-459C-9C1A-AE952106EEF9";
paths = (
{
closed = 1;
nodes = (
"360 224 LINE",
"360 332 LINE",
"29 332 LINE",
"29 224 LINE"
);
},
{
closed = 1;
nodes = (
"380 375 LINE",
"380 491 LINE",
"9 491 LINE",
"9 375 LINE"
);
},
{
closed = 1;
nodes = (
"102 192 LINE SMOOTH",
"102 59 OFFCURVE",
"166 -8 OFFCURVE",
"319 -8 CURVE SMOOTH",
"341 -8 OFFCURVE",
"356 -7 OFFCURVE",
"378 -4 CURVE",
"386 109 LINE",
"369 107 OFFCURVE",
"353 106 OFFCURVE",
"338 106 CURVE SMOOTH",
"284 106 OFFCURVE",
"258 134 OFFCURVE",
"258 192 CURVE SMOOTH",
"258 635 LINE",
"102 635 LINE"
);
}
);
width = 400;
}
);
leftKerningGroup = t;
rightKerningGroup = t;
unicode = 0167;
userData = {
com.typemytype.robofont.layerData = {
b = {
anchors = (
);
components = (
);
contours = (
);
lib = {
};
name = tbar;
unicodes = (
);
width = 706;
};
};
};
},
{
glyphname = u;
lastChange = "2017-11-14 17:22:24 +0000";
layers = (
{
anchors = (
{
name = bottom;
position = "{295, 0}";
},
{
name = ogonek;
position = "{506, 10}";
},
{
name = top;
position = "{295, 495}";
},
{
name = topright;
position = "{409, 495}";
}
);
background = {
anchors = (
{
name = bottom;
position = "{295, 0}";
},
{
name = ogonek;
position = "{506, 10}";
},
{
name = top;
position = "{295, 495}";
},
{
name = topright;
position = "{409, 495}";
}
);
paths = (
{
closed = 1;
nodes = (
"310 -8 OFFCURVE",
"366 28 OFFCURVE",
"395 94 CURVE",
"382 98 LINE",
"382 62 LINE SMOOTH",
"382 21 OFFCURVE",
"411 -6 OFFCURVE",
"455 -6 CURVE SMOOTH",
"502 -6 OFFCURVE",
"534 23 OFFCURVE",
"534 65 CURVE SMOOTH",
"534 428 LINE SMOOTH",
"534 473 OFFCURVE",
"504 501 OFFCURVE",
"456 501 CURVE SMOOTH",
"408 501 OFFCURVE",
"378 473 OFFCURVE",
"378 428 CURVE SMOOTH",
"378 220 LINE SMOOTH",
"378 156 OFFCURVE",
"339 113 OFFCURVE",
"282 113 CURVE SMOOTH",
"233 113 OFFCURVE",
"210 140 OFFCURVE",
"210 197 CURVE SMOOTH",
"210 428 LINE SMOOTH",
"210 473 OFFCURVE",
"180 501 OFFCURVE",
"132 501 CURVE SMOOTH",
"84 501 OFFCURVE",
"54 473 OFFCURVE",
"54 428 CURVE SMOOTH",
"54 200 LINE SMOOTH",
"54 60 OFFCURVE",
"114 -8 OFFCURVE",
"238 -8 CURVE SMOOTH"
);
}
);
};
layerId = "E1B555A7-F4E1-459C-9C1A-AE952106EEF9";
paths = (
{
closed = 1;
nodes = (
"310 -8 OFFCURVE",
"366 28 OFFCURVE",
"395 94 CURVE",
"382 98 LINE",
"382 0 LINE",
"534 0 LINE",
"534 491 LINE",
"378 491 LINE",
"378 220 LINE SMOOTH",
"378 156 OFFCURVE",
"339 113 OFFCURVE",
"282 113 CURVE SMOOTH",
"233 113 OFFCURVE",
"210 140 OFFCURVE",
"210 197 CURVE SMOOTH",
"210 491 LINE",
"54 491 LINE",
"54 200 LINE SMOOTH",
"54 60 OFFCURVE",
"114 -8 OFFCURVE",
"238 -8 CURVE SMOOTH"
);
}
);
width = 591;
}
);
leftKerningGroup = u;
rightKerningGroup = u;
unicode = 0075;
userData = {
anchors = (
);
b = {
};
com.typemytype.robofont.layerData = {
b = {
anchors = (
);
components = (
);
contours = (
{
points = (
{
segmentType = curve;
smooth = 1;
x = 915;
y = 991;
},
{
smooth = 0;
x = 875;
y = 991;
},
{
smooth = 0;
x = 834;
y = 965;
},
{
segmentType = curve;
smooth = 1;
x = 834;
y = 916;
},
{
segmentType = line;
smooth = 0;
x = 834;
y = 395;
},
{
smooth = 0;
x = 821;
y = 198;
},
{
smooth = 0;
x = 698;
y = 90;
},
{
segmentType = curve;
smooth = 1;
x = 542;
y = 90;
},
{
smooth = 0;
x = 385;
y = 90;
},
{
smooth = 0;
x = 306;
y = 187;
},
{
segmentType = curve;
smooth = 1;
x = 306;
y = 367;
},
{
segmentType = line;
smooth = 1;
x = 306;
y = 916;
},
{
smooth = 0;
x = 306;
y = 967;
},
{
smooth = 0;
x = 266;
y = 991;
},
{
segmentType = curve;
smooth = 1;
x = 226;
y = 991;
},
{
smooth = 0;
x = 186;
y = 991;
},
{
smooth = 0;
x = 146;
y = 967;
},
{
segmentType = curve;
smooth = 1;
x = 146;
y = 916;
},
{
segmentType = line;
smooth = 1;
x = 146;
y = 369;
},
{
smooth = 0;
x = 146;
y = 96;
},
{
smooth = 0;
x = 294;
y = "-20";
},
{
segmentType = curve;
smooth = 1;
x = 507;
y = "-20";
},
{
smooth = 0;
x = 656;
y = "-20";
},
{
smooth = 0;
x = 786;
y = 49;
},
{
segmentType = curve;
smooth = 0;
x = 834;
y = 179;
},
{
segmentType = line;
smooth = 1;
x = 834;
y = 73;
},
{
smooth = 0;
x = 834;
y = 24;
},
{
smooth = 0;
x = 874;
y = 0;
},
{
segmentType = curve;
smooth = 1;
x = 913;
y = 0;
},
{
smooth = 0;
x = 953;
y = 0;
},
{
smooth = 0;
x = 994;
y = 24;
},
{
segmentType = curve;
smooth = 1;
x = 994;
y = 75;
},
{
segmentType = line;
smooth = 1;
x = 994;
y = 916;
},
{
smooth = 0;
x = 994;
y = 967;
},
{
smooth = 0;
x = 955;
y = 991;
}
);
}
);
lib = {
};
name = u;
unicodes = (
);
width = 1152;
};
};
components = (
);
contours = (
);
lib = {
};
name = u;
unicodes = (
);
width = 1195;
};
},
